<svg xmlns="http://www.w3.org/2000/svg" version="1.1" xmlns:xlink="http://www.w3.org/1999/xlink" xmlns:svgjs="http://svgjs.com/svgjs" width="1440" height="560" preserveAspectRatio="none" viewBox="0 0 1440 560"><g mask="url(&quot;#SvgjsMask1558&quot;)" fill="none"><rect width="96" height="96" clip-path="url(&quot;#SvgjsClipPath1559&quot;)" x="-2.71" y="290.14" fill="url(#SvgjsPattern1560)" transform="rotate(38.69, 45.29, 338.14)"></rect><path d="M655.92 464.45L668.48 466.97 668.78 479.77 681.33 482.29 681.63 495.09 694.19 497.61 694.49 510.42" stroke="rgba(47, 31, 124, 1)" stroke-width="2.18"></path><rect width="216" height="216" clip-path="url(&quot;#SvgjsClipPath1561&quot;)" x="1047.8" y="32.68" fill="url(#SvgjsPattern1562)" transform="rotate(142.04, 1155.8, 140.68)"></rect><rect width="136.2" height="136.2" clip-path="url(&quot;#SvgjsClipPath1563&quot;)" x="815.01" y="312.75" fill="url(#SvgjsPattern1564)" transform="rotate(256.05, 883.11, 380.85)"></rect><rect width="117.6" height="117.6" clip-path="url(&quot;#SvgjsClipPath1565&quot;)" x="1093.34" y="192.75" fill="url(#SvgjsPattern1566)" transform="rotate(50.81, 1152.14, 251.55)"></rect><path d="M1240.2 657.01 L1312.91 571.19L1208.1334521302408 545.6784521302408z" stroke="rgba(47, 31, 124, 1)" stroke-width="1" stroke-dasharray="2, 2"></path><path d="M1178.1 56.12L1166.8 62.15 1158.44 52.46 1147.14 58.49 1138.78 48.79 1127.48 54.83 1119.11 45.13M1179.56 48.25L1168.27 54.29 1159.9 44.59 1148.61 50.63 1140.24 40.93 1128.94 46.96 1120.58 37.27M1181.03 40.39L1169.73 46.42 1161.37 36.73 1150.07 42.76 1141.71 33.06 1130.41 39.1 1122.04 29.4" stroke="rgba(47, 31, 124, 1)" stroke-width="1" stroke-dasharray="3, 3"></path><rect width="240" height="240" clip-path="url(&quot;#SvgjsClipPath1567&quot;)" x="1175.82" y="435.99" fill="url(#SvgjsPattern1568)" transform="rotate(202.77, 1295.82, 555.99)"></rect><path d="M1197.71 60.43L1194.89 72.92 1182.08 72.9 1179.25 85.39 1166.45 85.38 1163.62 97.87 1150.82 97.85M1192.72 54.18L1189.9 66.67 1177.09 66.65 1174.26 79.14 1161.46 79.13 1158.63 91.62 1145.83 91.6" stroke="rgba(47, 31, 124, 1)" stroke-width="1.22" stroke-dasharray="3, 2"></path><rect width="157.56" height="157.56" clip-path="url(&quot;#SvgjsClipPath1569&quot;)" x="851.86" y="73.96" fill="url(#SvgjsPattern1570)" transform="rotate(120.6, 930.64, 152.74)"></rect><path d="M481.38 601.8 L366.17 608.0699999999999L491.83413117384356 672.9941311738435z" fill="rgba(47, 31, 124, 1)"></path><path d="M226.01 308.54a5.6 5.6 0 1 0-10.51 3.86 5.6 5.6 0 1 0 10.51-3.86zM211 314.06a5.6 5.6 0 1 0-10.52 3.87 5.6 5.6 0 1 0 10.52-3.87zM195.98 319.58a5.6 5.6 0 1 0-10.51 3.87 5.6 5.6 0 1 0 10.51-3.87zM180.96 325.11a5.6 5.6 0 1 0-10.51 3.86 5.6 5.6 0 1 0 10.51-3.86zM250.52 282.48a5.6 5.6 0 1 0-10.51 3.86 5.6 5.6 0 1 0 10.51-3.86zM235.51 288a5.6 5.6 0 1 0-10.51 3.87 5.6 5.6 0 1 0 10.51-3.87zM220.49 293.52a5.6 5.6 0 1 0-10.51 3.87 5.6 5.6 0 1 0 10.51-3.87zM205.47 299.04a5.6 5.6 0 1 0-10.51 3.87 5.6 5.6 0 1 0 10.51-3.87z" stroke="rgba(47, 31, 124, 1)" stroke-width="2.44"></path></g><defs><mask id="SvgjsMask1558"><rect width="1440" height="560" fill="#ffffff"></rect></mask><pattern x="0" y="0" width="6" height="6" patternUnits="userSpaceOnUse" id="SvgjsPattern1560"><path d="M0 6L3 0L6 6" stroke="rgba(47, 31, 124, 1)" fill="none"></path></pattern><clipPath id="SvgjsClipPath1559"><circle r="24" cx="45.29" cy="338.14"></circle></clipPath><pattern x="0" y="0" width="6" height="6" patternUnits="userSpaceOnUse" id="SvgjsPattern1562"><path d="M3 1L3 5M1 3L5 3" stroke="rgba(47, 31, 124, 1)" fill="none" stroke-width="1.19"></path></pattern><clipPath id="SvgjsClipPath1561"><circle r="54" cx="1155.8" cy="140.68"></circle></clipPath><pattern x="0" y="0" width="13.62" height="13.62" patternUnits="userSpaceOnUse" id="SvgjsPattern1564"><path d="M6.81 1L6.81 12.62M1 6.81L12.62 6.81" stroke="rgba(47, 31, 124, 1)" fill="none" stroke-width="1.98"></path></pattern><clipPath id="SvgjsClipPath1563"><circle r="34.05" cx="883.11" cy="380.85"></circle></clipPath><pattern x="0" y="0" width="11.76" height="11.76" patternUnits="userSpaceOnUse" id="SvgjsPattern1566"><path d="M0 11.76L5.88 0L11.76 11.76" stroke="rgba(47, 31, 124, 1)" fill="none"></path></pattern><clipPath id="SvgjsClipPath1565"><circle r="29.4" cx="1152.14" cy="251.55"></circle></clipPath><pattern x="0" y="0" width="240" height="6" patternUnits="userSpaceOnUse" id="SvgjsPattern1568"><rect width="240" height="3" x="0" y="0" fill="rgba(47, 31, 124, 1)"></rect><rect width="240" height="3" x="0" y="3" fill="rgba(0, 0, 0, 0)"></rect></pattern><clipPath id="SvgjsClipPath1567"><circle r="60" cx="1295.82" cy="555.99"></circle></clipPath><pattern x="0" y="0" width="157.56" height="6.06" patternUnits="userSpaceOnUse" id="SvgjsPattern1570"><rect width="157.56" height="3.03" x="0" y="0" fill="rgba(47, 31, 124, 1)"></rect><rect width="157.56" height="3.03" x="0" y="3.03" fill="rgba(0, 0, 0, 0)"></rect></pattern><clipPath id="SvgjsClipPath1569"><circle r="39.39" cx="930.64" cy="152.74"></circle></clipPath></defs></svg>