<svg xmlns="http://www.w3.org/2000/svg" version="1.1" xmlns:xlink="http://www.w3.org/1999/xlink" xmlns:svgjs="http://svgjs.com/svgjs" width="1440" height="560" preserveAspectRatio="none" viewBox="0 0 1440 560"><g mask="url(&quot;#SvgjsMask1602&quot;)" fill="none"><path d="M372.15 427.14L368.14 439.3 355.39 438.06 351.38 450.22 338.64 448.98 334.63 461.14 321.88 459.9" stroke="rgba(47, 31, 124, 1)" stroke-width="2.25" stroke-dasharray="3, 3"></path><rect width="192" height="192" clip-path="url(&quot;#SvgjsClipPath1603&quot;)" x="931.42" y="84.05" fill="url(#SvgjsPattern1604)" transform="rotate(149.3, 1027.42, 180.05)"></rect><rect width="144" height="144" clip-path="url(&quot;#SvgjsClipPath1605&quot;)" x="1079.48" y="227.21" fill="url(#SvgjsPattern1606)" transform="rotate(2.34, 1151.48, 299.21)"></rect><path d="M225.1 74.91L227.42 87.5 215.64 92.53 217.96 105.13 206.19 110.16 208.51 122.75 196.73 127.78M218.05 71.13L220.37 83.72 208.59 88.75 210.91 101.34 199.14 106.38 201.46 118.97 189.68 124M211 67.34L213.32 79.94 201.54 84.97 203.86 97.56 192.09 102.59 194.41 115.19 182.63 120.22" stroke="rgba(47, 31, 124, 1)" stroke-width="2.69"></path><rect width="196" height="196" clip-path="url(&quot;#SvgjsClipPath1607&quot;)" x="1257.36" y="112.99" fill="url(#SvgjsPattern1608)" transform="rotate(105.27, 1355.36, 210.99)"></rect><rect width="196.92" height="196.92" clip-path="url(&quot;#SvgjsClipPath1609&quot;)" x="604.88" y="-17.98" fill="url(#SvgjsPattern1610)" transform="rotate(225.01, 703.34, 80.48)"></rect><rect width="72.8" height="72.8" clip-path="url(&quot;#SvgjsClipPath1611&quot;)" x="1084.09" y="483.81" fill="url(#SvgjsPattern1612)" transform="rotate(70.27, 1120.49, 520.21)"></rect><rect width="77.2" height="77.2" clip-path="url(&quot;#SvgjsClipPath1613&quot;)" x="562.22" y="342.76" fill="url(#SvgjsPattern1614)" transform="rotate(145.54, 600.82, 381.36)"></rect><rect width="72" height="72" clip-path="url(&quot;#SvgjsClipPath1615&quot;)" x="116.43" y="435.26" fill="url(#SvgjsPattern1616)" transform="rotate(312.43, 152.43, 471.26)"></rect><path d="M431.73 516.07a5.6 5.6 0 1 0 11.11-1.42 5.6 5.6 0 1 0-11.11 1.42zM447.6 514.04a5.6 5.6 0 1 0 11.11-1.42 5.6 5.6 0 1 0-11.11 1.42zM463.47 512.02a5.6 5.6 0 1 0 11.11-1.42 5.6 5.6 0 1 0-11.11 1.42zM479.34 509.99a5.6 5.6 0 1 0 11.11-1.42 5.6 5.6 0 1 0-11.11 1.42zM402.01 536a5.6 5.6 0 1 0 11.11-1.42 5.6 5.6 0 1 0-11.11 1.42zM417.88 533.97a5.6 5.6 0 1 0 11.11-1.42 5.6 5.6 0 1 0-11.11 1.42zM433.75 531.94a5.6 5.6 0 1 0 11.11-1.42 5.6 5.6 0 1 0-11.11 1.42zM449.62 529.92a5.6 5.6 0 1 0 11.11-1.42 5.6 5.6 0 1 0-11.11 1.42z" fill="rgba(47, 31, 124, 1)"></path><path d="M1154.07 88.55L1161.09 99.26 1152.19 108.46 1159.22 119.17 1150.31 128.38 1157.34 139.08 1148.44 148.29" stroke="rgba(47, 31, 124, 1)" stroke-width="1"></path><path d="M863.29 419.53999999999996 L1012.39 293.68L863.5980240919886 282.3680240919886z" stroke="rgba(47, 31, 124, 1)" stroke-width="1.48"></path></g><defs><mask id="SvgjsMask1602"><rect width="1440" height="560" fill="#ffffff"></rect></mask><pattern x="0" y="0" width="6" height="6" patternUnits="userSpaceOnUse" id="SvgjsPattern1604"><path d="M3 1L3 5M1 3L5 3" stroke="rgba(47, 31, 124, 1)" fill="none" stroke-width="1"></path></pattern><clipPath id="SvgjsClipPath1603"><circle r="48" cx="1027.42" cy="180.05"></circle></clipPath><pattern x="0" y="0" width="144" height="6" patternUnits="userSpaceOnUse" id="SvgjsPattern1606"><rect width="144" height="3" x="0" y="0" fill="rgba(47, 31, 124, 1)"></rect><rect width="144" height="3" x="0" y="3" fill="rgba(0, 0, 0, 0)"></rect></pattern><clipPath id="SvgjsClipPath1605"><circle r="36" cx="1151.48" cy="299.21"></circle></clipPath><pattern x="0" y="0" width="14" height="14" patternUnits="userSpaceOnUse" id="SvgjsPattern1608"><path d="M7 1L7 13M1 7L13 7" stroke="rgba(47, 31, 124, 1)" fill="none" stroke-width="4.89"></path></pattern><clipPath id="SvgjsClipPath1607"><circle r="49" cx="1355.36" cy="210.99"></circle></clipPath><pattern x="0" y="0" width="10.94" height="10.94" patternUnits="userSpaceOnUse" id="SvgjsPattern1610"><path d="M0 10.94L5.47 0L10.94 10.94" stroke="rgba(47, 31, 124, 1)" fill="none"></path></pattern><clipPath id="SvgjsClipPath1609"><circle r="49.23" cx="703.34" cy="80.48"></circle></clipPath><pattern x="0" y="0" width="7.28" height="7.28" patternUnits="userSpaceOnUse" id="SvgjsPattern1612"><path d="M0 7.28L3.64 0L7.28 7.28" stroke="rgba(47, 31, 124, 1)" fill="none"></path></pattern><clipPath id="SvgjsClipPath1611"><circle r="18.2" cx="1120.49" cy="520.21"></circle></clipPath><pattern x="0" y="0" width="7.72" height="7.72" patternUnits="userSpaceOnUse" id="SvgjsPattern1614"><path d="M0 7.72L3.86 0L7.72 7.72" stroke="rgba(47, 31, 124, 1)" fill="none"></path></pattern><clipPath id="SvgjsClipPath1613"><circle r="19.3" cx="600.82" cy="381.36"></circle></clipPath><pattern x="0" y="0" width="72" height="6" patternUnits="userSpaceOnUse" id="SvgjsPattern1616"><rect width="72" height="3" x="0" y="0" fill="rgba(47, 31, 124, 1)"></rect><rect width="72" height="3" x="0" y="3" fill="rgba(0, 0, 0, 0)"></rect></pattern><clipPath id="SvgjsClipPath1615"><circle r="18" cx="152.43" cy="471.26"></circle></clipPath></defs></svg>