<svg xmlns="http://www.w3.org/2000/svg" version="1.1" xmlns:xlink="http://www.w3.org/1999/xlink" xmlns:svgjs="http://svgjs.com/svgjs" width="1440" height="560" preserveAspectRatio="none" viewBox="0 0 1440 560"><g mask="url(&quot;#SvgjsMask1242&quot;)" fill="none"><rect width="228" height="228" clip-path="url(&quot;#SvgjsClipPath1243&quot;)" x="471" y="289.95" fill="url(#SvgjsPattern1244)" transform="rotate(186.7, 585, 403.95)"></rect><circle r="46.666666666666664" cx="1096.57" cy="137.98" stroke="rgba(47, 31, 124, 1)" stroke-width="1" stroke-dasharray="3, 2"></circle><circle r="46.666666666666664" cx="325.03" cy="484.11" stroke="rgba(47, 31, 124, 1)" stroke-width="2.09"></circle><path d="M650.5 291.83a5.6 5.6 0 1 0-3.46-10.65 5.6 5.6 0 1 0 3.46 10.65zM645.56 276.61a5.6 5.6 0 1 0-3.46-10.65 5.6 5.6 0 1 0 3.46 10.65zM640.62 261.4a5.6 5.6 0 1 0-3.46-10.66 5.6 5.6 0 1 0 3.46 10.66zM635.67 246.18a5.6 5.6 0 1 0-3.45-10.65 5.6 5.6 0 1 0 3.45 10.65z" fill="rgba(47, 31, 124, 1)"></path><rect width="132" height="132" clip-path="url(&quot;#SvgjsClipPath1245&quot;)" x="492.94" y="231.2" fill="url(#SvgjsPattern1246)" transform="rotate(28.54, 558.94, 297.2)"></rect><circle r="46.666666666666664" cx="1371.3" cy="506.4" stroke="rgba(47, 31, 124, 1)" stroke-width="2.36"></circle><rect width="126" height="126" clip-path="url(&quot;#SvgjsClipPath1247&quot;)" x="1149.09" y="250.97" fill="url(#SvgjsPattern1248)" transform="rotate(288.34, 1212.09, 313.97)"></rect><path d="M442.42 245.27a5.6 5.6 0 1 0-4.79-10.13 5.6 5.6 0 1 0 4.79 10.13zM435.58 230.8a5.6 5.6 0 1 0-4.79-10.12 5.6 5.6 0 1 0 4.79 10.12zM428.74 216.34a5.6 5.6 0 1 0-4.79-10.12 5.6 5.6 0 1 0 4.79 10.12zM421.9 201.88a5.6 5.6 0 1 0-4.79-10.13 5.6 5.6 0 1 0 4.79 10.13z" fill="rgba(47, 31, 124, 1)"></path><path d="M1157.73 107.64a5.6 5.6 0 1 0 0.39 11.19 5.6 5.6 0 1 0-0.39-11.19zM1158.29 123.63a5.6 5.6 0 1 0 0.39 11.19 5.6 5.6 0 1 0-0.39-11.19zM1158.85 139.62a5.6 5.6 0 1 0 0.39 11.19 5.6 5.6 0 1 0-0.39-11.19zM1159.41 155.61a5.6 5.6 0 1 0 0.39 11.19 5.6 5.6 0 1 0-0.39-11.19zM1140.62 76.22a5.6 5.6 0 1 0 0.4 11.19 5.6 5.6 0 1 0-0.4-11.19zM1141.18 92.21a5.6 5.6 0 1 0 0.39 11.19 5.6 5.6 0 1 0-0.39-11.19zM1141.74 108.2a5.6 5.6 0 1 0 0.39 11.19 5.6 5.6 0 1 0-0.39-11.19zM1142.3 124.19a5.6 5.6 0 1 0 0.39 11.19 5.6 5.6 0 1 0-0.39-11.19zM1123.52 44.8a5.6 5.6 0 1 0 0.39 11.19 5.6 5.6 0 1 0-0.39-11.19zM1124.08 60.79a5.6 5.6 0 1 0 0.39 11.19 5.6 5.6 0 1 0-0.39-11.19zM1124.63 76.78a5.6 5.6 0 1 0 0.4 11.19 5.6 5.6 0 1 0-0.4-11.19zM1125.19 92.77a5.6 5.6 0 1 0 0.39 11.19 5.6 5.6 0 1 0-0.39-11.19z" fill="rgba(47, 31, 124, 1)"></path><rect width="240" height="240" clip-path="url(&quot;#SvgjsClipPath1249&quot;)" x="1299.6" y="248.02" fill="url(#SvgjsPattern1250)" transform="rotate(194.99, 1419.6, 368.02)"></rect><circle r="85.77121223757595" cx="405.52" cy="243.58" stroke="rgba(47, 31, 124, 1)" stroke-width="2.78" stroke-dasharray="2, 2"></circle><rect width="104.16" height="104.16" clip-path="url(&quot;#SvgjsClipPath1251&quot;)" x="458.33" y="65.95" fill="url(#SvgjsPattern1252)" transform="rotate(272.11, 510.41, 118.03)"></rect></g><defs><mask id="SvgjsMask1242"><rect width="1440" height="560" fill="#ffffff"></rect></mask><pattern x="0" y="0" width="6" height="6" patternUnits="userSpaceOnUse" id="SvgjsPattern1244"><path d="M3 1L3 5M1 3L5 3" stroke="rgba(47, 31, 124, 1)" fill="none" stroke-width="1.58"></path></pattern><clipPath id="SvgjsClipPath1243"><circle r="57" cx="585" cy="403.95"></circle></clipPath><pattern x="0" y="0" width="6" height="6" patternUnits="userSpaceOnUse" id="SvgjsPattern1246"><path d="M0 6L3 0L6 6" stroke="rgba(47, 31, 124, 1)" fill="none"></path></pattern><clipPath id="SvgjsClipPath1245"><circle r="33" cx="558.94" cy="297.2"></circle></clipPath><pattern x="0" y="0" width="126" height="9" patternUnits="userSpaceOnUse" id="SvgjsPattern1248"><rect width="126" height="4.5" x="0" y="0" fill="rgba(47, 31, 124, 1)"></rect><rect width="126" height="4.5" x="0" y="4.5" fill="rgba(0, 0, 0, 0)"></rect></pattern><clipPath id="SvgjsClipPath1247"><circle r="31.5" cx="1212.09" cy="313.97"></circle></clipPath><pattern x="0" y="0" width="240" height="6" patternUnits="userSpaceOnUse" id="SvgjsPattern1250"><rect width="240" height="3" x="0" y="0" fill="rgba(47, 31, 124, 1)"></rect><rect width="240" height="3" x="0" y="3" fill="rgba(0, 0, 0, 0)"></rect></pattern><clipPath id="SvgjsClipPath1249"><circle r="60" cx="1419.6" cy="368.02"></circle></clipPath><pattern x="0" y="0" width="7.44" height="7.44" patternUnits="userSpaceOnUse" id="SvgjsPattern1252"><path d="M3.72 1L3.72 6.44M1 3.72L6.44 3.72" stroke="rgba(47, 31, 124, 1)" fill="none" stroke-width="2.2"></path></pattern><clipPath id="SvgjsClipPath1251"><circle r="26.04" cx="510.41" cy="118.03"></circle></clipPath></defs></svg>