<svg xmlns="http://www.w3.org/2000/svg" version="1.1" xmlns:xlink="http://www.w3.org/1999/xlink" xmlns:svgjs="http://svgjs.com/svgjs" width="1440" height="560" preserveAspectRatio="none" viewBox="0 0 1440 560"><g mask="url(&quot;#SvgjsMask1070&quot;)" fill="none"><circle r="67.791873030299" cx="1125.99" cy="310.05" stroke="rgba(47, 31, 124, 1)" stroke-width="2.7" stroke-dasharray="4, 4"></circle><rect width="144" height="144" clip-path="url(&quot;#SvgjsClipPath1071&quot;)" x="-3.21" y="371.25" fill="url(#SvgjsPattern1072)" transform="rotate(0.83, 68.79, 443.25)"></rect><path d="M610.63 470.91L623.02 474.17 622.56 486.97 634.94 490.23 634.48 503.03 646.87 506.29 646.41 519.08" stroke="rgba(47, 31, 124, 1)" stroke-width="1" stroke-dasharray="3, 3"></path><circle r="81.86084139136082" cx="28.77" cy="46.62" fill="rgba(47, 31, 124, 1)"></circle><rect width="288" height="288" clip-path="url(&quot;#SvgjsClipPath1073&quot;)" x="1108.64" y="261.45" fill="url(#SvgjsPattern1074)" transform="rotate(355.72, 1252.64, 405.45)"></rect><path d="M292.77 435.03L303.75 428.44 312.59 437.71 323.57 431.12 332.41 440.39 343.39 433.8 352.23 443.06" stroke="rgba(47, 31, 124, 1)" stroke-width="1.57" stroke-dasharray="4, 4"></path><rect width="352.2" height="352.2" clip-path="url(&quot;#SvgjsClipPath1075&quot;)" x="498.49" y="140.98" fill="url(#SvgjsPattern1076)" transform="rotate(268.78, 674.59, 317.08)"></rect><rect width="336" height="336" clip-path="url(&quot;#SvgjsClipPath1077&quot;)" x="-139.56" y="121.97" fill="url(#SvgjsPattern1078)" transform="rotate(316.19, 28.44, 289.97)"></rect><rect width="240" height="240" clip-path="url(&quot;#SvgjsClipPath1079&quot;)" x="608.24" y="22.45" fill="url(#SvgjsPattern1080)" transform="rotate(316.26, 728.24, 142.45)"></rect><rect width="180" height="180" clip-path="url(&quot;#SvgjsClipPath1081&quot;)" x="1269.35" y="435.88" fill="url(#SvgjsPattern1082)" transform="rotate(238.41, 1359.35, 525.88)"></rect><rect width="222.72" height="222.72" clip-path="url(&quot;#SvgjsClipPath1083&quot;)" x="345.53" y="270.39" fill="url(#SvgjsPattern1084)" transform="rotate(229.02, 456.89, 381.75)"></rect><rect width="82.8" height="82.8" clip-path="url(&quot;#SvgjsClipPath1085&quot;)" x="-7" y="72.5" fill="url(#SvgjsPattern1086)" transform="rotate(207.96, 34.4, 113.9)"></rect></g><defs><mask id="SvgjsMask1070"><rect width="1440" height="560" fill="#ffffff"></rect></mask><pattern x="0" y="0" width="6" height="6" patternUnits="userSpaceOnUse" id="SvgjsPattern1072"><path d="M0 6L3 0L6 6" stroke="rgba(47, 31, 124, 1)" fill="none"></path></pattern><clipPath id="SvgjsClipPath1071"><circle r="36" cx="68.79" cy="443.25"></circle></clipPath><pattern x="0" y="0" width="6" height="6" patternUnits="userSpaceOnUse" id="SvgjsPattern1074"><path d="M0 6L3 0L6 6" stroke="rgba(47, 31, 124, 1)" fill="none"></path></pattern><clipPath id="SvgjsClipPath1073"><circle r="72" cx="1252.64" cy="405.45"></circle></clipPath><pattern x="0" y="0" width="11.74" height="11.74" patternUnits="userSpaceOnUse" id="SvgjsPattern1076"><path d="M5.87 1L5.87 10.74M1 5.87L10.74 5.87" stroke="rgba(47, 31, 124, 1)" fill="none" stroke-width="4.48"></path></pattern><clipPath id="SvgjsClipPath1075"><circle r="88.05" cx="674.59" cy="317.08"></circle></clipPath><pattern x="0" y="0" width="336" height="6" patternUnits="userSpaceOnUse" id="SvgjsPattern1078"><rect width="336" height="3" x="0" y="0" fill="rgba(47, 31, 124, 1)"></rect><rect width="336" height="3" x="0" y="3" fill="rgba(0, 0, 0, 0)"></rect></pattern><clipPath id="SvgjsClipPath1077"><circle r="84" cx="28.44" cy="289.97"></circle></clipPath><pattern x="0" y="0" width="6" height="6" patternUnits="userSpaceOnUse" id="SvgjsPattern1080"><path d="M0 6L3 0L6 6" stroke="rgba(47, 31, 124, 1)" fill="none"></path></pattern><clipPath id="SvgjsClipPath1079"><circle r="60" cx="728.24" cy="142.45"></circle></clipPath><pattern x="0" y="0" width="180" height="6" patternUnits="userSpaceOnUse" id="SvgjsPattern1082"><rect width="180" height="3" x="0" y="0" fill="rgba(47, 31, 124, 1)"></rect><rect width="180" height="3" x="0" y="3" fill="rgba(0, 0, 0, 0)"></rect></pattern><clipPath id="SvgjsClipPath1081"><circle r="45" cx="1359.35" cy="525.88"></circle></clipPath><pattern x="0" y="0" width="9.28" height="9.28" patternUnits="userSpaceOnUse" id="SvgjsPattern1084"><path d="M4.64 1L4.64 8.28M1 4.64L8.28 4.64" stroke="rgba(47, 31, 124, 1)" fill="none" stroke-width="1.3"></path></pattern><clipPath id="SvgjsClipPath1083"><circle r="55.68" cx="456.89" cy="381.75"></circle></clipPath><pattern x="0" y="0" width="8.28" height="8.28" patternUnits="userSpaceOnUse" id="SvgjsPattern1086"><path d="M4.14 1L4.14 7.279999999999999M1 4.14L7.279999999999999 4.14" stroke="rgba(47, 31, 124, 1)" fill="none" stroke-width="2.54"></path></pattern><clipPath id="SvgjsClipPath1085"><circle r="20.7" cx="34.4" cy="113.9"></circle></clipPath></defs></svg>