<svg xmlns="http://www.w3.org/2000/svg" version="1.1" xmlns:xlink="http://www.w3.org/1999/xlink" xmlns:svgjs="http://svgjs.com/svgjs" width="1440" height="560" preserveAspectRatio="none" viewBox="0 0 1440 560"><g mask="url(&quot;#SvgjsMask1207&quot;)" fill="none"><path d="M223.24 340.68L227.93 352.59 217.34 359.79 222.03 371.7 211.44 378.9 216.13 390.81 205.54 398.01" stroke="rgba(47, 31, 124, 1)" stroke-width="1" stroke-dasharray="3, 3"></path><rect width="156" height="156" clip-path="url(&quot;#SvgjsClipPath1208&quot;)" x="1107.48" y="280.62" fill="url(#SvgjsPattern1209)" transform="rotate(11.87, 1185.48, 358.62)"></rect><circle r="46.666666666666664" cx="13.72" cy="425.64" stroke="rgba(47, 31, 124, 1)" stroke-width="2.68" stroke-dasharray="3, 3"></circle><rect width="331.2" height="331.2" clip-path="url(&quot;#SvgjsClipPath1210&quot;)" x="1051.81" y="333.4" fill="url(#SvgjsPattern1211)" transform="rotate(273.43, 1217.41, 499)"></rect><rect width="228" height="228" clip-path="url(&quot;#SvgjsClipPath1212&quot;)" x="647.68" y="-36.96" fill="url(#SvgjsPattern1213)" transform="rotate(160.28, 761.68, 77.04)"></rect><path d="M599.55 358.55L608.14 368.05 600.76 378.51 609.35 388.01 601.97 398.48 610.56 407.98 603.17 418.44" stroke="rgba(47, 31, 124, 1)" stroke-width="2.68"></path><path d="M1056.13 376.73a5.6 5.6 0 1 0-8.58 7.2 5.6 5.6 0 1 0 8.58-7.2zM1043.88 387.02a5.6 5.6 0 1 0-8.58 7.21 5.6 5.6 0 1 0 8.58-7.21zM1031.63 397.31a5.6 5.6 0 1 0-8.58 7.21 5.6 5.6 0 1 0 8.58-7.21zM1019.38 407.61a5.6 5.6 0 1 0-8.58 7.2 5.6 5.6 0 1 0 8.58-7.2zM1070.33 343.89a5.6 5.6 0 1 0-8.57 7.21 5.6 5.6 0 1 0 8.57-7.21zM1058.08 354.19a5.6 5.6 0 1 0-8.57 7.2 5.6 5.6 0 1 0 8.57-7.2zM1045.84 364.48a5.6 5.6 0 1 0-8.58 7.2 5.6 5.6 0 1 0 8.58-7.2zM1033.59 374.77a5.6 5.6 0 1 0-8.58 7.21 5.6 5.6 0 1 0 8.58-7.21zM1084.54 311.06a5.6 5.6 0 1 0-8.57 7.2 5.6 5.6 0 1 0 8.57-7.2zM1072.29 321.35a5.6 5.6 0 1 0-8.57 7.21 5.6 5.6 0 1 0 8.57-7.21zM1060.04 331.64a5.6 5.6 0 1 0-8.57 7.21 5.6 5.6 0 1 0 8.57-7.21zM1047.79 341.94a5.6 5.6 0 1 0-8.57 7.2 5.6 5.6 0 1 0 8.57-7.2z" fill="rgba(47, 31, 124, 1)"></path><rect width="104.6" height="104.6" clip-path="url(&quot;#SvgjsClipPath1214&quot;)" x="394.99" y="450.5" fill="url(#SvgjsPattern1215)" transform="rotate(61.04, 447.29, 502.8)"></rect><rect width="119.60000000000001" height="119.60000000000001" clip-path="url(&quot;#SvgjsClipPath1216&quot;)" x="477.15" y="347.71" fill="url(#SvgjsPattern1217)" transform="rotate(236.84, 536.95, 407.51)"></rect><rect width="105.6" height="105.6" clip-path="url(&quot;#SvgjsClipPath1218&quot;)" x="847.63" y="6.21" fill="url(#SvgjsPattern1219)" transform="rotate(351.83, 900.43, 59.01)"></rect><rect width="60" height="60" clip-path="url(&quot;#SvgjsClipPath1220&quot;)" x="1106.68" y="296.68" fill="url(#SvgjsPattern1221)" transform="rotate(337.38, 1136.68, 326.68)"></rect><circle r="46.666666666666664" cx="546.26" cy="445.86" stroke="rgba(47, 31, 124, 1)" stroke-width="2.42" stroke-dasharray="3, 2"></circle></g><defs><mask id="SvgjsMask1207"><rect width="1440" height="560" fill="#ffffff"></rect></mask><pattern x="0" y="0" width="6" height="6" patternUnits="userSpaceOnUse" id="SvgjsPattern1209"><path d="M0 6L3 0L6 6" stroke="rgba(47, 31, 124, 1)" fill="none"></path></pattern><clipPath id="SvgjsClipPath1208"><circle r="39" cx="1185.48" cy="358.62"></circle></clipPath><pattern x="0" y="0" width="8.28" height="8.28" patternUnits="userSpaceOnUse" id="SvgjsPattern1211"><path d="M0 8.28L4.14 0L8.28 8.28" stroke="rgba(47, 31, 124, 1)" fill="none"></path></pattern><clipPath id="SvgjsClipPath1210"><circle r="82.8" cx="1217.41" cy="499"></circle></clipPath><pattern x="0" y="0" width="6" height="6" patternUnits="userSpaceOnUse" id="SvgjsPattern1213"><path d="M0 6L3 0L6 6" stroke="rgba(47, 31, 124, 1)" fill="none"></path></pattern><clipPath id="SvgjsClipPath1212"><circle r="57" cx="761.68" cy="77.04"></circle></clipPath><pattern x="0" y="0" width="104.6" height="10.46" patternUnits="userSpaceOnUse" id="SvgjsPattern1215"><rect width="104.6" height="5.23" x="0" y="0" fill="rgba(47, 31, 124, 1)"></rect><rect width="104.6" height="5.23" x="0" y="5.23" fill="rgba(0, 0, 0, 0)"></rect></pattern><clipPath id="SvgjsClipPath1214"><circle r="26.15" cx="447.29" cy="502.8"></circle></clipPath><pattern x="0" y="0" width="11.96" height="11.96" patternUnits="userSpaceOnUse" id="SvgjsPattern1217"><path d="M0 11.96L5.98 0L11.96 11.96" stroke="rgba(47, 31, 124, 1)" fill="none"></path></pattern><clipPath id="SvgjsClipPath1216"><circle r="29.900000000000002" cx="536.95" cy="407.51"></circle></clipPath><pattern x="0" y="0" width="10.56" height="10.56" patternUnits="userSpaceOnUse" id="SvgjsPattern1219"><path d="M5.28 1L5.28 9.56M1 5.28L9.56 5.28" stroke="rgba(47, 31, 124, 1)" fill="none" stroke-width="2.21"></path></pattern><clipPath id="SvgjsClipPath1218"><circle r="26.4" cx="900.43" cy="59.01"></circle></clipPath><pattern x="0" y="0" width="6" height="6" patternUnits="userSpaceOnUse" id="SvgjsPattern1221"><path d="M0 6L3 0L6 6" stroke="rgba(47, 31, 124, 1)" fill="none"></path></pattern><clipPath id="SvgjsClipPath1220"><circle r="15" cx="1136.68" cy="326.68"></circle></clipPath></defs></svg>