<svg xmlns="http://www.w3.org/2000/svg" version="1.1" xmlns:xlink="http://www.w3.org/1999/xlink" xmlns:svgjs="http://svgjs.com/svgjs" width="1440" height="560" preserveAspectRatio="none" viewBox="0 0 1440 560"><g mask="url(&quot;#SvgjsMask1222&quot;)" fill="none"><circle r="50.27091561503506" cx="1074.63" cy="410.69" stroke="rgba(47, 31, 124, 1)" stroke-width="2.55" stroke-dasharray="3, 2"></circle><rect width="110" height="110" clip-path="url(&quot;#SvgjsClipPath1223&quot;)" x="947.78" y="393.64" fill="url(#SvgjsPattern1224)" transform="rotate(36.72, 1002.78, 448.64)"></rect><rect width="300" height="300" clip-path="url(&quot;#SvgjsClipPath1225&quot;)" x="748.01" y="149.54" fill="url(#SvgjsPattern1226)" transform="rotate(346.21, 898.01, 299.54)"></rect><path d="M1110.54 304.12 L1135.44 236.76L1159.8437794825277 307.2937794825278z" fill="rgba(47, 31, 124, 1)"></path><path d="M431.61 535.99a5.6 5.6 0 1 0-7.12-8.64 5.6 5.6 0 1 0 7.12 8.64zM421.44 523.64a5.6 5.6 0 1 0-7.12-8.64 5.6 5.6 0 1 0 7.12 8.64zM411.27 511.29a5.6 5.6 0 1 0-7.12-8.64 5.6 5.6 0 1 0 7.12 8.64zM401.09 498.94a5.6 5.6 0 1 0-7.12-8.64 5.6 5.6 0 1 0 7.12 8.64zM464.31 550.52a5.6 5.6 0 1 0-7.12-8.65 5.6 5.6 0 1 0 7.12 8.65zM454.13 538.17a5.6 5.6 0 1 0-7.12-8.65 5.6 5.6 0 1 0 7.12 8.65zM443.96 525.82a5.6 5.6 0 1 0-7.12-8.65 5.6 5.6 0 1 0 7.12 8.65zM433.79 513.47a5.6 5.6 0 1 0-7.12-8.65 5.6 5.6 0 1 0 7.12 8.65zM497 565.04a5.6 5.6 0 1 0-7.12-8.64 5.6 5.6 0 1 0 7.12 8.64zM486.83 552.69a5.6 5.6 0 1 0-7.12-8.64 5.6 5.6 0 1 0 7.12 8.64zM476.66 540.34a5.6 5.6 0 1 0-7.12-8.64 5.6 5.6 0 1 0 7.12 8.64zM466.48 527.99a5.6 5.6 0 1 0-7.12-8.64 5.6 5.6 0 1 0 7.12 8.64z" stroke="rgba(47, 31, 124, 1)" stroke-width="2.87" stroke-dasharray="3, 2"></path><path d="M561.42 163.89999999999998 L631.42 106.22L629.8803347965801 168.52033479658016z" stroke="rgba(47, 31, 124, 1)" stroke-width="1" stroke-dasharray="4, 4"></path><rect width="114.8" height="114.8" clip-path="url(&quot;#SvgjsClipPath1227&quot;)" x="398.11" y="98.88" fill="url(#SvgjsPattern1228)" transform="rotate(288.58, 455.51, 156.28)"></rect><path d="M1223.3700000000001 204.78 L1140.42 304.55L1235.2733409390355 308.0433409390356z" fill="rgba(47, 31, 124, 1)"></path><path d="M812.56 266.47a5.6 5.6 0 1 0-7.82-8.02 5.6 5.6 0 1 0 7.82 8.02zM801.39 255.02a5.6 5.6 0 1 0-7.82-8.02 5.6 5.6 0 1 0 7.82 8.02zM790.22 243.56a5.6 5.6 0 1 0-7.82-8.02 5.6 5.6 0 1 0 7.82 8.02zM779.05 232.1a5.6 5.6 0 1 0-7.82-8.02 5.6 5.6 0 1 0 7.82 8.02z" fill="rgba(47, 31, 124, 1)"></path><path d="M1134.25 555.07 L1252.44 727.6500000000001L1295.6310843300132 539.073915669987z" stroke="rgba(47, 31, 124, 1)" stroke-width="1.6" stroke-dasharray="3, 2"></path><rect width="137.2" height="137.2" clip-path="url(&quot;#SvgjsClipPath1229&quot;)" x="839.6" y="-1.96" fill="url(#SvgjsPattern1230)" transform="rotate(308.03, 908.2, 66.64)"></rect><rect width="147.84" height="147.84" clip-path="url(&quot;#SvgjsClipPath1231&quot;)" x="271.17" y="472.4" fill="url(#SvgjsPattern1232)" transform="rotate(26.87, 345.09, 546.32)"></rect></g><defs><mask id="SvgjsMask1222"><rect width="1440" height="560" fill="#ffffff"></rect></mask><pattern x="0" y="0" width="11" height="11" patternUnits="userSpaceOnUse" id="SvgjsPattern1224"><path d="M5.5 1L5.5 10M1 5.5L10 5.5" stroke="rgba(47, 31, 124, 1)" fill="none" stroke-width="1"></path></pattern><clipPath id="SvgjsClipPath1223"><circle r="27.5" cx="1002.78" cy="448.64"></circle></clipPath><pattern x="0" y="0" width="6" height="6" patternUnits="userSpaceOnUse" id="SvgjsPattern1226"><path d="M0 6L3 0L6 6" stroke="rgba(47, 31, 124, 1)" fill="none"></path></pattern><clipPath id="SvgjsClipPath1225"><circle r="75" cx="898.01" cy="299.54"></circle></clipPath><pattern x="0" y="0" width="11.48" height="11.48" patternUnits="userSpaceOnUse" id="SvgjsPattern1228"><path d="M5.74 1L5.74 10.48M1 5.74L10.48 5.74" stroke="rgba(47, 31, 124, 1)" fill="none" stroke-width="1.24"></path></pattern><clipPath id="SvgjsClipPath1227"><circle r="28.7" cx="455.51" cy="156.28"></circle></clipPath><pattern x="0" y="0" width="137.2" height="13.72" patternUnits="userSpaceOnUse" id="SvgjsPattern1230"><rect width="137.2" height="6.86" x="0" y="0" fill="rgba(47, 31, 124, 1)"></rect><rect width="137.2" height="6.86" x="0" y="6.86" fill="rgba(0, 0, 0, 0)"></rect></pattern><clipPath id="SvgjsClipPath1229"><circle r="34.3" cx="908.2" cy="66.64"></circle></clipPath><pattern x="0" y="0" width="10.56" height="10.56" patternUnits="userSpaceOnUse" id="SvgjsPattern1232"><path d="M5.28 1L5.28 9.56M1 5.28L9.56 5.28" stroke="rgba(47, 31, 124, 1)" fill="none" stroke-width="1"></path></pattern><clipPath id="SvgjsClipPath1231"><circle r="36.96" cx="345.09" cy="546.32"></circle></clipPath></defs></svg>