<svg xmlns="http://www.w3.org/2000/svg" version="1.1" xmlns:xlink="http://www.w3.org/1999/xlink" xmlns:svgjs="http://svgjs.com/svgjs" width="1440" height="560" preserveAspectRatio="none" viewBox="0 0 1440 560"><g mask="url(&quot;#SvgjsMask1318&quot;)" fill="none"><path d="M611.8 622.54 L646.6 644.4200000000001L646.788588505872 615.8914114941281z" fill="rgba(47, 31, 124, 1)"></path><circle r="46.666666666666664" cx="1129.59" cy="528.11" fill="rgba(47, 31, 124, 1)"></circle><path d="M902.34 395.34L890.71 400.7 882.93 390.52 871.3 395.88 863.52 385.71 851.89 391.07 844.11 380.9M904.27 387.57L892.64 392.93 884.86 382.76 873.22 388.12 865.44 377.95 853.81 383.31 846.03 373.14M906.19 379.81L894.56 385.17 886.78 374.99 875.15 380.35 867.37 370.18 855.74 375.54 847.95 365.37" stroke="rgba(47, 31, 124, 1)" stroke-width="1.2"></path><circle r="64.02296210780118" cx="41.91" cy="549.94" stroke="rgba(47, 31, 124, 1)" stroke-width="1.96" stroke-dasharray="4, 4"></circle><path d="M898.26 458.49L905.7 468.9 897.17 478.46 904.62 488.88 896.09 498.43 903.53 508.85 895 518.4M890.27 458.05L897.71 468.47 889.18 478.02 896.63 488.44 888.1 497.99 895.54 508.41 887.01 517.96" stroke="rgba(47, 31, 124, 1)" stroke-width="2.45" stroke-dasharray="3, 2"></path><path d="M902.77 125.4L908.71 114.05 921.09 117.36 927.03 106.01 939.4 109.31 945.34 97.97 957.71 101.27" stroke="rgba(47, 31, 124, 1)" stroke-width="1" stroke-dasharray="2, 2"></path><rect width="236.4" height="236.4" clip-path="url(&quot;#SvgjsClipPath1319&quot;)" x="1115.11" y="-5" fill="url(#SvgjsPattern1320)" transform="rotate(339.57, 1233.31, 113.2)"></rect><rect width="122" height="122" clip-path="url(&quot;#SvgjsClipPath1321&quot;)" x="481.48" y="-59.87" fill="url(#SvgjsPattern1322)" transform="rotate(49.85, 542.48, 1.13)"></rect><path d="M217.74 78.12 L308.63 95.72L225.80725816906897 124.29774183093105z" fill="rgba(47, 31, 124, 1)"></path><rect width="88.08" height="88.08" clip-path="url(&quot;#SvgjsClipPath1323&quot;)" x="392.56" y="325.71" fill="url(#SvgjsPattern1324)" transform="rotate(232.08, 436.6, 369.75)"></rect><rect width="132" height="132" clip-path="url(&quot;#SvgjsClipPath1325&quot;)" x="53.13" y="122.91" fill="url(#SvgjsPattern1326)" transform="rotate(202.72, 119.13, 188.91)"></rect><circle r="73.54793184354983" cx="1233.87" cy="317.19" fill="rgba(47, 31, 124, 1)"></circle></g><defs><mask id="SvgjsMask1318"><rect width="1440" height="560" fill="#ffffff"></rect></mask><pattern x="0" y="0" width="11.82" height="11.82" patternUnits="userSpaceOnUse" id="SvgjsPattern1320"><path d="M5.91 1L5.91 10.82M1 5.91L10.82 5.91" stroke="rgba(47, 31, 124, 1)" fill="none" stroke-width="1.54"></path></pattern><clipPath id="SvgjsClipPath1319"><circle r="59.1" cx="1233.31" cy="113.2"></circle></clipPath><pattern x="0" y="0" width="12.2" height="12.2" patternUnits="userSpaceOnUse" id="SvgjsPattern1322"><path d="M6.1 1L6.1 11.2M1 6.1L11.2 6.1" stroke="rgba(47, 31, 124, 1)" fill="none" stroke-width="1.88"></path></pattern><clipPath id="SvgjsClipPath1321"><circle r="30.5" cx="542.48" cy="1.13"></circle></clipPath><pattern x="0" y="0" width="7.34" height="7.34" patternUnits="userSpaceOnUse" id="SvgjsPattern1324"><path d="M3.67 1L3.67 6.34M1 3.67L6.34 3.67" stroke="rgba(47, 31, 124, 1)" fill="none" stroke-width="1.24"></path></pattern><clipPath id="SvgjsClipPath1323"><circle r="22.02" cx="436.6" cy="369.75"></circle></clipPath><pattern x="0" y="0" width="6" height="6" patternUnits="userSpaceOnUse" id="SvgjsPattern1326"><path d="M3 1L3 5M1 3L5 3" stroke="rgba(47, 31, 124, 1)" fill="none" stroke-width="1.31"></path></pattern><clipPath id="SvgjsClipPath1325"><circle r="33" cx="119.13" cy="188.91"></circle></clipPath></defs></svg>