<svg xmlns="http://www.w3.org/2000/svg" version="1.1" xmlns:xlink="http://www.w3.org/1999/xlink" xmlns:svgjs="http://svgjs.com/svgjs" width="1440" height="560" preserveAspectRatio="none" viewBox="0 0 1440 560"><g mask="url(&quot;#SvgjsMask1344&quot;)" fill="none"><path d="M1439.14 98.75a5.6 5.6 0 1 0-10.5-3.88 5.6 5.6 0 1 0 10.5 3.88zM1424.13 93.21a5.6 5.6 0 1 0-10.5-3.88 5.6 5.6 0 1 0 10.5 3.88zM1409.12 87.67a5.6 5.6 0 1 0-10.51-3.88 5.6 5.6 0 1 0 10.51 3.88zM1394.11 82.13a5.6 5.6 0 1 0-10.51-3.88 5.6 5.6 0 1 0 10.51 3.88zM1474.7 94.82a5.6 5.6 0 1 0-10.5-3.88 5.6 5.6 0 1 0 10.5 3.88zM1459.69 89.28a5.6 5.6 0 1 0-10.5-3.88 5.6 5.6 0 1 0 10.5 3.88zM1444.68 83.74a5.6 5.6 0 1 0-10.5-3.88 5.6 5.6 0 1 0 10.5 3.88zM1429.67 78.2a5.6 5.6 0 1 0-10.5-3.88 5.6 5.6 0 1 0 10.5 3.88z" stroke="rgba(47, 31, 124, 1)" stroke-width="1.27" stroke-dasharray="3, 3"></path><rect width="168" height="168" clip-path="url(&quot;#SvgjsClipPath1345&quot;)" x="1.42" y="-28.49" fill="url(#SvgjsPattern1346)" transform="rotate(2, 85.42, 55.51)"></rect><path d="M1325.23 383.3L1331.33 394.56 1321.69 402.99 1327.8 414.25 1318.16 422.68 1324.27 433.93 1314.63 442.36M1317.35 381.89L1323.46 393.15 1313.82 401.58 1319.93 412.83 1310.29 421.26 1316.4 432.52 1306.76 440.95M1309.48 380.48L1315.59 391.73 1305.95 400.17 1312.05 411.42 1302.41 419.85 1308.52 431.11 1298.88 439.54" stroke="rgba(47, 31, 124, 1)" stroke-width="2.12" stroke-dasharray="3, 3"></path><path d="M731.26 287.02 L825.66 305.34000000000003L840.5668211598764 234.0731788401236z" stroke="rgba(47, 31, 124, 1)" stroke-width="1.79" stroke-dasharray="4, 4"></path><path d="M2.73 532.06a5.6 5.6 0 1 0 6.77 8.92 5.6 5.6 0 1 0-6.77-8.92zM12.4 544.81a5.6 5.6 0 1 0 6.76 8.93 5.6 5.6 0 1 0-6.76-8.93zM22.06 557.56a5.6 5.6 0 1 0 6.77 8.93 5.6 5.6 0 1 0-6.77-8.93zM31.73 570.31a5.6 5.6 0 1 0 6.76 8.93 5.6 5.6 0 1 0-6.76-8.93zM-29.35 516.22a5.6 5.6 0 1 0 6.77 8.93 5.6 5.6 0 1 0-6.77-8.93zM-19.68 528.97a5.6 5.6 0 1 0 6.76 8.93 5.6 5.6 0 1 0-6.76-8.93zM-10.02 541.72a5.6 5.6 0 1 0 6.77 8.93 5.6 5.6 0 1 0-6.77-8.93zM-0.35 554.47a5.6 5.6 0 1 0 6.76 8.93 5.6 5.6 0 1 0-6.76-8.93z" fill="rgba(47, 31, 124, 1)"></path><path d="M1249.73 251.66L1262.45 250.2 1266.67 262.29 1279.39 260.82 1283.61 272.91 1296.33 271.45 1300.55 283.54M1245.48 258.44L1258.2 256.97 1262.42 269.06 1275.14 267.6 1279.36 279.69 1292.08 278.23 1296.3 290.32M1241.22 265.21L1253.95 263.75 1258.17 275.84 1270.89 274.38 1275.11 286.47 1287.83 285.01 1292.05 297.1" stroke="rgba(47, 31, 124, 1)" stroke-width="1.81" stroke-dasharray="4, 4"></path><path d="M1270.56 507.59L1276.51 518.94 1266.75 527.23 1272.69 538.57 1262.93 546.86 1268.88 558.2 1259.12 566.49M1262.71 506.07L1268.66 517.41 1258.9 525.7 1264.84 537.04 1255.08 545.33 1261.02 556.68 1251.26 564.97" stroke="rgba(47, 31, 124, 1)" stroke-width="1.55" stroke-dasharray="2, 2"></path><path d="M1007.5 293.19 L1133.45 396.03999999999996L960.4850374687552 454.6049625312447z" fill="rgba(47, 31, 124, 1)"></path><path d="M1005.73 111.44a5.6 5.6 0 1 0-10.67 3.4 5.6 5.6 0 1 0 10.67-3.4zM990.48 116.3a5.6 5.6 0 1 0-10.67 3.4 5.6 5.6 0 1 0 10.67-3.4zM975.24 121.16a5.6 5.6 0 1 0-10.67 3.4 5.6 5.6 0 1 0 10.67-3.4zM960 126.02a5.6 5.6 0 1 0-10.68 3.4 5.6 5.6 0 1 0 10.68-3.4z" fill="rgba(47, 31, 124, 1)"></path><rect width="249" height="249" clip-path="url(&quot;#SvgjsClipPath1347&quot;)" x="628.69" y="419.36" fill="url(#SvgjsPattern1348)" transform="rotate(14.64, 753.19, 543.86)"></rect><circle r="46.666666666666664" cx="1120.09" cy="116.97" fill="rgba(47, 31, 124, 1)"></circle><path d="M699.58 532.9a5.6 5.6 0 1 0 7.84-8 5.6 5.6 0 1 0-7.84 8zM710.78 521.48a5.6 5.6 0 1 0 7.85-8 5.6 5.6 0 1 0-7.85 8zM721.99 510.06a5.6 5.6 0 1 0 7.84-8 5.6 5.6 0 1 0-7.84 8zM733.19 498.63a5.6 5.6 0 1 0 7.84-7.99 5.6 5.6 0 1 0-7.84 7.99zM688.59 566.95a5.6 5.6 0 1 0 7.84-8 5.6 5.6 0 1 0-7.84 8zM699.79 555.53a5.6 5.6 0 1 0 7.85-8 5.6 5.6 0 1 0-7.85 8zM711 544.1a5.6 5.6 0 1 0 7.84-7.99 5.6 5.6 0 1 0-7.84 7.99zM722.2 532.68a5.6 5.6 0 1 0 7.85-7.99 5.6 5.6 0 1 0-7.85 7.99z" fill="rgba(47, 31, 124, 1)"></path></g><defs><mask id="SvgjsMask1344"><rect width="1440" height="560" fill="#ffffff"></rect></mask><pattern x="0" y="0" width="6" height="6" patternUnits="userSpaceOnUse" id="SvgjsPattern1346"><path d="M0 6L3 0L6 6" stroke="rgba(47, 31, 124, 1)" fill="none"></path></pattern><clipPath id="SvgjsClipPath1345"><circle r="42" cx="85.42" cy="55.51"></circle></clipPath><pattern x="0" y="0" width="249" height="8.3" patternUnits="userSpaceOnUse" id="SvgjsPattern1348"><rect width="249" height="4.15" x="0" y="0" fill="rgba(47, 31, 124, 1)"></rect><rect width="249" height="4.15" x="0" y="4.15" fill="rgba(0, 0, 0, 0)"></rect></pattern><clipPath id="SvgjsClipPath1347"><circle r="62.25" cx="753.19" cy="543.86"></circle></clipPath></defs></svg>