<svg xmlns="http://www.w3.org/2000/svg" version="1.1" xmlns:xlink="http://www.w3.org/1999/xlink" xmlns:svgjs="http://svgjs.com/svgjs" width="1440" height="560" preserveAspectRatio="none" viewBox="0 0 1440 560"><g mask="url(&quot;#SvgjsMask1233&quot;)" fill="none"><path d="M955.5200000000001 118.28 L963.49 296.22L1064.905173667824 101.84982633217608z" fill="rgba(47, 31, 124, 1)"></path><rect width="240" height="240" clip-path="url(&quot;#SvgjsClipPath1234&quot;)" x="-44.44" y="36.53" fill="url(#SvgjsPattern1235)" transform="rotate(75.23, 75.56, 156.53)"></rect><rect width="114.2" height="114.2" clip-path="url(&quot;#SvgjsClipPath1236&quot;)" x="682.27" y="-45.97" fill="url(#SvgjsPattern1237)" transform="rotate(147.81, 739.37, 11.13)"></rect><path d="M166.63 39.5L163.62 27.06 175.11 21.39 172.1 8.94 183.58 3.28 180.58-9.17 192.06-14.84M173.87 42.89L170.87 30.45 182.35 24.78 179.34 12.33 190.83 6.67 187.82-5.78 199.31-11.45" stroke="rgba(47, 31, 124, 1)" stroke-width="1"></path><rect width="139.4" height="139.4" clip-path="url(&quot;#SvgjsClipPath1238&quot;)" x="1344.5" y="55.3" fill="url(#SvgjsPattern1239)" transform="rotate(187.76, 1414.2, 125)"></rect><path d="M454.03 62.17a5.6 5.6 0 1 0 9.79 5.44 5.6 5.6 0 1 0-9.79-5.44zM468.01 69.94a5.6 5.6 0 1 0 9.8 5.44 5.6 5.6 0 1 0-9.8-5.44zM482 77.71a5.6 5.6 0 1 0 9.79 5.44 5.6 5.6 0 1 0-9.79-5.44zM495.99 85.48a5.6 5.6 0 1 0 9.79 5.44 5.6 5.6 0 1 0-9.79-5.44zM418.28 60.62a5.6 5.6 0 1 0 9.79 5.44 5.6 5.6 0 1 0-9.79-5.44zM432.27 68.39a5.6 5.6 0 1 0 9.79 5.44 5.6 5.6 0 1 0-9.79-5.44zM446.26 76.16a5.6 5.6 0 1 0 9.79 5.44 5.6 5.6 0 1 0-9.79-5.44zM460.25 83.93a5.6 5.6 0 1 0 9.79 5.44 5.6 5.6 0 1 0-9.79-5.44z" fill="rgba(47, 31, 124, 1)"></path><circle r="46.666666666666664" cx="1216.92" cy="251.01" fill="rgba(47, 31, 124, 1)"></circle><circle r="67.8811179591498" cx="914.08" cy="133.09" stroke="rgba(47, 31, 124, 1)" stroke-width="2.78" stroke-dasharray="3, 3"></circle><path d="M998.64 469.01L987.98 476.12 978.71 467.28 968.06 474.39 958.79 465.56 948.13 472.67 938.86 463.83M999.33 461.04L988.67 468.15 979.4 459.31 968.75 466.42 959.48 457.59 948.82 464.7 939.55 455.86M1000.02 453.07L989.36 460.18 980.09 451.34 969.44 458.45 960.17 449.62 949.51 456.73 940.24 447.89" stroke="rgba(47, 31, 124, 1)" stroke-width="1" stroke-dasharray="3, 3"></path><rect width="213.48" height="213.48" clip-path="url(&quot;#SvgjsClipPath1240&quot;)" x="398.68" y="261.26" fill="url(#SvgjsPattern1241)" transform="rotate(123.84, 505.42, 368)"></rect><circle r="58.20759900139394" cx="528.23" cy="349.41" stroke="rgba(47, 31, 124, 1)" stroke-width="2.4" stroke-dasharray="3, 3"></circle><path d="M155.98 48.6L153.8 35.99 165.63 31.08 163.44 18.46 175.27 13.56 173.08 0.94 184.91-3.96" stroke="rgba(47, 31, 124, 1)" stroke-width="2.36" stroke-dasharray="3, 2"></path></g><defs><mask id="SvgjsMask1233"><rect width="1440" height="560" fill="#ffffff"></rect></mask><pattern x="0" y="0" width="6" height="6" patternUnits="userSpaceOnUse" id="SvgjsPattern1235"><path d="M0 6L3 0L6 6" stroke="rgba(47, 31, 124, 1)" fill="none"></path></pattern><clipPath id="SvgjsClipPath1234"><circle r="60" cx="75.56" cy="156.53"></circle></clipPath><pattern x="0" y="0" width="11.42" height="11.42" patternUnits="userSpaceOnUse" id="SvgjsPattern1237"><path d="M5.71 1L5.71 10.42M1 5.71L10.42 5.71" stroke="rgba(47, 31, 124, 1)" fill="none" stroke-width="4.19"></path></pattern><clipPath id="SvgjsClipPath1236"><circle r="28.55" cx="739.37" cy="11.13"></circle></clipPath><pattern x="0" y="0" width="13.94" height="13.94" patternUnits="userSpaceOnUse" id="SvgjsPattern1239"><path d="M0 13.94L6.97 0L13.94 13.94" stroke="rgba(47, 31, 124, 1)" fill="none"></path></pattern><clipPath id="SvgjsClipPath1238"><circle r="34.85" cx="1414.2" cy="125"></circle></clipPath><pattern x="0" y="0" width="11.86" height="11.86" patternUnits="userSpaceOnUse" id="SvgjsPattern1241"><path d="M5.93 1L5.93 10.86M1 5.93L10.86 5.93" stroke="rgba(47, 31, 124, 1)" fill="none" stroke-width="4.33"></path></pattern><clipPath id="SvgjsClipPath1240"><circle r="53.37" cx="505.42" cy="368"></circle></clipPath></defs></svg>