<svg xmlns="http://www.w3.org/2000/svg" version="1.1" xmlns:xlink="http://www.w3.org/1999/xlink" xmlns:svgjs="http://svgjs.com/svgjs" width="1440" height="560" preserveAspectRatio="none" viewBox="0 0 1440 560"><g mask="url(&quot;#SvgjsMask1617&quot;)" fill="none"><rect width="372" height="372" clip-path="url(&quot;#SvgjsClipPath1618&quot;)" x="987.41" y="143" fill="url(#SvgjsPattern1619)" transform="rotate(286.18, 1173.41, 329)"></rect><rect width="315.84" height="315.84" clip-path="url(&quot;#SvgjsClipPath1620&quot;)" x="-146.93" y="-155.12" fill="url(#SvgjsPattern1621)" transform="rotate(167.57, 10.99, 2.8)"></rect><rect width="60" height="60" clip-path="url(&quot;#SvgjsClipPath1622&quot;)" x="1401.75" y="29.88" fill="url(#SvgjsPattern1623)" transform="rotate(53.73, 1431.75, 59.88)"></rect><path d="M1276.39 468.55a5.6 5.6 0 1 0 10.78 3.03 5.6 5.6 0 1 0-10.78-3.03zM1291.79 472.88a5.6 5.6 0 1 0 10.78 3.03 5.6 5.6 0 1 0-10.78-3.03zM1307.19 477.2a5.6 5.6 0 1 0 10.79 3.03 5.6 5.6 0 1 0-10.79-3.03zM1322.6 481.53a5.6 5.6 0 1 0 10.78 3.02 5.6 5.6 0 1 0-10.78-3.02z" fill="rgba(47, 31, 124, 1)"></path><path d="M1179.47 338a5.6 5.6 0 1 0-9.35-6.16 5.6 5.6 0 1 0 9.35 6.16zM1166.11 329.19a5.6 5.6 0 1 0-9.36-6.16 5.6 5.6 0 1 0 9.36 6.16zM1152.75 320.39a5.6 5.6 0 1 0-9.36-6.16 5.6 5.6 0 1 0 9.36 6.16zM1139.39 311.59a5.6 5.6 0 1 0-9.36-6.16 5.6 5.6 0 1 0 9.36 6.16zM1214.99 342.24a5.6 5.6 0 1 0-9.35-6.16 5.6 5.6 0 1 0 9.35 6.16zM1201.63 333.44a5.6 5.6 0 1 0-9.35-6.16 5.6 5.6 0 1 0 9.35 6.16zM1188.27 324.64a5.6 5.6 0 1 0-9.35-6.17 5.6 5.6 0 1 0 9.35 6.17zM1174.91 315.83a5.6 5.6 0 1 0-9.35-6.16 5.6 5.6 0 1 0 9.35 6.16z" fill="rgba(47, 31, 124, 1)"></path><path d="M260.05 507.19a5.6 5.6 0 1 0 4.55-10.24 5.6 5.6 0 1 0-4.55 10.24zM266.55 492.57a5.6 5.6 0 1 0 4.55-10.24 5.6 5.6 0 1 0-4.55 10.24zM273.05 477.95a5.6 5.6 0 1 0 4.55-10.24 5.6 5.6 0 1 0-4.55 10.24zM279.55 463.33a5.6 5.6 0 1 0 4.55-10.24 5.6 5.6 0 1 0-4.55 10.24zM261.67 542.93a5.6 5.6 0 1 0 4.55-10.24 5.6 5.6 0 1 0-4.55 10.24zM268.17 528.31a5.6 5.6 0 1 0 4.55-10.24 5.6 5.6 0 1 0-4.55 10.24zM274.67 513.69a5.6 5.6 0 1 0 4.55-10.24 5.6 5.6 0 1 0-4.55 10.24zM281.17 499.07a5.6 5.6 0 1 0 4.55-10.24 5.6 5.6 0 1 0-4.55 10.24zM263.29 578.67a5.6 5.6 0 1 0 4.55-10.24 5.6 5.6 0 1 0-4.55 10.24zM269.79 564.05a5.6 5.6 0 1 0 4.55-10.24 5.6 5.6 0 1 0-4.55 10.24zM276.29 549.43a5.6 5.6 0 1 0 4.55-10.24 5.6 5.6 0 1 0-4.55 10.24zM282.79 534.81a5.6 5.6 0 1 0 4.55-10.24 5.6 5.6 0 1 0-4.55 10.24z" fill="rgba(47, 31, 124, 1)"></path><path d="M689.41 490.78L702.12 492.36 703.36 505.11 716.07 506.69 717.32 519.43 730.03 521.01 731.28 533.76M683.68 496.36L696.39 497.94 697.63 510.69 710.34 512.27 711.59 525.02 724.3 526.6 725.55 539.34M677.95 501.95L690.66 503.53 691.9 516.27 704.61 517.85 705.86 530.6 718.57 532.18 719.82 544.92" stroke="rgba(47, 31, 124, 1)" stroke-width="1.05" stroke-dasharray="2, 2"></path><rect width="144" height="144" clip-path="url(&quot;#SvgjsClipPath1624&quot;)" x="870.2" y="63.24" fill="url(#SvgjsPattern1625)" transform="rotate(27.09, 942.2, 135.24)"></rect><rect width="84.4" height="84.4" clip-path="url(&quot;#SvgjsClipPath1626&quot;)" x="401.83" y="171.96" fill="url(#SvgjsPattern1627)" transform="rotate(73.1, 444.03, 214.16)"></rect><rect width="114.8" height="114.8" clip-path="url(&quot;#SvgjsClipPath1628&quot;)" x="1109.77" y="182.62" fill="url(#SvgjsPattern1629)" transform="rotate(28.75, 1167.17, 240.02)"></rect><rect width="296.56" height="296.56" clip-path="url(&quot;#SvgjsClipPath1630&quot;)" x="183.79" y="23.29" fill="url(#SvgjsPattern1631)" transform="rotate(113.49, 332.07, 171.57)"></rect><path d="M392.89000000000004 252.19 L493.57000000000005 148.38L519.4806441721198 276.53564417211976z" stroke="rgba(47, 31, 124, 1)" stroke-width="2.11" stroke-dasharray="4, 4"></path></g><defs><mask id="SvgjsMask1617"><rect width="1440" height="560" fill="#ffffff"></rect></mask><pattern x="0" y="0" width="6" height="6" patternUnits="userSpaceOnUse" id="SvgjsPattern1619"><path d="M3 1L3 5M1 3L5 3" stroke="rgba(47, 31, 124, 1)" fill="none" stroke-width="1.8"></path></pattern><clipPath id="SvgjsClipPath1618"><circle r="93" cx="1173.41" cy="329"></circle></clipPath><pattern x="0" y="0" width="315.84" height="13.16" patternUnits="userSpaceOnUse" id="SvgjsPattern1621"><rect width="315.84" height="6.58" x="0" y="0" fill="rgba(47, 31, 124, 1)"></rect><rect width="315.84" height="6.58" x="0" y="6.58" fill="rgba(0, 0, 0, 0)"></rect></pattern><clipPath id="SvgjsClipPath1620"><circle r="78.96" cx="10.99" cy="2.8"></circle></clipPath><pattern x="0" y="0" width="6" height="6" patternUnits="userSpaceOnUse" id="SvgjsPattern1623"><path d="M3 1L3 5M1 3L5 3" stroke="rgba(47, 31, 124, 1)" fill="none" stroke-width="1"></path></pattern><clipPath id="SvgjsClipPath1622"><circle r="15" cx="1431.75" cy="59.88"></circle></clipPath><pattern x="0" y="0" width="144" height="6" patternUnits="userSpaceOnUse" id="SvgjsPattern1625"><rect width="144" height="3" x="0" y="0" fill="rgba(47, 31, 124, 1)"></rect><rect width="144" height="3" x="0" y="3" fill="rgba(0, 0, 0, 0)"></rect></pattern><clipPath id="SvgjsClipPath1624"><circle r="36" cx="942.2" cy="135.24"></circle></clipPath><pattern x="0" y="0" width="8.44" height="8.44" patternUnits="userSpaceOnUse" id="SvgjsPattern1627"><path d="M4.22 1L4.22 7.4399999999999995M1 4.22L7.4399999999999995 4.22" stroke="rgba(47, 31, 124, 1)" fill="none" stroke-width="3.13"></path></pattern><clipPath id="SvgjsClipPath1626"><circle r="21.1" cx="444.03" cy="214.16"></circle></clipPath><pattern x="0" y="0" width="11.48" height="11.48" patternUnits="userSpaceOnUse" id="SvgjsPattern1629"><path d="M5.74 1L5.74 10.48M1 5.74L10.48 5.74" stroke="rgba(47, 31, 124, 1)" fill="none" stroke-width="3.14"></path></pattern><clipPath id="SvgjsClipPath1628"><circle r="28.7" cx="1167.17" cy="240.02"></circle></clipPath><pattern x="0" y="0" width="296.56" height="6.74" patternUnits="userSpaceOnUse" id="SvgjsPattern1631"><rect width="296.56" height="3.37" x="0" y="0" fill="rgba(47, 31, 124, 1)"></rect><rect width="296.56" height="3.37" x="0" y="3.37" fill="rgba(0, 0, 0, 0)"></rect></pattern><clipPath id="SvgjsClipPath1630"><circle r="74.14" cx="332.07" cy="171.57"></circle></clipPath></defs></svg>