<svg xmlns="http://www.w3.org/2000/svg" version="1.1" xmlns:xlink="http://www.w3.org/1999/xlink" xmlns:svgjs="http://svgjs.com/svgjs" width="1440" height="560" preserveAspectRatio="none" viewBox="0 0 1440 560"><g mask="url(&quot;#SvgjsMask1477&quot;)" fill="none"><rect width="113.2" height="113.2" clip-path="url(&quot;#SvgjsClipPath1478&quot;)" x="1281.28" y="-18.16" fill="url(#SvgjsPattern1479)" transform="rotate(183.42, 1337.88, 38.44)"></rect><path d="M828.96 15.69a5.6 5.6 0 1 0-8.31-7.51 5.6 5.6 0 1 0 8.31 7.51zM817.09 4.96a5.6 5.6 0 1 0-8.3-7.51 5.6 5.6 0 1 0 8.3 7.51zM805.23-5.77a5.6 5.6 0 1 0-8.31-7.52 5.6 5.6 0 1 0 8.31 7.52zM793.36-16.51a5.6 5.6 0 1 0-8.3-7.51 5.6 5.6 0 1 0 8.3 7.51zM863.43 25.29a5.6 5.6 0 1 0-8.31-7.51 5.6 5.6 0 1 0 8.31 7.51zM851.56 14.56a5.6 5.6 0 1 0-8.31-7.51 5.6 5.6 0 1 0 8.31 7.51zM839.69 3.83a5.6 5.6 0 1 0-8.3-7.52 5.6 5.6 0 1 0 8.3 7.52zM827.83-6.91a5.6 5.6 0 1 0-8.31-7.51 5.6 5.6 0 1 0 8.31 7.51z" fill="rgba(47, 31, 124, 1)"></path><path d="M638.94 306.88a5.6 5.6 0 1 0-10.86 2.73 5.6 5.6 0 1 0 10.86-2.73zM623.42 310.77a5.6 5.6 0 1 0-10.86 2.73 5.6 5.6 0 1 0 10.86-2.73zM607.9 314.66a5.6 5.6 0 1 0-10.86 2.73 5.6 5.6 0 1 0 10.86-2.73zM592.38 318.55a5.6 5.6 0 1 0-10.86 2.73 5.6 5.6 0 1 0 10.86-2.73zM666.09 283.58a5.6 5.6 0 1 0-10.86 2.73 5.6 5.6 0 1 0 10.86-2.73zM650.57 287.47a5.6 5.6 0 1 0-10.86 2.73 5.6 5.6 0 1 0 10.86-2.73zM635.05 291.36a5.6 5.6 0 1 0-10.86 2.73 5.6 5.6 0 1 0 10.86-2.73zM619.53 295.25a5.6 5.6 0 1 0-10.86 2.73 5.6 5.6 0 1 0 10.86-2.73z" stroke="rgba(47, 31, 124, 1)" stroke-width="1.75" stroke-dasharray="2, 2"></path><circle r="46.666666666666664" cx="899.94" cy="385.81" stroke="rgba(47, 31, 124, 1)" stroke-width="1"></circle><rect width="144" height="144" clip-path="url(&quot;#SvgjsClipPath1480&quot;)" x="239.76" y="-46.15" fill="url(#SvgjsPattern1481)" transform="rotate(307.34, 311.76, 25.85)"></rect><rect width="60" height="60" clip-path="url(&quot;#SvgjsClipPath1482&quot;)" x="264.24" y="260.03" fill="url(#SvgjsPattern1483)" transform="rotate(80.3, 294.24, 290.03)"></rect><path d="M651.24 157.97 L588.07 289.18L529.5471032010356 133.46710320103566z" fill="rgba(47, 31, 124, 1)"></path><rect width="336" height="336" clip-path="url(&quot;#SvgjsClipPath1484&quot;)" x="506.41" y="34.03" fill="url(#SvgjsPattern1485)" transform="rotate(280.52, 674.41, 202.03)"></rect><path d="M428.05 108.94a5.6 5.6 0 1 0 10.69 3.36 5.6 5.6 0 1 0-10.69-3.36zM443.31 113.74a5.6 5.6 0 1 0 10.69 3.36 5.6 5.6 0 1 0-10.69-3.36zM458.58 118.54a5.6 5.6 0 1 0 10.68 3.35 5.6 5.6 0 1 0-10.68-3.35zM473.84 123.33a5.6 5.6 0 1 0 10.69 3.36 5.6 5.6 0 1 0-10.69-3.36zM392.73 114.61a5.6 5.6 0 1 0 10.68 3.36 5.6 5.6 0 1 0-10.68-3.36zM407.99 119.4a5.6 5.6 0 1 0 10.68 3.36 5.6 5.6 0 1 0-10.68-3.36zM423.25 124.2a5.6 5.6 0 1 0 10.69 3.36 5.6 5.6 0 1 0-10.69-3.36zM438.52 129a5.6 5.6 0 1 0 10.68 3.36 5.6 5.6 0 1 0-10.68-3.36zM357.4 120.27a5.6 5.6 0 1 0 10.69 3.36 5.6 5.6 0 1 0-10.69-3.36zM372.66 125.07a5.6 5.6 0 1 0 10.69 3.36 5.6 5.6 0 1 0-10.69-3.36zM387.93 129.87a5.6 5.6 0 1 0 10.68 3.36 5.6 5.6 0 1 0-10.68-3.36zM403.19 134.67a5.6 5.6 0 1 0 10.69 3.36 5.6 5.6 0 1 0-10.69-3.36z" fill="rgba(47, 31, 124, 1)"></path><rect width="64.80000000000001" height="64.80000000000001" clip-path="url(&quot;#SvgjsClipPath1486&quot;)" x="1275.67" y="425.5" fill="url(#SvgjsPattern1487)" transform="rotate(181.58, 1308.07, 457.9)"></rect><path d="M1124.49 104.54a5.6 5.6 0 1 0 11.06 1.75 5.6 5.6 0 1 0-11.06-1.75zM1140.29 107.04a5.6 5.6 0 1 0 11.07 1.76 5.6 5.6 0 1 0-11.07-1.76zM1156.1 109.55a5.6 5.6 0 1 0 11.06 1.75 5.6 5.6 0 1 0-11.06-1.75zM1171.9 112.06a5.6 5.6 0 1 0 11.06 1.75 5.6 5.6 0 1 0-11.06-1.75z" stroke="rgba(47, 31, 124, 1)" stroke-width="2.76" stroke-dasharray="2, 2"></path><circle r="46.666666666666664" cx="263.96" cy="505.04" fill="rgba(47, 31, 124, 1)"></circle></g><defs><mask id="SvgjsMask1477"><rect width="1440" height="560" fill="#ffffff"></rect></mask><pattern x="0" y="0" width="11.32" height="11.32" patternUnits="userSpaceOnUse" id="SvgjsPattern1479"><path d="M0 11.32L5.66 0L11.32 11.32" stroke="rgba(47, 31, 124, 1)" fill="none"></path></pattern><clipPath id="SvgjsClipPath1478"><circle r="28.3" cx="1337.88" cy="38.44"></circle></clipPath><pattern x="0" y="0" width="144" height="6" patternUnits="userSpaceOnUse" id="SvgjsPattern1481"><rect width="144" height="3" x="0" y="0" fill="rgba(47, 31, 124, 1)"></rect><rect width="144" height="3" x="0" y="3" fill="rgba(0, 0, 0, 0)"></rect></pattern><clipPath id="SvgjsClipPath1480"><circle r="36" cx="311.76" cy="25.85"></circle></clipPath><pattern x="0" y="0" width="60" height="6" patternUnits="userSpaceOnUse" id="SvgjsPattern1483"><rect width="60" height="3" x="0" y="0" fill="rgba(47, 31, 124, 1)"></rect><rect width="60" height="3" x="0" y="3" fill="rgba(0, 0, 0, 0)"></rect></pattern><clipPath id="SvgjsClipPath1482"><circle r="15" cx="294.24" cy="290.03"></circle></clipPath><pattern x="0" y="0" width="336" height="6" patternUnits="userSpaceOnUse" id="SvgjsPattern1485"><rect width="336" height="3" x="0" y="0" fill="rgba(47, 31, 124, 1)"></rect><rect width="336" height="3" x="0" y="3" fill="rgba(0, 0, 0, 0)"></rect></pattern><clipPath id="SvgjsClipPath1484"><circle r="84" cx="674.41" cy="202.03"></circle></clipPath><pattern x="0" y="0" width="6.48" height="6.48" patternUnits="userSpaceOnUse" id="SvgjsPattern1487"><path d="M0 6.48L3.24 0L6.48 6.48" stroke="rgba(47, 31, 124, 1)" fill="none"></path></pattern><clipPath id="SvgjsClipPath1486"><circle r="16.200000000000003" cx="1308.07" cy="457.9"></circle></clipPath></defs></svg>