<?xml version="1.0" encoding="UTF-8" standalone="no"?>
<svg
   width="1600"
   height="1600"
   viewBox="0 0 1600 1600"
   version="1.1"
   id="svg167"
   sodipodi:docname="Hinterrhein.svg"
   inkscape:version="1.1.2 (b8e25be833, 2022-02-05)"
   xmlns:inkscape="http://www.inkscape.org/namespaces/inkscape"
   xmlns:sodipodi="http://sodipodi.sourceforge.net/DTD/sodipodi-0.dtd"
   xmlns="http://www.w3.org/2000/svg"
   xmlns:svg="http://www.w3.org/2000/svg"
   xmlns:rdf="http://www.w3.org/1999/02/22-rdf-syntax-ns#"
   xmlns:cc="http://creativecommons.org/ns#"
   xmlns:dc="http://purl.org/dc/elements/1.1/">
  <defs
     id="defs171" />
  <sodipodi:namedview
     id="namedview169"
     pagecolor="#ffffff"
     bordercolor="#666666"
     borderopacity="1.0"
     inkscape:pageshadow="2"
     inkscape:pageopacity="0.0"
     inkscape:pagecheckerboard="0"
     showgrid="false"
     inkscape:zoom="0.30582368"
     inkscape:cx="-153.68332"
     inkscape:cy="451.2404"
     inkscape:window-width="1366"
     inkscape:window-height="705"
     inkscape:window-x="-8"
     inkscape:window-y="-8"
     inkscape:window-maximized="1"
     inkscape:current-layer="Shape"
     inkscape:lockguides="true" />
  <!-- Generator: Sketch 55.2 (78181) - https://sketchapp.com -->
  <title
     id="title2">Hinterrhein</title>
  <desc
     id="desc4">Created with Sketch.</desc>
  <g
     id="Patterns"
     stroke="none"
     stroke-width="1"
     fill="none"
     fill-rule="evenodd">
    <g
       id="Hinterrhein"
       fill-rule="nonzero"
       stroke-width="30">
      <g
         transform="translate(-218,-5)"
         id="Shape">
        <ellipse
           stroke="#CFCFAF"
           stroke-linejoin="round"
           cx="1745.4111"
           cy="68.685234"
           rx="44.050247"
           ry="43.470638"
           id="ellipse6"
           style="stroke:#312593;stroke-width:10;stroke-miterlimit:4;stroke-dasharray:none;stroke-opacity:0.25471699" />
        <path
           d="m 1774.3918,265.17251 h 42.3668 c 28.4594,0 51.5298,-22.05781 51.5298,-49.26672 0,-27.20892 -23.0704,-49.26672 -51.5298,-49.26672 h -84.7337 c -28.4592,0 -51.5297,22.0578 -51.5297,49.26672"
           stroke="#F6AE9F"
           stroke-linejoin="round"
           id="path10"
           style="stroke:#312593;stroke-width:10;stroke-miterlimit:4;stroke-dasharray:none;stroke-opacity:0.25471699" />
        <path
           d="m 1728.9454,1133.6021 c -55.2045,0 -99.9521,-49.2487 -99.9521,-110 0,-21.0949 5.3932,-40.80331 14.751,-57.54451 m 153.249,-52.4555 h -68.0479 c -21.7772,0 -41.9293,7.66383 -58.3447,20.67437"
           stroke="#cfcfaf"
           stroke-linejoin="round"
           id="path12"
           style="stroke:#312593;stroke-width:10;stroke-miterlimit:4;stroke-dasharray:none;stroke-opacity:0.25471699" />
        <path
           d="m 703.58216,10.771621 h -3.6343 c -25.8399,0 -46.7917,21.0219 -46.7917,46.9483 0,25.92638 20.9518,46.948279 46.7917,46.948279 h 108.1205 c 25.8399,0 46.7916,-21.021899 46.7916,-46.948279 0,-25.9264 -20.9517,-46.9483 -46.7916,-46.9483 h -3.6343"
           stroke="#05203d"
           stroke-linejoin="round"
           id="path14"
           style="stroke:#312593;stroke-width:10;stroke-miterlimit:4;stroke-dasharray:none;stroke-opacity:0.25471699" />
        <path
           d="m 1438.872,204.89323 c 25.2441,0 45.7155,-20.24105 45.7155,-45.20946 0,-24.96841 -20.4714,-45.20947 -45.7155,-45.20947 h -51.6587"
           stroke="#F6AE9F"
           stroke-linejoin="round"
           id="path18"
           style="stroke:#312593;stroke-width:10;stroke-miterlimit:4;stroke-dasharray:none;stroke-opacity:0.25471699" />
        <path
           d="m 1202.6973,724.35368 c 0,-60.18029 -48.0071,-108.9664 -107.2276,-108.9664 -59.2205,0 -107.22759,48.78611 -107.22759,108.9664 0,60.18017 48.00709,108.96639 107.22759,108.96639"
           stroke="#f6ae9f"
           stroke-linejoin="round"
           id="path24"
           style="stroke:#312593;stroke-width:10;stroke-miterlimit:4;stroke-dasharray:none;stroke-opacity:0.25471699" />
        <path
           d="m 1220.286,12.4632 h 208.6348 c 79.3994,0 143.7672,64.615633 143.7672,144.32252 0,79.70687 -64.3678,144.32252 -143.7672,144.32252 h -62.7694"
           stroke="#89C7AA"
           stroke-linejoin="round"
           id="path32"
           style="stroke:#312593;stroke-width:10;stroke-miterlimit:4;stroke-dasharray:none;stroke-opacity:0.25471699" />
        <path
           d="m 1780.1879,306.90432 v 95.0692 c 0,40.96612 -33.5193,74.17649 -74.8727,74.17649 h -58.4373"
           stroke="#05203D"
           stroke-linejoin="round"
           id="path34"
           style="stroke:#312593;stroke-width:10;stroke-miterlimit:4;stroke-dasharray:none;stroke-opacity:0.25471699" />
        <path
           d="m 1362.2901,457.02292 h 122.0774 c 70.2917,0 129.1734,54.92011 144.5425,128.67309"
           stroke="#05203D"
           id="path40"
           style="fill:none;fill-opacity:1;stroke:#312593;stroke-width:10;stroke-miterlimit:4;stroke-dasharray:none;stroke-opacity:0.25471699" />
        <path
           d="m 1612.1014,318.84426 c 0,-30.2821 24.6554,-54.83096 55.0628,-54.83096 30.4074,0 55.0628,24.54886 55.0628,54.83096 v 39.87706 c 0,30.2821 -24.6554,54.83097 -55.0628,54.83097 -30.4074,0 -55.0628,-24.54887 -55.0628,-54.83097 z"
           stroke="#89C7AA"
           stroke-linejoin="round"
           id="path42"
           style="stroke:#312593;stroke-width:10;stroke-miterlimit:4;stroke-dasharray:none;stroke-opacity:0.25471699" />
        <circle
           stroke="#89C7AA"
           stroke-linejoin="round"
           cx="1249.2662"
           cy="196.77867"
           r="37.094944"
           id="circle46"
           style="stroke:#ff93d4;stroke-width:10;stroke-miterlimit:4;stroke-dasharray:none;stroke-opacity:1" />
        <path
           d="m 1249.2664,301.10824 c 58.897,0 106.648,-46.96933 106.648,-104.90914 0,-57.93982 -47.751,-104.909142 -106.648,-104.909142 -58.8969,0 -106.6479,46.969322 -106.6479,104.909142"
           stroke="#F6AE9F"
           stroke-linejoin="round"
           id="path48"
           style="stroke:#312593;stroke-width:10;stroke-miterlimit:4;stroke-dasharray:none;stroke-opacity:0.25471699" />
        <path
           d="m 1733.4933,985.60209 c -20.711,0 -37.5,16.78891 -37.5,37.50001 0,20.7111 16.789,37.5 37.5,37.5 20.7109,0 37.5,-16.7889 37.5,-37.5 v -37.50001"
           stroke="#05203D"
           stroke-linejoin="round"
           id="path50"
           style="fill:none;fill-opacity:1;stroke:#312593;stroke-width:10;stroke-miterlimit:4;stroke-dasharray:none;stroke-opacity:0.25471699" />
        <path
           d="m 905.85636,211.99569 c 0,25.2883 20.2893,45.7891 45.3117,45.7891 25.0225,0 45.3027,-20.5008 45.3027,-45.7891 0,-25.2882 -20.2802,-45.7891 -45.3027,-45.7891 h -151.7642"
           stroke="#f6ae9f"
           stroke-linejoin="round"
           id="path54"
           style="stroke:#312593;stroke-width:10;stroke-miterlimit:4;stroke-dasharray:none;stroke-opacity:0.25471699" />
        <path
           d="M 983.07386,13.614421 H 1098.319 c 23.5571,0 42.6498,19.2006 42.6498,42.8911 0,23.69038 -19.0927,42.890977 -42.6498,42.890977 H 983.07386 c -23.5545,0 -42.6497,-19.200597 -42.6497,-42.890977 0,-23.6905 19.0952,-42.8911 42.6497,-42.8911 z"
           stroke="#cfcfaf"
           stroke-linejoin="round"
           id="path56"
           style="stroke:#312593;stroke-width:10;stroke-miterlimit:4;stroke-dasharray:none;stroke-opacity:0.25471699" />
        <path
           d="M 1100.4645,302.26746 H 998.36667 c -64.61174,0 -116.99409,52.41866 -116.99409,117.08091"
           stroke="#F6AE9F"
           stroke-linejoin="round"
           id="path66"
           style="fill:none;fill-opacity:1;stroke:#312593;stroke-width:10;stroke-miterlimit:4;stroke-dasharray:none;stroke-opacity:0.25471699" />
        <path
           d="m 1137.3001,730.8934 c 0,-24.00843 -19.3348,-43.47063 -43.1865,-43.47063 -23.8517,0 -43.1865,19.4622 -43.1865,43.47063 0,24.00831 19.3348,43.47052 43.1865,43.47052 h 281.3942"
           stroke="#05203d"
           stroke-linejoin="round"
           id="path68"
           style="stroke:#312593;stroke-width:10;stroke-miterlimit:4;stroke-dasharray:none;stroke-opacity:0.25471699" />
        <path
           d="m 1282.3041,527.15555 c -25.2882,0 -45.7891,20.24118 -45.7891,45.20947 0,24.96828 20.5009,45.20946 45.7891,45.20946 25.2884,0 45.7891,-20.24118 45.7891,-45.20946 v -45.20947"
           stroke="#F6AE9F"
           stroke-linejoin="round"
           id="path70"
           style="stroke:#312593;stroke-width:10;stroke-miterlimit:4;stroke-dasharray:none;stroke-opacity:0.25471699" />
        <path
           d="m 1562.2551,741.32563 c 0,64.81938 53.2003,117.36598 118.8197,117.36598 65.6195,0 118.8198,-52.5466 118.8198,-117.36598 V 615.25604"
           stroke="#89C7AA"
           stroke-linejoin="round"
           id="path72"
           style="stroke:#312593;stroke-width:10;stroke-miterlimit:4;stroke-dasharray:none;stroke-opacity:0.25471699" />
        <path
           d="m 1500.3828,796.0939 h -5.9076 c -33.6276,0 -60.8932,-27.24753 -60.8932,-60.8589 0,-33.61137 27.2656,-60.85889 60.8932,-60.85889 h 185.4061 c 33.6276,0 60.8932,27.24752 60.8932,60.85889 0,33.61137 -27.2656,60.8589 -60.8932,60.8589 h -1.8177"
           stroke="#05203D"
           stroke-linejoin="round"
           id="path74"
           style="fill:none;fill-opacity:1;stroke:#312593;stroke-width:10;stroke-miterlimit:4;stroke-dasharray:none;stroke-opacity:0.25471699" />
        <path
           d="m 1387.2133,527.15555 h 74.8051 c 50.2404,0 90.9629,40.48236 90.9629,90.41893"
           stroke="#89C7AA"
           stroke-linejoin="round"
           id="path76"
           style="stroke:#312593;stroke-width:10;stroke-miterlimit:4;stroke-dasharray:none;stroke-opacity:0.25471699" />
        <ellipse
           stroke="#f6ae9f"
           stroke-linejoin="round"
           cx="729.88519"
           cy="332.97977"
           rx="48.107506"
           ry="47.527897"
           id="ellipse88"
           style="stroke:#312593;stroke-width:10;stroke-miterlimit:4;stroke-dasharray:none;stroke-opacity:0.25471699" />
        <path
           d="m 831.31674,331.82045 c 0,-58.89688 -46.96927,-106.64795 -104.90919,-106.64795 -57.93975,0 -104.90913,47.75107 -104.90913,106.64795 0,58.8969 46.96938,106.64789 104.90913,106.64789"
           stroke="#05203d"
           stroke-linejoin="round"
           id="path90"
           style="stroke:#312593;stroke-width:10;stroke-miterlimit:4;stroke-dasharray:none;stroke-opacity:0.25471699" />
        <path
           d="m 424.727,81.719897 v -58.34735 c 0,-16.6528798 13.43377,-30.1526498 30,-30.1526498 16.56623,0 30,13.49977 30,30.1526498 V 140.06724 c 0,16.65288 -13.43377,30.15266 -30,30.15266 -16.56623,0 -30,-13.49978 -30,-30.15266 V 125.9699"
           stroke="#cfcfaf"
           stroke-linejoin="round"
           id="path102"
           style="stroke:#312593;stroke-width:10;stroke-miterlimit:4;stroke-dasharray:none;stroke-opacity:0.25471699" />
        <path
           d="M 372.727,-6.7801028 V 145.04899 c 0,45.38187 36.93643,82.17091 82.5,82.17091 45.56357,0 82.5,-36.78904 82.5,-82.17091 V 109.1771"
           stroke="#89c7aa"
           stroke-linejoin="round"
           id="path104"
           style="stroke:#312593;stroke-width:10;stroke-miterlimit:4;stroke-dasharray:none;stroke-opacity:0.25471699" />
        <path
           d="m 1023.9562,514.57633 v 15.28261 c 0,21.55497 -17.5875,39.02842 -39.26921,39.02842 -21.69081,0 -39.27822,-17.47345 -39.27822,-39.02842 v -12.65865 c 0,-21.39131 -17.45097,-38.73185 -38.96893,-38.73185 -21.52689,0 -38.97791,17.34054 -38.97791,38.73185 v 15.57918"
           stroke="#89C7AA"
           stroke-linejoin="round"
           id="path110"
           style="stroke:#ff93d4;stroke-width:10;stroke-miterlimit:4;stroke-dasharray:none;stroke-opacity:1" />
        <ellipse
           stroke="#f6ae9f"
           stroke-linejoin="round"
           cx="1400.2844"
           cy="901.82098"
           rx="48.107506"
           ry="47.527897"
           id="ellipse122"
           style="stroke:#ff93d4;stroke-width:10;stroke-miterlimit:4;stroke-dasharray:none;stroke-opacity:1" />
        <path
           d="m 1172.2144,442.22784 c 0,24.00847 -19.3964,43.47064 -43.316,43.47064 -23.9196,0 -43.3161,-19.46217 -43.3161,-43.47064 0,-24.00848 19.3965,-43.47064 43.3161,-43.47064 h 161.8653"
           stroke="#cfcfaf"
           stroke-linejoin="round"
           id="path124"
           style="stroke:#312593;stroke-width:10;stroke-miterlimit:4;stroke-dasharray:none;stroke-opacity:0.25471699" />
      </g>
    </g>
  </g>
  <metadata
     id="metadata904">
    <rdf:RDF>
      <cc:Work
         rdf:about="">
        <dc:title>Hinterrhein</dc:title>
      </cc:Work>
    </rdf:RDF>
  </metadata>
</svg>
