<?xml version="1.0" encoding="utf-8"?><svg xmlns="http://www.w3.org/2000/svg" xmlns:xlink="http://www.w3.org/1999/xlink" width="1775" height="704" preserveAspectRatio="xMidYMid" viewBox="0 0 1775 704" style="z-index:1;margin-right:-2px;display:block;background-repeat-y:initial;background-repeat-x:initial;animation-play-state:paused" ><g transform="translate(887.5,352) scale(1,1) translate(-887.5,-352)" style="transform:matrix(1, 0, 0, 1, 0, 0);animation-play-state:paused" ><path id="path0" d="M 1586.3240274796383 280.66386701894123
c 0 22.674623737822 -5.5480462337224035 6.51292383958717 -12.060970073309573 6.51292383958717
S 1562.202087333019 303.33849075676324 1562.202087333019 280.66386701894123
s 5.5480462337224035 -6.51292383958717 12.060970073309573 -6.51292383958717
S 1586.3240274796383 257.98924328111923 1586.3240274796383 280.66386701894123
z" fill="none" stroke="none" style="animation-play-state:paused" ></path>


<circle cx="0" cy="0" r="1.643531620575848" fill="#7b6bc5" transform="translate(1586.3228759765625 280.37506103515625)" style="animation-play-state:paused" ></circle>
<path id="path1" d="M 484.3410553172858 486.10787631429065
c 0 24.466490852527457 -5.986481804341824 7.027609074662142 -13.014090879003966 7.027609074662142
S 458.3128735592779 510.5743671668181 458.3128735592779 486.10787631429065
s 5.986481804341824 -7.027609074662142 13.014090879003966 -7.027609074662142
S 484.3410553172858 461.6413854617632 484.3410553172858 486.10787631429065
z" fill="none" stroke="none" style="animation-play-state:paused" ></path>


<circle cx="0" cy="0" r="1.8248433085127258" fill="#6e5eb8" transform="translate(461.9520568847656 473.300537109375)" style="animation-play-state:paused" ></circle>
<path id="path2" d="M 698.7394610893077 232.9941908897311
c 0 35.69084426646302 -8.73286615030478 10.251625480792569 -18.98449163109735 10.251625480792569
S 660.7704778271129 268.6850351561941 660.7704778271129 232.9941908897311
s 8.73286615030478 -10.251625480792569 18.98449163109735 -10.251625480792569
S 698.7394610893077 197.30334662326808 698.7394610893077 232.9941908897311
z" fill="none" stroke="none" style="animation-play-state:paused" ></path>


<circle cx="0" cy="0" r="1.0236668647456244" fill="#7b6bc5" transform="translate(686.974365234375 219.38304138183594)" style="animation-play-state:paused" ></circle>
<path id="path3" d="M 265.6001439726723 173.28457475612214
c 0 32.74050423215619 -8.010974439782897 9.404187385832097 -17.415161825614994 9.404187385832097
S 230.7698203214423 206.02507898827832 230.7698203214423 173.28457475612214
s 8.010974439782897 -9.404187385832097 17.415161825614994 -9.404187385832097
S 265.6001439726723 140.54407052396596 265.6001439726723 173.28457475612214
z" fill="none" stroke="none" style="animation-play-state:paused" ></path>


<circle cx="0" cy="0" r="1.6132165823218378" fill="#7b6bc5" transform="translate(264.83642578125 160.4607391357422)" style="animation-play-state:paused" ></circle>
<path id="path4" d="M 1752.7644923070554 195.56096630773683
c 0 25.105600151667996 -6.142859611578339 7.211183022287616 -13.354042633865955 7.211183022287616
S 1726.0564070393236 220.66656645940483 1726.0564070393236 195.56096630773683
s 6.142859611578339 -7.211183022287616 13.354042633865955 -7.211183022287616
S 1752.7644923070554 170.45536615606883 1752.7644923070554 195.56096630773683
z" fill="none" stroke="none" style="animation-play-state:paused" ></path>


<circle cx="0" cy="0" r="1.5338241998406132" fill="#a899f0" transform="translate(1750.173095703125 208.94081115722656)" style="animation-play-state:paused" ></circle>
<path id="path5" d="M 1020.8043834197341 182.25360517963364
c 0 29.942162121640028 -7.326273710614048 8.60040826898171 -15.926681979595758 8.60040826898171
S 988.9510194605426 212.19576730127366 988.9510194605426 182.25360517963364
s 7.326273710614048 -8.60040826898171 15.926681979595758 -8.60040826898171
S 1020.8043834197341 152.3114430579936 1020.8043834197341 182.25360517963364
z" fill="none" stroke="none" style="animation-play-state:paused" ></path>


<circle cx="0" cy="0" r="1.6100570405613288" fill="#7b6bc5" transform="translate(989.944091796875 169.1887664794922)" style="animation-play-state:paused" ></circle>
<path id="path6" d="M 684.0698257105432 97.4075856791697
c 0 28.897292275107517 -7.0706140673135405 8.300286079020244 -15.370900146333785 8.300286079020244
S 653.3280254178756 126.30487795427722 653.3280254178756 97.4075856791697
s 7.0706140673135405 -8.300286079020244 15.370900146333785 -8.300286079020244
S 684.0698257105432 68.51029340406218 684.0698257105432 97.4075856791697
z" fill="none" stroke="none" style="animation-play-state:paused" ></path>


<circle cx="0" cy="0" r="1.8809628879910167" fill="#6e5eb8" transform="translate(662.721923828125 108.53453063964844)" style="animation-play-state:paused" ></circle>
<path id="path7" d="M 278.4815046986978 514.4180647179584
c 0 35.84850068509549 -8.771441656991447 10.296909771250832 -19.068351428242277 10.296909771250832
S 240.34480184221323 550.2665654030538 240.34480184221323 514.4180647179584
s 8.771441656991447 -10.296909771250832 19.068351428242277 -10.296909771250832
S 278.4815046986978 478.5695640328629 278.4815046986978 514.4180647179584
z" fill="none" stroke="none" style="animation-play-state:paused" ></path>


<circle cx="0" cy="0" r="1.2178527032313413" fill="#7b6bc5" transform="translate(240.61346435546875 505.23773193359375)" style="animation-play-state:paused" ></circle>
<path id="path8" d="M 1205.4875843869181 433.4321609119916
c 0 33.25172826385464 -8.136061170943155 9.551028331107183 -17.687089502050338 9.551028331107183
S 1170.1134053828173 466.6838891758463 1170.1134053828173 433.4321609119916
s 8.136061170943155 -9.551028331107183 17.687089502050338 -9.551028331107183
S 1205.4875843869181 400.18043264813696 1205.4875843869181 433.4321609119916
z" fill="none" stroke="none" style="animation-play-state:paused" ></path>


<circle cx="0" cy="0" r="1.6571243627850138" fill="#7b6bc5" transform="translate(1199.184814453125 416.8601379394531)" style="animation-play-state:paused" ></circle>
<path id="path9" d="M 69.08133514719609 160.40541984585096
c 0 21.51687386986582 -5.264767010711849 6.180378664748693 -11.445145675460541 6.180378664748693
S 46.191043796275 181.92229371571676 46.191043796275 160.40541984585096
s 5.264767010711849 -6.180378664748693 11.445145675460541 -6.180378664748693
S 69.08133514719609 138.88854597598515 69.08133514719609 160.40541984585096
z" fill="none" stroke="none" style="animation-play-state:paused" ></path>


<circle cx="0" cy="0" r="1.6999879363407782" fill="#a899f0" transform="translate(49.51482009887695 149.20314025878906)" style="animation-play-state:paused" ></circle>
<path id="path10" d="M 1044.4127146041785 55.181279260875115
c 0 24.857673756255117 -6.082196770147529 7.139970121477534 -13.222166891625061 7.139970121477534
S 1017.9683808209285 80.03895301713024 1017.9683808209285 55.181279260875115
s 6.082196770147529 -7.139970121477534 13.222166891625061 -7.139970121477534
S 1044.4127146041785 30.323605504619998 1044.4127146041785 55.181279260875115
z" fill="none" stroke="none" style="animation-play-state:paused" ></path>


<circle cx="0" cy="0" r="1.4114728882433423" fill="#7b6bc5" transform="translate(1034.490966796875 46.94248580932617)" style="animation-play-state:paused" ></circle>
<path id="path11" d="M 1569.5335547334844 294.1070924962216
c 0 30.566068452717506 -7.478931642686198 8.779615406631624 -16.258547049317823 8.779615406631624
S 1537.016460634849 324.6731609489391 1537.016460634849 294.1070924962216
s 7.478931642686198 -8.779615406631624 16.258547049317823 -8.779615406631624
S 1569.5335547334844 263.5410240435041 1569.5335547334844 294.1070924962216
z" fill="none" stroke="none" style="animation-play-state:paused" ></path>


<circle cx="0" cy="0" r="1.5666974962209779" fill="#7b6bc5" transform="translate(1538.6463623046875 279.10540771484375)" style="animation-play-state:paused" ></circle>
<path id="path12" d="M 1280.5134068432026 62.200246414730614
c 0 21.670541926855424 -5.3023666416773905 6.224517361969112 -11.526884003646503 6.224517361969112
S 1257.4596388359096 83.87078834158604 1257.4596388359096 62.200246414730614
s 5.3023666416773905 -6.224517361969112 11.526884003646503 -6.224517361969112
S 1280.5134068432026 40.52970448787519 1280.5134068432026 62.200246414730614
z" fill="none" stroke="none" style="animation-play-state:paused" ></path>


<circle cx="0" cy="0" r="1.7772167416352727" fill="#6e5eb8" transform="translate(1264.62353515625 70.44857025146484)" style="animation-play-state:paused" ></circle>
<path id="path13" d="M 762.9890546141185 379.4564627671607
c 0 21.743979262696747 -5.320335351510906 6.245611064817151 -11.565946416328057 6.245611064817151
S 739.8571617814623 401.20044202985747 739.8571617814623 379.4564627671607
s 5.320335351510906 -6.245611064817151 11.565946416328057 -6.245611064817151
S 762.9890546141185 357.71248350446393 762.9890546141185 379.4564627671607
z" fill="none" stroke="none" style="animation-play-state:paused" ></path>


<circle cx="0" cy="0" r="1.3966735652902658" fill="#a899f0" transform="translate(741.7670288085938 367.96844482421875)" style="animation-play-state:paused" ></circle>
<path id="path14" d="M 1380.4526285330483 609.8678326907278
c 0 35.60749673024207 -8.712472604208164 10.227685231026976 -18.94015783523514 10.227685231026976
S 1342.572312862578 645.4753294209698 1342.572312862578 609.8678326907278
s 8.712472604208164 -10.227685231026976 18.94015783523514 -10.227685231026976
S 1380.4526285330483 574.2603359604858 1380.4526285330483 609.8678326907278
z" fill="none" stroke="none" style="animation-play-state:paused" ></path>


<circle cx="0" cy="0" r="1.936741515693354" fill="#7b6bc5" transform="translate(1378.4879150390625 627.4650268554688)" style="animation-play-state:paused" ></circle>
<path id="path15" d="M 1768.688315714826 393.72520803257294
c 0 33.177844417442664 -8.117983208523203 9.529806375222893 -17.647789583746096 9.529806375222893
S 1733.392736547334 426.9030524500156 1733.392736547334 393.72520803257294
s 8.117983208523203 -9.529806375222893 17.647789583746096 -9.529806375222893
S 1768.688315714826 360.5473636151303 1768.688315714826 393.72520803257294
z" fill="none" stroke="none" style="animation-play-state:paused" ></path>


<circle cx="0" cy="0" r="1.1031253280789688" fill="#7b6bc5" transform="translate(1734.1964111328125 406.8797302246094)" style="animation-play-state:paused" ></circle>
<path id="path16" d="M 210.7787044859255 438.04911609657887
c 0 27.056354254617776 -6.620171785704349 7.771506009305106 -14.391677795009453 7.771506009305106
S 181.99534889590657 465.10547035119663 181.99534889590657 438.04911609657887
s 6.620171785704349 -7.771506009305106 14.391677795009453 -7.771506009305106
S 210.7787044859255 410.9927618419611 210.7787044859255 438.04911609657887
z" fill="none" stroke="none" style="animation-play-state:paused" ></path>


<circle cx="0" cy="0" r="1.6725600288543334" fill="#7b6bc5" transform="translate(210.2842559814453 428.29449462890625)" style="animation-play-state:paused" ></circle>
<path id="path17" d="M 112.65331572885682 262.10225128152706
c 0 24.930619082945025 -6.100045094763145 7.16092250254804 -13.260967597311184 7.16092250254804
S 86.13138053423447 287.0328703644721 86.13138053423447 262.10225128152706
s 6.100045094763145 -7.16092250254804 13.260967597311184 -7.16092250254804
S 112.65331572885682 237.17163219858205 112.65331572885682 262.10225128152706
z" fill="none" stroke="none" style="animation-play-state:paused" ></path>


<circle cx="0" cy="0" r="1.0663287209707957" fill="#7b6bc5" transform="translate(86.70386505126953 271.8165588378906)" style="animation-play-state:paused" ></circle>
<path id="path18" d="M 1596.2361940132348 622.1681564189024
c 0 33.943073907324816 -8.30522021136671 9.74960633508266 -18.05482654644937 9.74960633508266
S 1560.1265409203359 656.1112303262272 1560.1265409203359 622.1681564189024
s 8.30522021136671 -9.74960633508266 18.05482654644937 -9.74960633508266
S 1596.2361940132348 588.2250825115776 1596.2361940132348 622.1681564189024
z" fill="none" stroke="none" style="animation-play-state:paused" ></path>


<circle cx="0" cy="0" r="1.4154076436378495" fill="#a899f0" transform="translate(1560.26513671875 615.4594116210938)" style="animation-play-state:paused" ></circle>
<path id="path19" d="M 1489.143535172589 412.7922051247705
c 0 37.41297527551848 -9.154238631243881 10.746280132329776 -19.900518763573658 10.746280132329776
S 1449.3424976454417 450.20518040028895 1449.3424976454417 412.7922051247705
s 9.154238631243881 -10.746280132329776 19.900518763573658 -10.746280132329776
S 1489.143535172589 375.379229849252 1489.143535172589 412.7922051247705
z" fill="none" stroke="none" style="animation-play-state:paused" ></path>


<circle cx="0" cy="0" r="1.804092226353516" fill="#7b6bc5" transform="translate(1488.52294921875 425.8212890625)" style="animation-play-state:paused" ></circle>
<path id="path20" d="M 1304.0954076203222 35.35752693624724
c 0 26.33157987960793 -6.442833374797685 7.563326135632066 -14.00615951042975 7.563326135632066
S 1276.0830885994626 61.68910681585517 1276.0830885994626 35.35752693624724
s 6.442833374797685 -7.563326135632066 14.00615951042975 -7.563326135632066
S 1304.0954076203222 9.02594705663931 1304.0954076203222 35.35752693624724
z" fill="none" stroke="none" style="animation-play-state:paused" ></path>


<circle cx="0" cy="0" r="1.1921624181725394" fill="#a899f0" transform="translate(1301.3023681640625 49.39881896972656)" style="animation-play-state:paused" ></circle>
<path id="path21" d="M 359.3792767248779 15.610157712927233
c 0 29.48699715818667 -7.2149035599818445 8.469669396500427 -15.684572956482272 8.469669396500427
S 328.01013081191337 45.0971548711139 328.01013081191337 15.610157712927233
s 7.2149035599818445 -8.469669396500427 15.684572956482272 -8.469669396500427
S 359.3792767248779 -13.876839445259439 359.3792767248779 15.610157712927233
z" fill="none" stroke="none" style="animation-play-state:paused" ></path>


<circle cx="0" cy="0" r="1.0884474649475773" fill="#6e5eb8" transform="translate(333.7882385253906 1.0539748668670654)" style="animation-play-state:paused" ></circle>
<path id="path22" d="M 1306.5842309417023 579.0502011052605
c 0 30.351580615962426 -7.426450576246125 8.718007198201974 -16.1444577744481 8.718007198201974
S 1274.2953153928063 609.401781721223 1274.2953153928063 579.0502011052605
s 7.426450576246125 -8.718007198201974 16.1444577744481 -8.718007198201974
S 1306.5842309417023 548.698620489298 1306.5842309417023 579.0502011052605
z" fill="none" stroke="none" style="animation-play-state:paused" ></path>


<circle cx="0" cy="0" r="1.862227567334924" fill="#a899f0" transform="translate(1302.3896484375 595.0733642578125)" style="animation-play-state:paused" ></circle>
<path id="path23" d="M 1335.0734561993452 208.4630988497889
c 0 22.519465704864686 -5.510082034169018 6.46835717054624 -11.978439204715258 6.46835717054624
S 1311.1165777899148 230.9825645546536 1311.1165777899148 208.4630988497889
s 5.510082034169018 -6.46835717054624 11.978439204715258 -6.46835717054624
S 1335.0734561993452 185.9436331449242 1335.0734561993452 208.4630988497889
z" fill="none" stroke="none" style="animation-play-state:paused" ></path>


<circle cx="0" cy="0" r="1.8685008576591349" fill="#7b6bc5" transform="translate(1330.2060546875 197.70388793945312)" style="animation-play-state:paused" ></circle>
<path id="path24" d="M 613.5354518610212 132.14696327768038
c 0 20.24184788423491 -4.95279256741918 5.81414779653556 -10.76694036395474 5.81414779653556
S 592.0015711331117 152.3888111619153 592.0015711331117 132.14696327768038
s 4.95279256741918 -5.81414779653556 10.76694036395474 -5.81414779653556
S 613.5354518610212 111.90511539344547 613.5354518610212 132.14696327768038
z" fill="none" stroke="none" style="animation-play-state:paused" ></path>


<circle cx="0" cy="0" r="1.253056354055578" fill="#6e5eb8" transform="translate(592.0755615234375 135.96165466308594)" style="animation-play-state:paused" ></circle>
<path id="path25" d="M 1480.7534097546643 508.3302567565588
c 0 21.548910661304163 -5.272605800106337 6.189580721863962 -11.462186521970299 6.189580721863962
S 1457.8290367107236 529.879167417863 1457.8290367107236 508.3302567565588
s 5.272605800106337 -6.189580721863962 11.462186521970299 -6.189580721863962
S 1480.7534097546643 486.78134609525466 1480.7534097546643 508.3302567565588
z" fill="none" stroke="none" style="animation-play-state:paused" ></path>


<circle cx="0" cy="0" r="1.0659287354637286" fill="#7b6bc5" transform="translate(1469.75927734375 514.5486450195312)" style="animation-play-state:paused" ></circle>
<path id="path26" d="M 1337.8579332790844 188.7621221753379
c 0 21.47766329088124 -5.255172932875197 6.1691160516361006 -11.424288984511296 6.1691160516361006
S 1315.0093553100617 210.23978546621913 1315.0093553100617 188.7621221753379
s 5.255172932875197 -6.1691160516361006 11.424288984511296 -6.1691160516361006
S 1337.8579332790844 167.28445888445668 1337.8579332790844 188.7621221753379
z" fill="none" stroke="none" style="animation-play-state:paused" ></path>


<circle cx="0" cy="0" r="1.5691049525676315" fill="#7b6bc5" transform="translate(1337.67041015625 182.91079711914062)" style="animation-play-state:paused" ></circle>
<path id="path27" d="M 1472.8776008572515 542.4518784824128
c 0 27.41915823255997 -6.708942971796588 7.875715662543821 -14.584658634340409 7.875715662543821
S 1443.7082835885706 569.8710367149728 1443.7082835885706 542.4518784824128
s 6.708942971796588 -7.875715662543821 14.584658634340409 -7.875715662543821
S 1472.8776008572515 515.0327202498528 1472.8776008572515 542.4518784824128
z" fill="none" stroke="none" style="animation-play-state:paused" ></path>


<circle cx="0" cy="0" r="1.3490728756913055" fill="#7b6bc5" transform="translate(1472.412353515625 552.0811157226562)" style="animation-play-state:paused" ></circle>
<path id="path28" d="M 1322.7657260591616 162.97970358820317
c 0 23.325656975471794 -5.707341600381396 6.6999227482738135 -12.40726434865521 6.6999227482738135
S 1297.9511973618512 186.30536056367495 1297.9511973618512 162.97970358820317
s 5.707341600381396 -6.6999227482738135 12.40726434865521 -6.6999227482738135
S 1322.7657260591616 139.65404661273138 1322.7657260591616 162.97970358820317
z" fill="none" stroke="none" style="animation-play-state:paused" ></path>


<circle cx="0" cy="0" r="1.5238527040697567" fill="#7b6bc5" transform="translate(1308.8466796875 156.0152587890625)" style="animation-play-state:paused" ></circle>
<path id="path29" d="M 1420.726561553378 518.8999045523698
c 0 33.938481922262945 -8.304096640553698 9.748287360649995 -18.052384001203695 9.748287360649995
S 1384.6217935509703 552.8383864746327 1384.6217935509703 518.8999045523698
s 8.304096640553698 -9.748287360649995 18.052384001203695 -9.748287360649995
S 1420.726561553378 484.9614226301068 1420.726561553378 518.8999045523698
z" fill="none" stroke="none" style="animation-play-state:paused" ></path>


<circle cx="0" cy="0" r="1.2004899074581858" fill="#7b6bc5" transform="translate(1385.335693359375 531.74072265625)" style="animation-play-state:paused" ></circle>
<path id="path30" d="M 1077.5158973927291 646.8398493894753
c 0 37.3489998174712 -9.138585061721676 10.727904202890665 -19.86648926461234 10.727904202890665
S 1037.7829188635046 684.1888492069464 1037.7829188635046 646.8398493894753
s 9.138585061721676 -10.727904202890665 19.86648926461234 -10.727904202890665
S 1077.5158973927291 609.4908495720041 1077.5158973927291 646.8398493894753
z" fill="none" stroke="none" style="animation-play-state:paused" ></path>


<circle cx="0" cy="0" r="1.3963110769291551" fill="#6e5eb8" transform="translate(1068.908447265625 629.4397583007812)" style="animation-play-state:paused" ></circle>
<path id="path31" d="M 707.9057633063653 74.13653280592723
c 0 29.156468607331096 -7.134029552857608 8.374730344658932 -15.50875989751654 8.374730344658932
S 676.8882435113321 103.29300141325832 676.8882435113321 74.13653280592723
s 7.134029552857608 -8.374730344658932 15.50875989751654 -8.374730344658932
S 707.9057633063653 44.98006419859614 707.9057633063653 74.13653280592723
z" fill="none" stroke="none" style="animation-play-state:paused" ></path>


<circle cx="0" cy="0" r="1.2879287671314776" fill="#7b6bc5" transform="translate(697.6903686523438 84.78269958496094)" style="animation-play-state:paused" ></circle>
<path id="path32" d="M 295.8758887190615 28.31967983419241
c 0 24.573900871460587 -6.012762979187165 7.0584608886110205 -13.071223867798185 7.0584608886110205
S 269.7334409834651 52.893580705652994 269.7334409834651 28.31967983419241
s 6.012762979187165 -7.0584608886110205 13.071223867798185 -7.0584608886110205
S 295.8758887190615 3.7457789627318228 295.8758887190615 28.31967983419241
z" fill="none" stroke="none" style="animation-play-state:paused" ></path>


<circle cx="0" cy="0" r="1.1282533031134365" fill="#a899f0" transform="translate(270.07440185546875 20.300750732421875)" style="animation-play-state:paused" ></circle></g></svg>