<?xml version="1.0" encoding="utf-8"?><svg xmlns="http://www.w3.org/2000/svg" xmlns:xlink="http://www.w3.org/1999/xlink" width="1775" height="704" preserveAspectRatio="xMidYMid" viewBox="0 0 1775 704" style="z-index:1;margin-right:-2px;display:block;background-repeat-y:initial;background-repeat-x:initial;animation-play-state:paused" ><g transform="translate(887.5,352) scale(1,1) translate(-887.5,-352)" style="transform:matrix(1, 0, 0, 1, 0, 0);animation-play-state:paused" ><path id="path0" d="M 49.468706185952605 219.36407351550722
c 0 24.286280712915246 -5.942387834011177 6.975846587752252 -12.918234421763428 6.975846587752252
S 23.632237342425746 243.65035422842246 23.632237342425746 219.36407351550722
s 5.942387834011177 -6.975846587752252 12.918234421763428 -6.975846587752252
S 49.468706185952605 195.07779280259197 49.468706185952605 219.36407351550722
z" fill="none" stroke="none" style="animation-play-state:paused" ></path>


<circle cx="0" cy="0" r="2.007183272385214" fill="#6e5eb8" transform="translate(49.418983459472656 222.8895263671875)" style="animation-play-state:paused" ></circle>
<path id="path1" d="M 1478.2682688873292 355.0538003068481
c 0 28.401498688675098 -6.949302870633268 8.157877282917315 -15.107180153550583 8.157877282917315
S 1448.053908580228 383.45529899552315 1448.053908580228 355.0538003068481
s 6.949302870633268 -8.157877282917315 15.107180153550583 -8.157877282917315
S 1478.2682688873292 326.652301618173 1478.2682688873292 355.0538003068481
z" fill="none" stroke="none" style="animation-play-state:paused" ></path>


<circle cx="0" cy="0" r="2.077225125341266" fill="#7b6bc5" transform="translate(1475.2315673828125 370.20050048828125)" style="animation-play-state:paused" ></circle>
<path id="path2" d="M 428.08277532693955 217.57179824215623
c 0 25.549906152112236 -6.251572781899801 7.338802830925855 -13.590375612825657 7.338802830925855
S 400.90202410128825 243.12170439426848 400.90202410128825 217.57179824215623
s 6.251572781899801 -7.338802830925855 13.590375612825657 -7.338802830925855
S 428.08277532693955 192.021892090044 428.08277532693955 217.57179824215623
z" fill="none" stroke="none" style="animation-play-state:paused" ></path>


<circle cx="0" cy="0" r="1.3737897586117007" fill="#6e5eb8" transform="translate(403.1112976074219 231.0531768798828)" style="animation-play-state:paused" ></circle>
<path id="path3" d="M 166.35458733011927 2.888680107063296
c 0 36.45051420744758 -8.918742837992491 10.46982854894771 -19.3885713869402 10.46982854894771
S 127.57744455623886 39.33919431451088 127.57744455623886 2.888680107063296
s 8.918742837992491 -10.46982854894771 19.3885713869402 -10.46982854894771
S 166.35458733011927 -33.56183410038429 166.35458733011927 2.888680107063296
z" fill="none" stroke="none" style="animation-play-state:paused" ></path>


<circle cx="0" cy="0" r="1.847278102524457" fill="#7b6bc5" transform="translate(145.539306640625 -7.735916614532471)" style="animation-play-state:paused" ></circle>
<path id="path4" d="M 1128.137322821744 258.8375991404309
c 0 24.907909309202708 -6.094488447996406 7.154399482430565 -13.24888793042697 7.154399482430565
S 1101.6395469608901 283.7455084496336 1101.6395469608901 258.8375991404309
s 6.094488447996406 -7.154399482430565 13.24888793042697 -7.154399482430565
S 1128.137322821744 233.9296898312282 1128.137322821744 258.8375991404309
z" fill="none" stroke="none" style="animation-play-state:paused" ></path>


<circle cx="0" cy="0" r="2.392141645208545" fill="#7b6bc5" transform="translate(1122.9716796875 270.91290283203125)" style="animation-play-state:paused" ></circle>
<path id="path5" d="M 26.95341881642175 474.74504741883635
c 0 30.958393053333452 -7.574925959858184 8.892304387659609 -16.467230347517795 8.892304387659609
S -5.981041878613841 505.7034404721698 -5.981041878613841 474.74504741883635
s 7.574925959858184 -8.892304387659609 16.467230347517795 -8.892304387659609
S 26.95341881642175 443.7866543655029 26.95341881642175 474.74504741883635
z" fill="none" stroke="none" style="animation-play-state:paused" ></path>


<circle cx="0" cy="0" r="2.01860831105104" fill="#a899f0" transform="translate(15.561347961425781 463.8426818847656)" style="animation-play-state:paused" ></circle>
<path id="path6" d="M 999.480794315959 692.4819609755964
c 0 21.75465044276623 -5.3229463849321625 6.248676191007322 -11.571622575939484 6.248676191007322
S 976.33754916408 714.2366114183626 976.33754916408 692.4819609755964
s 5.3229463849321625 -6.248676191007322 11.571622575939484 -6.248676191007322
S 999.480794315959 670.7273105328302 999.480794315959 692.4819609755964
z" fill="none" stroke="none" style="animation-play-state:paused" ></path>


<circle cx="0" cy="0" r="2.1757916284151464" fill="#6e5eb8" transform="translate(976.4918212890625 687.038818359375)" style="animation-play-state:paused" ></circle>
<path id="path7" d="M 1678.3671062170415 132.2337481548136
c 0 29.25341698113204 -7.1577509634684775 8.402577217984735 -15.560328181453214 8.402577217984735
S 1647.2464498541349 161.48716513594565 1647.2464498541349 132.2337481548136
s 7.1577509634684775 -8.402577217984735 15.560328181453214 -8.402577217984735
S 1678.3671062170415 102.98033117368158 1678.3671062170415 132.2337481548136
z" fill="none" stroke="none" style="animation-play-state:paused" ></path>


<circle cx="0" cy="0" r="2.1136009206469684" fill="#7b6bc5" transform="translate(1659.034912109375 141.861083984375)" style="animation-play-state:paused" ></circle>
<path id="path8" d="M 403.48296106275376 314.5880353916565
c 0 31.5998582887607 -7.7318802195903835 9.076555040388712 -16.808435259979095 9.076555040388712
S 369.8660905427956 346.1878936804172 369.8660905427956 314.5880353916565
s 7.7318802195903835 -9.076555040388712 16.808435259979095 -9.076555040388712
S 403.48296106275376 282.9881771028958 403.48296106275376 314.5880353916565
z" fill="none" stroke="none" style="animation-play-state:paused" ></path>


<circle cx="0" cy="0" r="2.156291702472733" fill="#7b6bc5" transform="translate(403.3899841308594 319.9955139160156)" style="animation-play-state:paused" ></circle>
<path id="path9" d="M 1040.651019873615 400.43071443194106
c 0 26.889113422065734 -6.579251156462892 7.7234687488912215 -14.302719905354113 7.7234687488912215
S 1012.0455800629069 427.3198278540068 1012.0455800629069 400.43071443194106
s 6.579251156462892 -7.7234687488912215 14.302719905354113 -7.7234687488912215
S 1040.651019873615 373.5416010098753 1040.651019873615 400.43071443194106
z" fill="none" stroke="none" style="animation-play-state:paused" ></path>


<circle cx="0" cy="0" r="1.8564610211712558" fill="#6e5eb8" transform="translate(1033.53515625 412.1673278808594)" style="animation-play-state:paused" ></circle>
<path id="path10" d="M 797.1918962972593 15.812793087483852
c 0 18.96099708549407 -4.639392903897485 5.446243843705743 -10.085636747603228 5.446243843705743
S 777.0206228020529 34.773790172977925 777.0206228020529 15.812793087483852
s 4.639392903897485 -5.446243843705743 10.085636747603228 -5.446243843705743
S 797.1918962972593 -3.148203998010219 797.1918962972593 15.812793087483852
z" fill="none" stroke="none" style="animation-play-state:paused" ></path>


<circle cx="0" cy="0" r="1.4017397523318103" fill="#7b6bc5" transform="translate(796.8551025390625 9.04670524597168)" style="animation-play-state:paused" ></circle>
<path id="path11" d="M 1607.4892603844553 259.8784641434057
c 0 31.5397454049771 -7.717171748026311 9.059288573770019 -16.77646032179633 9.059288573770019
S 1573.9363397408626 291.41820954838283 1573.9363397408626 259.8784641434057
s 7.717171748026311 -9.059288573770019 16.77646032179633 -9.059288573770019
S 1607.4892603844553 228.3387187384286 1607.4892603844553 259.8784641434057
z" fill="none" stroke="none" style="animation-play-state:paused" ></path>


<circle cx="0" cy="0" r="2.2269581893017185" fill="#7b6bc5" transform="translate(1606.475341796875 246.2390899658203)" style="animation-play-state:paused" ></circle>
<path id="path12" d="M 1364.618273282388 569.4858995979436
c 0 32.236365596232886 -7.887621369291024 9.259381607428594 -17.14700297671962 9.259381607428594
S 1330.3242673289485 601.7222651941764 1330.3242673289485 569.4858995979436
s 7.887621369291024 -9.259381607428594 17.14700297671962 -9.259381607428594
S 1364.618273282388 537.2495340017107 1364.618273282388 569.4858995979436
z" fill="none" stroke="none" style="animation-play-state:paused" ></path>


<circle cx="0" cy="0" r="1.9523393391384345" fill="#7b6bc5" transform="translate(1358.2283935546875 553.6281127929688)" style="animation-play-state:paused" ></circle>
<path id="path13" d="M 801.433152555606 318.995025413448
c 0 21.594467440731858 -5.283752671668433 6.202666179784683 -11.486418851453115 6.202666179784683
S 778.4603148526998 340.58949285417987 778.4603148526998 318.995025413448
s 5.283752671668433 -6.202666179784683 11.486418851453115 -6.202666179784683
S 801.433152555606 297.4005579727161 801.433152555606 318.995025413448
z" fill="none" stroke="none" style="animation-play-state:paused" ></path>


<circle cx="0" cy="0" r="2.0228527369179417" fill="#7b6bc5" transform="translate(778.4747314453125 317.1407470703125)" style="animation-play-state:paused" ></circle>
<path id="path14" d="M 418.877385608374 77.84121476428555
c 0 21.26471770341618 -5.203069225303959 6.107950829704648 -11.311020055008607 6.107950829704648
S 396.2553454983568 99.10593246770173 396.2553454983568 77.84121476428555
s 5.203069225303959 -6.107950829704648 11.311020055008607 -6.107950829704648
S 418.877385608374 56.57649706086937 418.877385608374 77.84121476428555
z" fill="none" stroke="none" style="animation-play-state:paused" ></path>


<circle cx="0" cy="0" r="1.3576266279598577" fill="#a899f0" transform="translate(418.63519287109375 71.40448760986328)" style="animation-play-state:paused" ></circle>
<path id="path15" d="M 88.6348940637343 657.3998765361529
c 0 22.078187799646244 -5.402109780764506 6.3416071339409426 -11.743716914705448 6.3416071339409426
S 65.1474602343234 679.4780643357991 65.1474602343234 657.3998765361529
s 5.402109780764506 -6.3416071339409426 11.743716914705448 -6.3416071339409426
S 88.6348940637343 635.3216887365066 88.6348940637343 657.3998765361529
z" fill="none" stroke="none" style="animation-play-state:paused" ></path>


<circle cx="0" cy="0" r="2.4664253379361916" fill="#7b6bc5" transform="translate(73.35157012939453 665.1187744140625)" style="animation-play-state:paused" ></circle>
<path id="path16" d="M 1226.8006564005173 623.0769911348889
c 0 34.04441801131181 -8.330017172980549 9.778715811759776 -18.108732984740325 9.778715811759776
S 1190.5831904310367 657.1214091462007 1190.5831904310367 623.0769911348889
s 8.330017172980549 -9.778715811759776 18.108732984740325 -9.778715811759776
S 1226.8006564005173 589.0325731235771 1226.8006564005173 623.0769911348889
z" fill="none" stroke="none" style="animation-play-state:paused" ></path>


<circle cx="0" cy="0" r="2.347054396964733" fill="#7b6bc5" transform="translate(1226.15087890625 635.5375366210938)" style="animation-play-state:paused" ></circle>
<path id="path17" d="M 567.3808731320407 288.7825274588139
c 0 28.936666601048962 -7.0802482108949585 8.311595725833213 -15.391843936728172 8.311595725833213
S 536.5971852585844 317.71919405986284 536.5971852585844 288.7825274588139
s 7.0802482108949585 -8.311595725833213 15.391843936728172 -8.311595725833213
S 567.3808731320407 259.84586085776493 567.3808731320407 288.7825274588139
z" fill="none" stroke="none" style="animation-play-state:paused" ></path>


<circle cx="0" cy="0" r="2.018211589727889" fill="#6e5eb8" transform="translate(557.8734130859375 299.8429870605469)" style="animation-play-state:paused" ></circle>
<path id="path18" d="M 1557.8226928617205 598.2507494259975
c 0 25.31484637997308 -6.1940581568019235 7.271285662332693 -13.465343819134617 7.271285662332693
S 1530.8920052234512 623.5655958059706 1530.8920052234512 598.2507494259975
s 6.1940581568019235 -7.271285662332693 13.465343819134617 -7.271285662332693
S 1557.8226928617205 572.9359030460244 1557.8226928617205 598.2507494259975
z" fill="none" stroke="none" style="animation-play-state:paused" ></path>


<circle cx="0" cy="0" r="1.5790466903674756" fill="#7b6bc5" transform="translate(1539.28271484375 607.8685913085938)" style="animation-play-state:paused" ></circle>
<path id="path19" d="M 1505.974550555054 499.823032056464
c 0 30.50400228397251 -7.463745239695401 8.76178789007721 -16.22553312977261 8.76178789007721
S 1473.5234842955088 530.3270343404365 1473.5234842955088 499.823032056464
s 7.463745239695401 -8.76178789007721 16.22553312977261 -8.76178789007721
S 1505.974550555054 469.3190297724915 1505.974550555054 499.823032056464
z" fill="none" stroke="none" style="animation-play-state:paused" ></path>


<circle cx="0" cy="0" r="2.0499974442672113" fill="#6e5eb8" transform="translate(1474.13720703125 511.1910095214844)" style="animation-play-state:paused" ></circle>
<path id="path20" d="M 115.10707079114523 494.43867802829175
c 0 20.97550319321399 -5.132303972807677 6.02487857677423 -11.157182549581908 6.02487857677423
S 92.79270569198142 515.4141812215057 92.79270569198142 494.43867802829175
s 5.132303972807677 -6.02487857677423 11.157182549581908 -6.02487857677423
S 115.10707079114523 473.4631748350778 115.10707079114523 494.43867802829175
z" fill="none" stroke="none" style="animation-play-state:paused" ></path>


<circle cx="0" cy="0" r="1.7685091031123084" fill="#7b6bc5" transform="translate(113.3846664428711 483.424072265625)" style="animation-play-state:paused" ></circle>
<path id="path21" d="M 1623.7417472540822 492.7112828434689
c 0 28.003389726534603 -6.851893230960594 8.043526836345047 -14.89542006730564 8.043526836345047
S 1593.950907119471 520.7146725700035 1593.950907119471 492.7112828434689
s 6.851893230960594 -8.043526836345047 14.89542006730564 -8.043526836345047
S 1623.7417472540822 464.7078931169343 1623.7417472540822 492.7112828434689
z" fill="none" stroke="none" style="animation-play-state:paused" ></path>


<circle cx="0" cy="0" r="2.2178445837384384" fill="#7b6bc5" transform="translate(1622.771240234375 505.0823669433594)" style="animation-play-state:paused" ></circle>
<path id="path22" d="M 718.503188756636 427.7797193111235
c 0 29.354971577949314 -7.182599428647172 8.43174715536842 -15.614346584015593 8.43174715536842
S 687.2744955886047 457.1346908890728 687.2744955886047 427.7797193111235
s 7.182599428647172 -8.43174715536842 15.614346584015593 -8.43174715536842
S 718.503188756636 398.4247477331742 718.503188756636 427.7797193111235
z" fill="none" stroke="none" style="animation-play-state:paused" ></path>


<circle cx="0" cy="0" r="1.2838321749804944" fill="#6e5eb8" transform="translate(688.0875244140625 415.637451171875)" style="animation-play-state:paused" ></circle>
<path id="path23" d="M 743.124185741421 662.5433952842228
c 0 29.33633096412886 -7.17803842739323 8.426392936505097 -15.604431363898328 8.426392936505097
S 711.9153230136243 691.8797262483516 711.9153230136243 662.5433952842228
s 7.17803842739323 -8.426392936505097 15.604431363898328 -8.426392936505097
S 743.124185741421 633.207064320094 743.124185741421 662.5433952842228
z" fill="none" stroke="none" style="animation-play-state:paused" ></path>


<circle cx="0" cy="0" r="2.3509766522201776" fill="#a899f0" transform="translate(730.369140625 671.6917114257812)" style="animation-play-state:paused" ></circle>
<path id="path24" d="M 1355.599921848966 57.4527455824991
c 0 32.635261867020375 -7.985223648313495 9.373958195846278 -17.35918184415977 9.373958195846278
S 1320.8815581606464 90.08800744951947 1320.8815581606464 57.4527455824991
s 7.985223648313495 -9.373958195846278 17.35918184415977 -9.373958195846278
S 1355.599921848966 24.817483715478723 1355.599921848966 57.4527455824991
z" fill="none" stroke="none" style="animation-play-state:paused" ></path>


<circle cx="0" cy="0" r="1.6804186480785512" fill="#7b6bc5" transform="translate(1320.941650390625 61.95772933959961)" style="animation-play-state:paused" ></circle>
<path id="path25" d="M 1546.0277996889454 680.9131668235374
c 0 19.47514375128932 -4.7651947476558965 5.593924268987358 -10.359119016643255 5.593924268987358
S 1525.3095616556589 700.3883105748267 1525.3095616556589 680.9131668235374
s 4.7651947476558965 -5.593924268987358 10.359119016643255 -5.593924268987358
S 1546.0277996889454 661.438023072248 1546.0277996889454 680.9131668235374
z" fill="none" stroke="none" style="animation-play-state:paused" ></path>


<circle cx="0" cy="0" r="1.8954072664853134" fill="#a899f0" transform="translate(1529.6798095703125 671.7412109375)" style="animation-play-state:paused" ></circle>
<path id="path26" d="M 1377.355877124066 682.9205666319343
c 0 35.958315960215614 -8.798311351967648 10.328452456657676 -19.126763808625324 10.328452456657676
S 1339.1023495068152 718.8788825921499 1339.1023495068152 682.9205666319343
s 8.798311351967648 -10.328452456657676 19.126763808625324 -10.328452456657676
S 1377.355877124066 646.9622506717187 1377.355877124066 682.9205666319343
z" fill="none" stroke="none" style="animation-play-state:paused" ></path>


<circle cx="0" cy="0" r="1.8887987671142508" fill="#7b6bc5" transform="translate(1340.5255126953125 699.3829345703125)" style="animation-play-state:paused" ></circle>
<path id="path27" d="M 438.69135001776453 619.8084737622228
c 0 30.47567166189039 -7.45681327897318 8.753650370968517 -16.210463649941698 8.753650370968517
S 406.27042271788116 650.2841454241131 406.27042271788116 619.8084737622228
s 7.45681327897318 -8.753650370968517 16.210463649941698 -8.753650370968517
S 438.69135001776453 589.3328021003324 438.69135001776453 619.8084737622228
z" fill="none" stroke="none" style="animation-play-state:paused" ></path>


<circle cx="0" cy="0" r="2.2889515498441817" fill="#7b6bc5" transform="translate(416.993896484375 608.7155151367188)" style="animation-play-state:paused" ></circle>
<path id="path28" d="M 320.3971398176605 296.71249635589237
c 0 23.63409097387094 -5.782809493606719 6.788515492494845 -12.571324986101564 6.788515492494845
S 295.2544898454574 320.34658732976334 295.2544898454574 296.71249635589237
s 5.782809493606719 -6.788515492494845 12.571324986101564 -6.788515492494845
S 320.3971398176605 273.0784053820214 320.3971398176605 296.71249635589237
z" fill="none" stroke="none" style="animation-play-state:paused" ></path>


<circle cx="0" cy="0" r="2.114466505824323" fill="#7b6bc5" transform="translate(317.9481201171875 284.11553955078125)" style="animation-play-state:paused" ></circle>
<path id="path29" d="M 937.2469837247196 493.37770593384084
c 0 33.60459678050122 -8.22240133990987 9.652384181633328 -17.8747855215432 9.652384181633328
S 901.4974126816331 526.982302714342 901.4974126816331 493.37770593384084
s 8.22240133990987 -9.652384181633328 17.8747855215432 -9.652384181633328
S 937.2469837247196 459.77310915333965 937.2469837247196 493.37770593384084
z" fill="none" stroke="none" style="animation-play-state:paused" ></path>


<circle cx="0" cy="0" r="2.4085991415453964" fill="#7b6bc5" transform="translate(931.10986328125 476.4640197753906)" style="animation-play-state:paused" ></circle>
<path id="path30" d="M 610.7644154326391 242.51327153877318
c 0 29.280545075795633 -7.164388688758505 8.410369330281725 -15.574758019040228 8.410369330281725
S 579.6148993945586 271.7938166145688 579.6148993945586 242.51327153877318
s 7.164388688758505 -8.410369330281725 15.574758019040228 -8.410369330281725
S 610.7644154326391 213.23272646297755 610.7644154326391 242.51327153877318
z" fill="none" stroke="none" style="animation-play-state:paused" ></path>


<circle cx="0" cy="0" r="2.275412517445522" fill="#a899f0" transform="translate(608.7971801757812 257.4978942871094)" style="animation-play-state:paused" ></circle>
<path id="path31" d="M 43.373965922261135 24.93655423482882
c 0 22.44854287562201 -5.492728575950066 6.447985719593556 -11.940714295543621 6.447985719593556
S 19.492537331173892 47.38509711045083 19.492537331173892 24.93655423482882
s 5.492728575950066 -6.447985719593556 11.940714295543621 -6.447985719593556
S 43.373965922261135 2.4880113592068085 43.373965922261135 24.93655423482882
z" fill="none" stroke="none" style="animation-play-state:paused" ></path>


<circle cx="0" cy="0" r="2.155637647371841" fill="#6e5eb8" transform="translate(31.397239685058594 31.38471031188965)" style="animation-play-state:paused" ></circle>
<path id="path32" d="M 232.14227371729535 326.94908393625514
c 0 30.13195839131168 -7.372713223406048 8.654924218781016 -16.027637442187064 8.654924218781016
S 200.08699883292124 357.0810423275668 200.08699883292124 326.94908393625514
s 7.372713223406048 -8.654924218781016 16.027637442187064 -8.654924218781016
S 232.14227371729535 296.81712554494345 232.14227371729535 326.94908393625514
z" fill="none" stroke="none" style="animation-play-state:paused" ></path>


<circle cx="0" cy="0" r="1.6901830209781001" fill="#6e5eb8" transform="translate(232.10552978515625 330.3874816894531)" style="animation-play-state:paused" ></circle>
<path id="path33" d="M 1017.2474597956851 156.5718217530425
c 0 34.46263477140212 -8.432346805768603 9.898841902424014 -18.331188708192617 9.898841902424014
S 980.5850823792999 191.03445652444464 980.5850823792999 156.5718217530425
s 8.432346805768603 -9.898841902424014 18.331188708192617 -9.898841902424014
S 1017.2474597956851 122.10918698164039 1017.2474597956851 156.5718217530425
z" fill="none" stroke="none" style="animation-play-state:paused" ></path>


<circle cx="0" cy="0" r="2.0666787620658984" fill="#6e5eb8" transform="translate(1017.1179809570312 163.14039611816406)" style="animation-play-state:paused" ></circle>
<path id="path34" d="M 1768.1351831321017 410.09993465621346
c 0 28.771269164342048 -7.039778625317735 8.26408795145995 -15.303866576777684 8.26408795145995
S 1737.5274499785464 438.87120382055554 1737.5274499785464 410.09993465621346
s 7.039778625317735 -8.26408795145995 15.303866576777684 -8.26408795145995
S 1768.1351831321017 381.3286654918714 1768.1351831321017 410.09993465621346
z" fill="none" stroke="none" style="animation-play-state:paused" ></path>


<circle cx="0" cy="0" r="1.9709931355549914" fill="#a899f0" transform="translate(1753.1876220703125 418.3768310546875)" style="animation-play-state:paused" ></circle>
<path id="path35" d="M 960.6031406506745 70.49489395609747
c 0 21.840582740235664 -5.343972372610853 6.273358872195351 -11.617331244806204 6.273358872195351
S 937.3684781610621 92.33547669633313 937.3684781610621 70.49489395609747
s 5.343972372610853 -6.273358872195351 11.617331244806204 -6.273358872195351
S 960.6031406506745 48.65431121586181 960.6031406506745 70.49489395609747
z" fill="none" stroke="none" style="animation-play-state:paused" ></path>


<circle cx="0" cy="0" r="2.1946005874197363" fill="#7b6bc5" transform="translate(959.643798828125 60.231327056884766)" style="animation-play-state:paused" ></circle>
<path id="path36" d="M 649.5693608394295 651.3986385472147
c 0 29.98599789437538 -7.336999484793975 8.61299939519293 -15.949998879986904 8.61299939519293
S 617.6693630794557 681.38463644159 617.6693630794557 651.3986385472147
s 7.336999484793975 -8.61299939519293 15.949998879986904 -8.61299939519293
S 649.5693608394295 621.4126406528393 649.5693608394295 651.3986385472147
z" fill="none" stroke="none" style="animation-play-state:paused" ></path>


<circle cx="0" cy="0" r="1.6788368650955237" fill="#7b6bc5" transform="translate(640.7095336914062 639.1099243164062)" style="animation-play-state:paused" ></circle>
<path id="path37" d="M 542.130368272715 348.548327273168
c 0 27.212494723722994 -6.658376368570519 7.8163548674523495 -14.474731236022869 7.8163548674523495
S 513.1809058006693 375.760821996891 513.1809058006693 348.548327273168
s 6.658376368570519 -7.8163548674523495 14.474731236022869 -7.8163548674523495
S 542.130368272715 321.335832549445 542.130368272715 348.548327273168
z" fill="none" stroke="none" style="animation-play-state:paused" ></path>


<circle cx="0" cy="0" r="2.105729233613391" fill="#7b6bc5" transform="translate(540.4832153320312 334.86248779296875)" style="animation-play-state:paused" ></circle>
<path id="path38" d="M 1334.5741678075785 401.2625475158761
c 0 32.81681649094004 -8.029646588208733 9.42610686441895 -17.455753452627683 9.42610686441895
S 1299.662660902323 434.07936400681615 1299.662660902323 401.2625475158761
s 8.029646588208733 -9.42610686441895 17.455753452627683 -9.42610686441895
S 1334.5741678075785 368.4457310249361 1334.5741678075785 401.2625475158761
z" fill="none" stroke="none" style="animation-play-state:paused" ></path>


<circle cx="0" cy="0" r="2.228718804462277" fill="#a899f0" transform="translate(1299.767578125 407.0834655761719)" style="animation-play-state:paused" ></circle>
<path id="path39" d="M 1786.934029682873 311.77614334012014
c 0 27.813025993795247 -6.805314870822241 7.988847891834805 -14.794162762657045 7.988847891834805
S 1757.3457041575587 339.5891693339154 1757.3457041575587 311.77614334012014
s 6.805314870822241 -7.988847891834805 14.794162762657045 -7.988847891834805
S 1786.934029682873 283.9631173463249 1786.934029682873 311.77614334012014
z" fill="none" stroke="none" style="animation-play-state:paused" ></path>


<circle cx="0" cy="0" r="2.3271718479865213" fill="#a899f0" transform="translate(1773.32080078125 303.64862060546875)" style="animation-play-state:paused" ></circle>
<path id="path40" d="M 1168.7626142975362 225.63480554559038
c 0 20.23554879124798 -4.951251299986207 5.812338482592504 -10.76358978257871 5.812338482592504
S 1147.2354347323787 245.87035433683837 1147.2354347323787 225.63480554559038
s 4.951251299986207 -5.812338482592504 10.76358978257871 -5.812338482592504
S 1168.7626142975362 205.3992567543424 1168.7626142975362 225.63480554559038
z" fill="none" stroke="none" style="animation-play-state:paused" ></path>


<circle cx="0" cy="0" r="2.006181989309938" fill="#a899f0" transform="translate(1167.7840576171875 215.9105224609375)" style="animation-play-state:paused" ></circle>
<path id="path41" d="M 321.4563177194918 240.68096769194267
c 0 22.370647659677964 -5.473669108219076 6.425611561822394 -11.89928067004147 6.425611561822394
S 297.6577563794088 263.0516153516206 297.6577563794088 240.68096769194267
s 5.473669108219076 -6.425611561822394 11.89928067004147 -6.425611561822394
S 321.4563177194918 218.3103200322647 321.4563177194918 240.68096769194267
z" fill="none" stroke="none" style="animation-play-state:paused" ></path>


<circle cx="0" cy="0" r="2.356100013344879" fill="#a899f0" transform="translate(302.7091979980469 230.17123413085938)" style="animation-play-state:paused" ></circle>
<path id="path42" d="M 1656.944831727268 457.744640130401
c 0 20.80959740438046 -5.091710003199474 5.9772247863646015 -11.068934789564075 5.9772247863646015
S 1634.8069621481397 478.55423753478146 1634.8069621481397 457.744640130401
s 5.091710003199474 -5.9772247863646015 11.068934789564075 -5.9772247863646015
S 1656.944831727268 436.9350427260206 1656.944831727268 457.744640130401
z" fill="none" stroke="none" style="animation-play-state:paused" ></path>


<circle cx="0" cy="0" r="1.37594530928197" fill="#6e5eb8" transform="translate(1637.8931884765625 468.6416931152344)" style="animation-play-state:paused" ></circle>
<path id="path43" d="M 914.2098425824986 619.09636688399
c 0 28.73722543745253 -7.031448777249023 8.254309434161897 -15.28575821141092 8.254309434161897
S 883.6383261596768 647.8335923214424 883.6383261596768 619.09636688399
s 7.031448777249023 -8.254309434161897 15.28575821141092 -8.254309434161897
S 914.2098425824986 590.3591414465375 914.2098425824986 619.09636688399
z" fill="none" stroke="none" style="animation-play-state:paused" ></path>


<circle cx="0" cy="0" r="1.723067055965413" fill="#7b6bc5" transform="translate(903.69921875 608.9301147460938)" style="animation-play-state:paused" ></circle>
<path id="path44" d="M 306.0340826828151 16.913985778710753
c 0 32.58152839063524 -7.972076095580963 9.35852411220374 -17.330600207784702 9.35852411220374
S 271.3728822672457 49.495514169345995 271.3728822672457 16.913985778710753
s 7.972076095580963 -9.35852411220374 17.330600207784702 -9.35852411220374
S 306.0340826828151 -15.667542611924489 306.0340826828151 16.913985778710753
z" fill="none" stroke="none" style="animation-play-state:paused" ></path>


<circle cx="0" cy="0" r="1.6930700541693637" fill="#6e5eb8" transform="translate(277.41851806640625 0.5820819735527039)" style="animation-play-state:paused" ></circle>
<path id="path45" d="M 603.6153449233963 530.6690850516801
c 0 35.95343663677289 -8.79711747495507 10.3270509488603 -19.12416842381537 10.3270509488603
S 565.3670080757655 566.6225216884529 565.3670080757655 530.6690850516801
s 8.79711747495507 -10.3270509488603 19.12416842381537 -10.3270509488603
S 603.6153449233963 494.7156484149072 603.6153449233963 530.6690850516801
z" fill="none" stroke="none" style="animation-play-state:paused" ></path>


<circle cx="0" cy="0" r="1.9375108255114797" fill="#7b6bc5" transform="translate(589.5897827148438 518.54833984375)" style="animation-play-state:paused" ></circle>
<path id="path46" d="M 1518.4994346974856 133.12779171714817
c 0 32.428273971465934 -7.934577673869323 9.314504225846598 -17.24908189971592 9.314504225846598
S 1484.0012708980537 165.5560656886141 1484.0012708980537 133.12779171714817
s 7.934577673869323 -9.314504225846598 17.24908189971592 -9.314504225846598
S 1518.4994346974856 100.69951774568224 1518.4994346974856 133.12779171714817
z" fill="none" stroke="none" style="animation-play-state:paused" ></path>


<circle cx="0" cy="0" r="2.463013981682888" fill="#a899f0" transform="translate(1484.114013671875 139.10504150390625)" style="animation-play-state:paused" ></circle>
<path id="path47" d="M 232.44546125562408 609.3020722447773
c 0 26.927025578132636 -6.588527535075006 7.734358410740225 -14.322885945815232 7.734358410740225
S 203.7996893639936 636.2290978229099 203.7996893639936 609.3020722447773
s 6.588527535075006 -7.734358410740225 14.322885945815232 -7.734358410740225
S 232.44546125562408 582.3750466666446 232.44546125562408 609.3020722447773
z" fill="none" stroke="none" style="animation-play-state:paused" ></path>


<circle cx="0" cy="0" r="2.339932778586953" fill="#6e5eb8" transform="translate(221.04454040527344 600.7509765625)" style="animation-play-state:paused" ></circle>
<path id="path48" d="M 460.9925689545202 46.69582644990692
c 0 30.478969466924998 -7.45762018871569 8.75459761284016 -16.21221780155585 8.75459761284016
S 428.56813335140856 77.17479591683191 428.56813335140856 46.69582644990692
s 7.45762018871569 -8.75459761284016 16.21221780155585 -8.75459761284016
S 460.9925689545202 16.21685698298192 460.9925689545202 46.69582644990692
z" fill="none" stroke="none" style="animation-play-state:paused" ></path>


<circle cx="0" cy="0" r="2.310777390314423" fill="#7b6bc5" transform="translate(437.89971923828125 34.48213195800781)" style="animation-play-state:paused" ></circle>
<path id="path49" d="M 1426.0999012276097 146.90640630688532
c 0 26.565360819219432 -6.500035094064328 7.630475979988561 -14.13051107405289 7.630475979988561
S 1397.8388790795038 173.47176712610474 1397.8388790795038 146.90640630688532
s 6.500035094064328 -7.630475979988561 14.13051107405289 -7.630475979988561
S 1426.0999012276097 120.34104548766588 1426.0999012276097 146.90640630688532
z" fill="none" stroke="none" style="animation-play-state:paused" ></path>


<circle cx="0" cy="0" r="1.9389226678655158" fill="#6e5eb8" transform="translate(1424.8497314453125 134.2186737060547)" style="animation-play-state:paused" ></circle>
<path id="path50" d="M 1411.4824232506808 453.60098293966644
c 0 21.03589120777461 -5.147079763604426 6.04222407031824 -11.189303833922665 6.04222407031824
S 1389.1038155828355 474.63687414744106 1389.1038155828355 453.60098293966644
s 5.147079763604426 -6.04222407031824 11.189303833922665 -6.04222407031824
S 1411.4824232506808 432.5650917318918 1411.4824232506808 453.60098293966644
z" fill="none" stroke="none" style="animation-play-state:paused" ></path>


<circle cx="0" cy="0" r="1.974122322634484" fill="#a899f0" transform="translate(1406.6971435546875 443.7479248046875)" style="animation-play-state:paused" ></circle>
<path id="path51" d="M 1553.157528191701 185.568344893901
c 0 33.53350101461311 -8.205005567405335 9.631963057388873 -17.836968624794206 9.631963057388873
S 1517.4835909421124 219.10184590851412 1517.4835909421124 185.568344893901
s 8.205005567405335 -9.631963057388873 17.836968624794206 -9.631963057388873
S 1553.157528191701 152.0348438792879 1553.157528191701 185.568344893901
z" fill="none" stroke="none" style="animation-play-state:paused" ></path>


<circle cx="0" cy="0" r="1.3659065400333175" fill="#6e5eb8" transform="translate(1539.3079833984375 196.4078826904297)" style="animation-play-state:paused" ></circle>
<path id="path52" d="M 327.892340164509 468.58480460230084
c 0 33.62398198352717 -8.227144527884306 9.657952271864188 -17.885096799748496 9.657952271864188
S 292.122146565012 502.208786585828 292.122146565012 468.58480460230084
s 8.227144527884306 -9.657952271864188 17.885096799748496 -9.657952271864188
S 327.892340164509 434.96082261877365 327.892340164509 468.58480460230084
z" fill="none" stroke="none" style="animation-play-state:paused" ></path>


<circle cx="0" cy="0" r="2.46188476995449" fill="#7b6bc5" transform="translate(292.3070983886719 476.14715576171875)" style="animation-play-state:paused" ></circle>
<path id="path53" d="M 423.36272650589484 26.994674318765938
c 0 21.20747059022568 -5.189061952927559 6.09150750995844 -11.280569462886 6.09150750995844
S 400.8015875801229 48.20214490899161 400.8015875801229 26.994674318765938
s 5.189061952927559 -6.09150750995844 11.280569462886 -6.09150750995844
S 423.36272650589484 5.787203728540259 423.36272650589484 26.994674318765938
z" fill="none" stroke="none" style="animation-play-state:paused" ></path>


<circle cx="0" cy="0" r="1.6724025784093999" fill="#6e5eb8" transform="translate(423.2729797363281 22.734010696411133)" style="animation-play-state:paused" ></circle></g></svg>