<?xml version="1.0" encoding="utf-8"?><svg xmlns="http://www.w3.org/2000/svg" xmlns:xlink="http://www.w3.org/1999/xlink" width="1775" height="704" preserveAspectRatio="xMidYMid" viewBox="0 0 1775 704" style="z-index:1;margin-right:-2px;display:block;background-repeat-y:initial;background-repeat-x:initial;animation-play-state:paused" ><g transform="translate(887.5,352) scale(1,1) translate(-887.5,-352)" style="transform:matrix(1, 0, 0, 1, 0, 0);animation-play-state:paused" ><path id="path0" d="M 355.67596078553464 637.1074000775641
c 0 22.31080522185902 -5.4590268096038015 6.40842277649142 -11.867449586095223 6.40842277649142
S 331.9410616133442 659.4182052994231 331.9410616133442 637.1074000775641
s 5.4590268096038015 -6.40842277649142 11.867449586095223 -6.40842277649142
S 355.67596078553464 614.796594855705 355.67596078553464 637.1074000775641
z" fill="none" stroke="none" style="animation-play-state:paused" ></path>


<circle cx="0" cy="0" r="1.968681550811018" fill="#6e5eb8" transform="translate(347.6236572265625 645.07861328125)" style="animation-play-state:paused" ></circle>
<path id="path1" d="M 202.26210375434755 189.04449301630873
c 0 34.005303623501 -8.32044663128216 9.767480828026883 -18.087927459309043 9.767480828026883
S 166.08624883572946 223.04979663980973 166.08624883572946 189.04449301630873
s 8.32044663128216 -9.767480828026883 18.087927459309043 -9.767480828026883
S 202.26210375434755 155.03918939280774 202.26210375434755 189.04449301630873
z" fill="none" stroke="none" style="animation-play-state:paused" ></path>


<circle cx="0" cy="0" r="1.60689257803236" fill="#a899f0" transform="translate(201.78936767578125 200.1486053466797)" style="animation-play-state:paused" ></circle>
<path id="path2" d="M 315.7922010570211 446.5783988853267
c 0 29.81032264775741 -7.294015115940642 8.56253948393032 -15.856554599870963 8.56253948393032
S 284.0790918572792 476.3887215330841 284.0790918572792 446.5783988853267
s 7.294015115940642 -8.56253948393032 15.856554599870963 -8.56253948393032
S 315.7922010570211 416.7680762375693 315.7922010570211 446.5783988853267
z" fill="none" stroke="none" style="animation-play-state:paused" ></path>


<circle cx="0" cy="0" r="1.3885270638728062" fill="#7b6bc5" transform="translate(311.5408935546875 462.26416015625)" style="animation-play-state:paused" ></circle>
<path id="path3" d="M 442.3816098530619 547.3872471834219
c 0 29.55329301155884 -7.231124885806949 8.488711822469028 -15.719836708275977 8.488711822469028
S 410.94193643650993 576.9405401949807 410.94193643650993 547.3872471834219
s 7.231124885806949 -8.488711822469028 15.719836708275977 -8.488711822469028
S 442.3816098530619 517.8339541718631 442.3816098530619 547.3872471834219
z" fill="none" stroke="none" style="animation-play-state:paused" ></path>


<circle cx="0" cy="0" r="1.6332680683237062" fill="#7b6bc5" transform="translate(414.2440185546875 563.151611328125)" style="animation-play-state:paused" ></circle>
<path id="path4" d="M 1733.6135027023633 366.19065483241104
c 0 23.908000141321146 -5.84982982181262 6.8671915299539465 -12.717021351766567 6.8671915299539465
S 1708.1794599988302 390.0986549737322 1708.1794599988302 366.19065483241104
s 5.84982982181262 -6.8671915299539465 12.717021351766567 -6.8671915299539465
S 1733.6135027023633 342.2826546910899 1733.6135027023633 366.19065483241104
z" fill="none" stroke="none" style="animation-play-state:paused" ></path>


<circle cx="0" cy="0" r="1.6517106552579592" fill="#7b6bc5" transform="translate(1733.578125 363.2166442871094)" style="animation-play-state:paused" ></circle>
<path id="path5" d="M 728.3501317847332 132.85800338465953
c 0 23.734633810696977 -5.807410400489686 6.817394817966154 -12.624805218455839 6.817394817966154
S 703.1005213478214 156.5926371953565 703.1005213478214 132.85800338465953
s 5.807410400489686 -6.817394817966154 12.624805218455839 -6.817394817966154
S 728.3501317847332 109.12336957396255 728.3501317847332 132.85800338465953
z" fill="none" stroke="none" style="animation-play-state:paused" ></path>


<circle cx="0" cy="0" r="1.8284979578998901" fill="#7b6bc5" transform="translate(703.5607299804688 141.59121704101562)" style="animation-play-state:paused" ></circle>
<path id="path6" d="M 1674.02434035444 389.7136479918232
c 0 26.653229734778748 -6.5215349351054375 7.655714923819428 -14.177249858924865 7.655714923819428
S 1645.6698406365904 416.36687772660196 1645.6698406365904 389.7136479918232
s 6.5215349351054375 -7.655714923819428 14.177249858924865 -7.655714923819428
S 1674.02434035444 363.0604182570445 1674.02434035444 389.7136479918232
z" fill="none" stroke="none" style="animation-play-state:paused" ></path>


<circle cx="0" cy="0" r="1.039404432963798" fill="#7b6bc5" transform="translate(1654.1781005859375 379.3226013183594)" style="animation-play-state:paused" ></circle>
<path id="path7" d="M 1496.8577356651738 16.115103682486172
c 0 31.68238106037822 -7.752071961581904 9.100258389683106 -16.85233035126501 9.100258389683106
S 1463.1530749626438 47.79748474286439 1463.1530749626438 16.115103682486172
s 7.752071961581904 -9.100258389683106 16.85233035126501 -9.100258389683106
S 1496.8577356651738 -15.567277377892047 1496.8577356651738 16.115103682486172
z" fill="none" stroke="none" style="animation-play-state:paused" ></path>


<circle cx="0" cy="0" r="1.071296518332689" fill="#7b6bc5" transform="translate(1483.74755859375 26.341758728027344)" style="animation-play-state:paused" ></circle>
<path id="path8" d="M 132.47775780132483 360.55990347975
c 0 31.759176238323786 -7.770862271079223 9.122316579093003 -16.893178850172227 9.122316579093003
S 98.69140010098036 392.3190797180738 98.69140010098036 360.55990347975
s 7.770862271079223 -9.122316579093003 16.893178850172227 -9.122316579093003
S 132.47775780132483 328.8007272414262 132.47775780132483 360.55990347975
z" fill="none" stroke="none" style="animation-play-state:paused" ></path>


<circle cx="0" cy="0" r="1.36855366305254" fill="#6e5eb8" transform="translate(98.7039794921875 362.6901550292969)" style="animation-play-state:paused" ></circle>
<path id="path9" d="M 1552.9187461005863 307.6434010100046
c 0 28.03967419951069 -6.860771346688785 8.053948972199878 -14.914720318888664 8.053948972199878
S 1523.089305462809 335.68307520951527 1523.089305462809 307.6434010100046
s 6.860771346688785 -8.053948972199878 14.914720318888664 -8.053948972199878
S 1552.9187461005863 279.6037268104939 1552.9187461005863 307.6434010100046
z" fill="none" stroke="none" style="animation-play-state:paused" ></path>


<circle cx="0" cy="0" r="1.4717196847331278" fill="#6e5eb8" transform="translate(1523.20556640625 313.2225036621094)" style="animation-play-state:paused" ></circle>
<path id="path10" d="M 759.6173868515721 300.59574122809977
c 0 26.331547480871112 -6.442825447447186 7.5633168296119155 -14.006142277059102 7.5633168296119155
S 731.6051022974539 326.9272887089709 731.6051022974539 300.59574122809977
s 6.442825447447186 -7.5633168296119155 14.006142277059102 -7.5633168296119155
S 759.6173868515721 274.26419374722866 759.6173868515721 300.59574122809977
z" fill="none" stroke="none" style="animation-play-state:paused" ></path>


<circle cx="0" cy="0" r="1.1064645465099932" fill="#7b6bc5" transform="translate(747.662841796875 292.60675048828125)" style="animation-play-state:paused" ></circle>
<path id="path11" d="M 1219.3829206524115 494.10801666578595
c 0 26.035483665053356 -6.370384301023692 7.478277222940857 -13.84866152396455 7.478277222940857
S 1191.6855976044826 520.1435003308393 1191.6855976044826 494.10801666578595
s 6.370384301023692 -7.478277222940857 13.84866152396455 -7.478277222940857
S 1219.3829206524115 468.0725330007326 1219.3829206524115 494.10801666578595
z" fill="none" stroke="none" style="animation-play-state:paused" ></path>


<circle cx="0" cy="0" r="1.3525980905070984" fill="#a899f0" transform="translate(1204.349853515625 486.4813232421875)" style="animation-play-state:paused" ></circle>
<path id="path12" d="M 1424.9400980662965 208.084993331713
c 0 21.268677822108348 -5.204038190515872 6.10908831060559 -11.313126501121463 6.10908831060559
S 1402.3138450640538 229.35367115382135 1402.3138450640538 208.084993331713
s 5.204038190515872 -6.10908831060559 11.313126501121463 -6.10908831060559
S 1424.9400980662965 186.81631550960466 1424.9400980662965 208.084993331713
z" fill="none" stroke="none" style="animation-play-state:paused" ></path>


<circle cx="0" cy="0" r="1.3170342019765269" fill="#a899f0" transform="translate(1424.93701171875 208.86798095703125)" style="animation-play-state:paused" ></circle>
<path id="path13" d="M 404.14487318732915 207.80018716762905
c 0 26.603616041853464 -6.509395414496059 7.641464182234506 -14.150859596730566 7.641464182234506
S 375.843153993868 234.4038032094825 375.843153993868 207.80018716762905
s 6.509395414496059 -7.641464182234506 14.150859596730566 -7.641464182234506
S 404.14487318732915 181.1965711257756 404.14487318732915 207.80018716762905
z" fill="none" stroke="none" style="animation-play-state:paused" ></path>


<circle cx="0" cy="0" r="1.5445076011587138" fill="#7b6bc5" transform="translate(404.1437072753906 208.39999389648438)" style="animation-play-state:paused" ></circle>
<path id="path14" d="M 454.37529156295085 193.05377926295688
c 0 24.246044664856214 -5.932542843528648 6.964289425011891 -12.896832268540539 6.964289425011891
S 428.58162702586975 217.2998239278131 428.58162702586975 193.05377926295688
s 5.932542843528648 -6.964289425011891 12.896832268540539 -6.964289425011891
S 454.37529156295085 168.80773459810067 454.37529156295085 193.05377926295688
z" fill="none" stroke="none" style="animation-play-state:paused" ></path>


<circle cx="0" cy="0" r="1.6452276420847483" fill="#7b6bc5" transform="translate(454.3477478027344 190.3710174560547)" style="animation-play-state:paused" ></circle></g></svg>