<?xml version="1.0" encoding="utf-8"?><svg xmlns="http://www.w3.org/2000/svg" xmlns:xlink="http://www.w3.org/1999/xlink" width="1775" height="657" preserveAspectRatio="xMidYMid" viewBox="0 0 1775 657" style="z-index:1;margin-right:-2px;display:block;background-repeat-y:initial;background-repeat-x:initial;background-color:rgb(241, 242, 243);animation-play-state:paused" ><g transform="translate(887.5,328.5) scale(1,1) translate(-887.5,-328.5)" style="transform:matrix(1, 0, 0, 1, 0, 0);animation-play-state:paused" ><path id="path0" d="M 1132.7172064997 120.36802921589418
c 0 30.278418812101563 -7.408549283812083 8.696992637518534 -16.105541921330616 8.696992637518534
S 1100.506122657039 150.64644802799575 1100.506122657039 120.36802921589418
s 7.408549283812083 -8.696992637518534 16.105541921330616 -8.696992637518534
S 1132.7172064997 90.08961040379262 1132.7172064997 120.36802921589418
z" fill="none" stroke="none" style="animation-play-state:paused" ></path>


<circle cx="0" cy="0" r="0.5155709618211338" fill="#7b6bc5" transform="translate(1102.6640625 135.9983367919922)" style="animation-play-state:paused" ></circle>
<path id="path1" d="M 1765.5493116800285 277.7421246578995
c 0 29.205118907190734 -7.1459333496317745 8.388704366959042 -15.534637716590815 8.388704366959042
S 1734.4800362468468 306.9472435650903 1734.4800362468468 277.7421246578995
s 7.1459333496317745 -8.388704366959042 15.534637716590815 -8.388704366959042
S 1765.5493116800285 248.5370057507088 1765.5493116800285 277.7421246578995
z" fill="none" stroke="none" style="animation-play-state:paused" ></path>


<circle cx="0" cy="0" r="0.7116342661612302" fill="#7b6bc5" transform="translate(1756.5294189453125 289.3799743652344)" style="animation-play-state:paused" ></circle>
<path id="path2" d="M 115.43676043772652 135.98121164175706
c 0 19.032361658583042 -4.656854448376701 5.466742178529172 -10.123596626905872 5.466742178529172
S 95.18956718391479 155.0135733003401 95.18956718391479 135.98121164175706
s 4.656854448376701 -5.466742178529172 10.123596626905872 -5.466742178529172
S 115.43676043772652 116.94884998317401 115.43676043772652 135.98121164175706
z" fill="none" stroke="none" style="animation-play-state:paused" ></path>


<circle cx="0" cy="0" r="0.6426577509037016" fill="#7b6bc5" transform="translate(95.57599639892578 128.8648223876953)" style="animation-play-state:paused" ></circle>
<path id="path3" d="M 237.16429094541914 106.97679094194467
c 0 19.505304208860814 -4.772574434082965 5.602587379140872 -10.375161813223837 5.602587379140872
S 216.4139673189715 126.48209515080549 216.4139673189715 106.97679094194467
s 4.772574434082965 -5.602587379140872 10.375161813223837 -5.602587379140872
S 237.16429094541914 87.47148673308385 237.16429094541914 106.97679094194467
z" fill="none" stroke="none" style="animation-play-state:paused" ></path>


<circle cx="0" cy="0" r="0.663633739617867" fill="#7b6bc5" transform="translate(217.01829528808594 98.63191986083984)" style="animation-play-state:paused" ></circle>
<path id="path4" d="M 596.0982137623861 24.099383433946283
c 0 33.64382187751603 -8.231998970030519 9.663650964818435 -17.895649934848954 9.663650964818435
S 560.3069138926882 57.74320531146232 560.3069138926882 24.099383433946283
s 8.231998970030519 -9.663650964818435 17.895649934848954 -9.663650964818435
S 596.0982137623861 -9.54443844356975 596.0982137623861 24.099383433946283
z" fill="none" stroke="none" style="animation-play-state:paused" ></path>


<circle cx="0" cy="0" r="0.7624024502029032" fill="#7b6bc5" transform="translate(573.8492431640625 13.018223762512207)" style="animation-play-state:paused" ></circle>
<path id="path5" d="M 329.9543395282413 590.1449404971972
c 0 32.20154262045649 -7.879100853941482 9.249379263322611 -17.128480117264093 9.249379263322611
S 295.69737929371314 622.3464831176537 295.69737929371314 590.1449404971972
s 7.879100853941482 -9.249379263322611 17.128480117264093 -9.249379263322611
S 329.9543395282413 557.9433978767407 329.9543395282413 590.1449404971972
z" fill="none" stroke="none" style="animation-play-state:paused" ></path>


<circle cx="0" cy="0" r="0.8299944493320209" fill="#7b6bc5" transform="translate(329.94580078125 588.4013061523438)" style="animation-play-state:paused" ></circle>
<path id="path6" d="M 1682.7829356114305 308.60482118804566
c 0 18.850222093750613 -4.612288384641107 5.414425495013474 -10.026713879654581 5.414425495013474
S 1662.7295078521213 327.4550432817963 1662.7295078521213 308.60482118804566
s 4.612288384641107 -5.414425495013474 10.026713879654581 -5.414425495013474
S 1682.7829356114305 289.75459909429503 1682.7829356114305 308.60482118804566
z" fill="none" stroke="none" style="animation-play-state:paused" ></path>


<circle cx="0" cy="0" r="0.7039359873395254" fill="#7b6bc5" transform="translate(1674.6029052734375 314.4907531738281)" style="animation-play-state:paused" ></circle>
<path id="path7" d="M 498.06360301956363 129.86815320904455
c 0 37.04889468970563 -9.065155083651376 10.641703793851617 -19.70685887750299 10.641703793851617
S 458.6498852645576 166.91704789875018 458.6498852645576 129.86815320904455
s 9.065155083651376 -10.641703793851617 19.70685887750299 -10.641703793851617
S 498.06360301956363 92.81925851933892 498.06360301956363 129.86815320904455
z" fill="none" stroke="none" style="animation-play-state:paused" ></path>


<circle cx="0" cy="0" r="0.7303186333623304" fill="#7b6bc5" transform="translate(495.717041015625 148.64830017089844)" style="animation-play-state:paused" ></circle>
<path id="path8" d="M 1230.1279134950057 345.07735840302536
c 0 34.33148456794119 -8.400256862368588 9.861171099302256 -18.261427961670844 9.861171099302256
S 1193.6050575716642 379.40884297096653 1193.6050575716642 345.07735840302536
s 8.400256862368588 -9.861171099302256 18.261427961670844 -9.861171099302256
S 1230.1279134950057 310.7458738350842 1230.1279134950057 345.07735840302536
z" fill="none" stroke="none" style="animation-play-state:paused" ></path>


<circle cx="0" cy="0" r="0.8890892115064307" fill="#7b6bc5" transform="translate(1204.2908935546875 358.68865966796875)" style="animation-play-state:paused" ></circle>
<path id="path9" d="M 1455.212650358318 534.8035342211322
c 0 23.371394567675793 -5.71853271336748 6.713060141779217 -12.431592855146699 6.713060141779217
S 1430.3494646480247 558.174928788808 1430.3494646480247 534.8035342211322
s 5.71853271336748 -6.713060141779217 12.431592855146699 -6.713060141779217
S 1455.212650358318 511.4321396534564 1455.212650358318 534.8035342211322
z" fill="none" stroke="none" style="animation-play-state:paused" ></path>


<circle cx="0" cy="0" r="0.7043292052601147" fill="#7b6bc5" transform="translate(1438.318359375 543.506591796875)" style="animation-play-state:paused" ></circle>
<path id="path10" d="M 263.47541035078405 298.24487167561176
c 0 32.35226256041102 -7.915979137121845 9.292671160969123 -17.20865029809097 9.292671160969123
S 229.05810975460213 330.5971342360228 229.05810975460213 298.24487167561176
s 7.915979137121845 -9.292671160969123 17.20865029809097 -9.292671160969123
S 263.47541035078405 265.89260911520074 263.47541035078405 298.24487167561176
z" fill="none" stroke="none" style="animation-play-state:paused" ></path>


<circle cx="0" cy="0" r="0.5583906017356959" fill="#7b6bc5" transform="translate(254.69451904296875 312.175537109375)" style="animation-play-state:paused" ></circle>
<path id="path11" d="M 1733.2886023613084 475.4503194999055
c 0 22.19556888443278 -5.430830684488871 6.375322977443459 -11.806153661932331 6.375322977443459
S 1709.6762950374439 497.64588838433826 1709.6762950374439 475.4503194999055
s 5.430830684488871 -6.375322977443459 11.806153661932331 -6.375322977443459
S 1733.2886023613084 453.25475061547274 1733.2886023613084 475.4503194999055
z" fill="none" stroke="none" style="animation-play-state:paused" ></path>


<circle cx="0" cy="0" r="0.5421180798831549" fill="#7b6bc5" transform="translate(1721.471923828125 469.07489013671875)" style="animation-play-state:paused" ></circle>
<path id="path12" d="M 1643.9934910979348 447.8062949468452
c 0 36.02734645962667 -8.815201793312907 10.34828036606298 -19.163482159375885 10.34828036606298
S 1605.666526779183 483.8336414064719 1605.666526779183 447.8062949468452
s 8.815201793312907 -10.34828036606298 19.163482159375885 -10.34828036606298
S 1643.9934910979348 411.7789484872185 1643.9934910979348 447.8062949468452
z" fill="none" stroke="none" style="animation-play-state:paused" ></path>


<circle cx="0" cy="0" r="0.8772698640053121" fill="#7b6bc5" transform="translate(1627.30810546875 458.61285400390625)" style="animation-play-state:paused" ></circle>
<path id="path13" d="M 276.0652667679688 519.0410654203848
c 0 22.764327451695845 -5.569995014776642 6.53868979995519 -12.10868481473183 6.53868979995519
S 251.84789713850518 541.8053928720807 251.84789713850518 519.0410654203848
s 5.569995014776642 -6.53868979995519 12.10868481473183 -6.53868979995519
S 276.0652667679688 496.27673796868896 276.0652667679688 519.0410654203848
z" fill="none" stroke="none" style="animation-play-state:paused" ></path>


<circle cx="0" cy="0" r="0.5762556729245045" fill="#7b6bc5" transform="translate(251.87730407714844 521.7064819335938)" style="animation-play-state:paused" ></circle>
<path id="path14" d="M 1363.820059863611 103.92976835139375
c 0 36.76335662593265 -8.995289387196285 10.559687541491293 -19.55497692868758 10.559687541491293
S 1324.7101060062357 140.6931249773264 1324.7101060062357 103.92976835139375
s 8.995289387196285 -10.559687541491293 19.55497692868758 -10.559687541491293
S 1363.820059863611 67.1664117254611 1363.820059863611 103.92976835139375
z" fill="none" stroke="none" style="animation-play-state:paused" ></path>


<circle cx="0" cy="0" r="0.913085679602763" fill="#7b6bc5" transform="translate(1362.4237060546875 120.5802993774414)" style="animation-play-state:paused" ></circle>
<path id="path15" d="M 1253.3970296624111 606.9643296509773
c 0 33.09211751963537 -8.097007478208655 9.50518269181016 -17.602190170018815 9.50518269181016
S 1218.1926493223737 640.0564471706127 1218.1926493223737 606.9643296509773
s 8.097007478208655 -9.50518269181016 17.602190170018815 -9.50518269181016
S 1253.3970296624111 573.8722121313419 1253.3970296624111 606.9643296509773
z" fill="none" stroke="none" style="animation-play-state:paused" ></path>


<circle cx="0" cy="0" r="0.8808661884170773" fill="#7b6bc5" transform="translate(1231.599853515625 596.1166381835938)" style="animation-play-state:paused" ></circle>
<path id="path16" d="M 1416.7119198032292 637.2926380930718
c 0 37.42230782677467 -9.156522127827843 10.748960758754427 -19.90548288658227 10.748960758754427
S 1376.9009540300644 674.7149459198465 1376.9009540300644 637.2926380930718
s 9.156522127827843 -10.748960758754427 19.90548288658227 -10.748960758754427
S 1416.7119198032292 599.8703302662971 1416.7119198032292 637.2926380930718
z" fill="none" stroke="none" style="animation-play-state:paused" ></path>


<circle cx="0" cy="0" r="0.9547340303646709" fill="#7b6bc5" transform="translate(1416.3704833984375 626.9190063476562)" style="animation-play-state:paused" ></circle>
<path id="path17" d="M 867.3324188839442 274.0406868467375
c 0 34.25638963914203 -8.381882571279432 9.83960127932803 -18.22148385060746 9.83960127932803
S 830.8894511827293 308.29707648587953 830.8894511827293 274.0406868467375
s 8.381882571279432 -9.83960127932803 18.22148385060746 -9.83960127932803
S 867.3324188839442 239.7842972075955 867.3324188839442 274.0406868467375
z" fill="none" stroke="none" style="animation-play-state:paused" ></path>


<circle cx="0" cy="0" r="0.9374684386259959" fill="#7b6bc5" transform="translate(848.0028076171875 283.9804992675781)" style="animation-play-state:paused" ></circle>
<path id="path18" d="M 1080.453894437835 228.2370487112419
c 0 29.939470963164062 -7.325615235667802 8.599635276653508 -15.925250512321309 8.599635276653508
S 1048.6033934131924 258.17651967440594 1048.6033934131924 228.2370487112419
s 7.325615235667802 -8.599635276653508 15.925250512321309 -8.599635276653508
S 1080.453894437835 198.29757774807783 1080.453894437835 228.2370487112419
z" fill="none" stroke="none" style="animation-play-state:paused" ></path>


<circle cx="0" cy="0" r="0.9297823367778161" fill="#7b6bc5" transform="translate(1061.493408203125 237.63555908203125)" style="animation-play-state:paused" ></circle>
<path id="path19" d="M 765.3714257300811 109.50111384522472
c 0 21.370474470474303 -5.228945881073499 6.138327773434109 -11.367273654507608 6.138327773434109
S 742.636878421066 130.87158831569903 742.636878421066 109.50111384522472
s 5.228945881073499 -6.138327773434109 11.367273654507608 -6.138327773434109
S 765.3714257300811 88.13063937475042 765.3714257300811 109.50111384522472
z" fill="none" stroke="none" style="animation-play-state:paused" ></path>


<circle cx="0" cy="0" r="0.6298456431009892" fill="#7b6bc5" transform="translate(742.6373291015625 109.74427795410156)" style="animation-play-state:paused" ></circle></g></svg>