<?xml version="1.0" encoding="utf-8"?><svg xmlns="http://www.w3.org/2000/svg" xmlns:xlink="http://www.w3.org/1999/xlink" width="1775" height="657" preserveAspectRatio="xMidYMid" viewBox="0 0 1775 657" style="z-index:1;margin-right:-2px;display:block;background-repeat-y:initial;background-repeat-x:initial;animation-play-state:paused" ><g transform="translate(887.5,328.5) scale(1,1) translate(-887.5,-328.5)" style="transform:matrix(1, 0, 0, 1, 0, 0);animation-play-state:paused" ><path id="path0" d="M 535.6107071921616 73.8772653504341
c 0 32.921253820156 -8.055200402804127 9.456104820683105 -17.511305223487234 9.456104820683105
S 500.5880967451871 106.7985191705901 500.5880967451871 73.8772653504341
s 8.055200402804127 -9.456104820683105 17.511305223487234 -9.456104820683105
S 535.6107071921616 40.956011530278104 535.6107071921616 73.8772653504341
z" fill="none" stroke="none" style="animation-play-state:paused" ></path>


<circle cx="0" cy="0" r="0.5879397171818892" fill="#7b6bc5" transform="translate(500.588134765625 73.89826202392578)" style="animation-play-state:paused" ></circle>
<path id="path1" d="M 1249.198688249045 566.733754564701
c 0 21.88567821380839 -5.355006371463754 6.286311827370495 -11.641318198834249 6.286311827370495
S 1225.9160518513768 588.6194327785095 1225.9160518513768 566.733754564701
s 5.355006371463754 -6.286311827370495 11.641318198834249 -6.286311827370495
S 1249.198688249045 544.8480763508926 1249.198688249045 566.733754564701
z" fill="none" stroke="none" style="animation-play-state:paused" ></path>


<circle cx="0" cy="0" r="0.8809831884352063" fill="#7b6bc5" transform="translate(1249.102783203125 562.2645874023438)" style="animation-play-state:paused" ></circle>
<path id="path2" d="M 854.8354287176548 291.9922547386301
c 0 25.42049929277176 -6.219909401422877 7.301632775583378 -13.521542177006253 7.301632775583378
S 827.7923443636423 317.41275403140185 827.7923443636423 291.9922547386301
s 6.219909401422877 -7.301632775583378 13.521542177006253 -7.301632775583378
S 854.8354287176548 266.57175544585834 854.8354287176548 291.9922547386301
z" fill="none" stroke="none" style="animation-play-state:paused" ></path>


<circle cx="0" cy="0" r="0.5812214997156491" fill="#7b6bc5" transform="translate(854.8009033203125 295.04229736328125)" style="animation-play-state:paused" ></circle>
<path id="path3" d="M 1678.1625719624326 362.6500728403398
c 0 34.80516132036577 -8.516156493280986 9.997227187764636 -18.513383681045624 9.997227187764636
S 1641.1358046003415 397.4552341607056 1641.1358046003415 362.6500728403398
s 8.516156493280986 -9.997227187764636 18.513383681045624 -9.997227187764636
S 1678.1625719624326 327.84491151997406 1678.1625719624326 362.6500728403398
z" fill="none" stroke="none" style="animation-play-state:paused" ></path>


<circle cx="0" cy="0" r="0.5089589179676918" fill="#7b6bc5" transform="translate(1644.12060546875 344.2985534667969)" style="animation-play-state:paused" ></circle>
<path id="path4" d="M 232.3823520005872 106.05719052367076
c 0 23.539802042364354 -5.759738797599788 6.761432501530186 -12.521171299129975 6.761432501530186
S 207.34000940232724 129.5969925660351 207.34000940232724 106.05719052367076
s 5.759738797599788 -6.761432501530186 12.521171299129975 -6.761432501530186
S 232.3823520005872 82.5173884813064 232.3823520005872 106.05719052367076
z" fill="none" stroke="none" style="animation-play-state:paused" ></path>


<circle cx="0" cy="0" r="0.9551890235850772" fill="#7b6bc5" transform="translate(207.58038330078125 99.22926330566406)" style="animation-play-state:paused" ></circle>
<path id="path5" d="M 208.01897303271264 635.8868996566912
c 0 23.98993130662574 -5.869876809067999 6.890724949775478 -12.760601758843478 6.890724949775478
S 182.49776951502568 659.8768309633169 182.49776951502568 635.8868996566912
s 5.869876809067999 -6.890724949775478 12.760601758843478 -6.890724949775478
S 208.01897303271264 611.8969683500654 208.01897303271264 635.8868996566912
z" fill="none" stroke="none" style="animation-play-state:paused" ></path>


<circle cx="0" cy="0" r="0.8885956151556216" fill="#7b6bc5" transform="translate(207.6538848876953 643.9854125976562)" style="animation-play-state:paused" ></circle>
<path id="path6" d="M 1344.110798621006 269.6135325026947
c 0 23.641297195841194 -5.784572718131355 6.790585364762896 -12.575158082894252 6.790585364762896
S 1318.9604824552177 293.2548296985359 1318.9604824552177 269.6135325026947
s 5.784572718131355 -6.790585364762896 12.575158082894252 -6.790585364762896
S 1344.110798621006 245.9722353068535 1344.110798621006 269.6135325026947
z" fill="none" stroke="none" style="animation-play-state:paused" ></path>


<circle cx="0" cy="0" r="0.5810322549262243" fill="#7b6bc5" transform="translate(1323.5677490234375 257.9241943359375)" style="animation-play-state:paused" ></circle>
<path id="path7" d="M 310.6246068453216 409.21872396131306
c 0 22.850247677388694 -5.591018048722765 6.563369013718029 -12.154387062440794 6.563369013718029
S 286.31583272044 432.0689716387018 286.31583272044 409.21872396131306
s 5.591018048722765 -6.563369013718029 12.154387062440794 -6.563369013718029
S 310.6246068453216 386.36847628392434 310.6246068453216 409.21872396131306
z" fill="none" stroke="none" style="animation-play-state:paused" ></path>


<circle cx="0" cy="0" r="0.6839659704207792" fill="#7b6bc5" transform="translate(310.4034423828125 402.7302551269531)" style="animation-play-state:paused" ></circle>
<path id="path8" d="M 1085.4654651632586 121.11276689533676
c 0 30.90382244118682 -7.561573576035071 8.876629850128129 -16.4382034261632 8.876629850128129
S 1052.5890583109322 152.01658933652357 1052.5890583109322 121.11276689533676
s 7.561573576035071 -8.876629850128129 16.4382034261632 -8.876629850128129
S 1085.4654651632586 90.20894445414994 1085.4654651632586 121.11276689533676
z" fill="none" stroke="none" style="animation-play-state:paused" ></path>


<circle cx="0" cy="0" r="0.8876275388231272" fill="#7b6bc5" transform="translate(1064.7171630859375 131.48492431640625)" style="animation-play-state:paused" ></circle>
<path id="path9" d="M 1212.3560636591872 338.56083302378704
c 0 30.129115772825912 -7.372017689095701 8.65410772198191 -16.02612541107761 8.65410772198191
S 1180.303812837032 368.68994879661295 1180.303812837032 338.56083302378704
s 7.372017689095701 -8.65410772198191 16.02612541107761 -8.65410772198191
S 1212.3560636591872 308.4317172509611 1212.3560636591872 338.56083302378704
z" fill="none" stroke="none" style="animation-play-state:paused" ></path>


<circle cx="0" cy="0" r="0.6892821383944141" fill="#7b6bc5" transform="translate(1203.7293701171875 351.1449890136719)" style="animation-play-state:paused" ></circle>
<path id="path10" d="M 205.2371616772412 618.8225258747855
c 0 32.46714807298971 -7.944089422114503 9.325670191177895 -17.2697596132924 9.325670191177895
S 170.69764245065642 651.2896739477752 170.69764245065642 618.8225258747855
s 7.944089422114503 -9.325670191177895 17.2697596132924 -9.325670191177895
S 205.2371616772412 586.3553778017957 205.2371616772412 618.8225258747855
z" fill="none" stroke="none" style="animation-play-state:paused" ></path>


<circle cx="0" cy="0" r="0.6606195641535657" fill="#7b6bc5" transform="translate(199.64810180664062 602.25341796875)" style="animation-play-state:paused" ></circle>
<path id="path11" d="M 614.4098759148807 563.2047022856751
c 0 32.93326052572393 -8.05813821374096 9.45955355526113 -17.51769176900209 9.45955355526113
S 579.3744923768764 596.137962811399 579.3744923768764 563.2047022856751
s 8.05813821374096 -9.45955355526113 17.51769176900209 -9.45955355526113
S 614.4098759148807 530.2714417599512 614.4098759148807 563.2047022856751
z" fill="none" stroke="none" style="animation-play-state:paused" ></path>


<circle cx="0" cy="0" r="0.992926685336464" fill="#7b6bc5" transform="translate(604.917724609375 549.5033569335938)" style="animation-play-state:paused" ></circle>
<path id="path12" d="M 646.6519266936389 449.59927652412523
c 0 25.1538292251394 -6.154660342321342 7.2250360540294025 -13.379696396350745 7.2250360540294025
S 619.8925339009375 474.75310574926465 619.8925339009375 449.59927652412523
s 6.154660342321342 -7.2250360540294025 13.379696396350745 -7.2250360540294025
S 646.6519266936389 424.4454472989858 646.6519266936389 449.59927652412523
z" fill="none" stroke="none" style="animation-play-state:paused" ></path>


<circle cx="0" cy="0" r="0.7590430812002329" fill="#7b6bc5" transform="translate(641.0128784179688 437.74810791015625)" style="animation-play-state:paused" ></circle>
<path id="path13" d="M 1306.2632728517212 119.10923228681274
c 0 21.69248067701085 -5.307734633736697 6.230818917864819 -11.538553551601517 6.230818917864819
S 1283.186165748518 140.8017129638236 1283.186165748518 119.10923228681274
s 5.307734633736697 -6.230818917864819 11.538553551601517 -6.230818917864819
S 1306.2632728517212 97.41675160980189 1306.2632728517212 119.10923228681274
z" fill="none" stroke="none" style="animation-play-state:paused" ></path>


<circle cx="0" cy="0" r="0.5845333440300141" fill="#7b6bc5" transform="translate(1303.7723388671875 107.54108428955078)" style="animation-play-state:paused" ></circle>
<path id="path14" d="M 195.65803240212324 309.7195676308089
c 0 28.344809525570508 -6.93543211795874 8.141594225429827 -15.077026343388567 8.141594225429827
S 165.50397971534608 338.0643771563794 165.50397971534608 309.7195676308089
s 6.93543211795874 -8.141594225429827 15.077026343388567 -8.141594225429827
S 195.65803240212324 281.3747581052384 195.65803240212324 309.7195676308089
z" fill="none" stroke="none" style="animation-play-state:paused" ></path>


<circle cx="0" cy="0" r="0.8974085053492397" fill="#7b6bc5" transform="translate(170.8596649169922 295.5802917480469)" style="animation-play-state:paused" ></circle>
<path id="path15" d="M 1643.2939904942505 583.285474936538
c 0 31.375178802298155 -7.676905451626143 9.0120194432133 -16.68892489483944 9.0120194432133
S 1609.9161407045717 614.6606537388361 1609.9161407045717 583.285474936538
s 7.676905451626143 -9.0120194432133 16.68892489483944 -9.0120194432133
S 1643.2939904942505 551.9102961342398 1643.2939904942505 583.285474936538
z" fill="none" stroke="none" style="animation-play-state:paused" ></path>


<circle cx="0" cy="0" r="0.735212429959552" fill="#7b6bc5" transform="translate(1638.2130126953125 599.4918212890625)" style="animation-play-state:paused" ></circle>
<path id="path16" d="M 125.04962350172956 385.8967930724523
c 0 20.963416673684517 -5.129346632922807 6.021406916909382 -11.150753549832189 6.021406916909382
S 102.74811640206518 406.8602097461368 102.74811640206518 385.8967930724523
s 5.129346632922807 -6.021406916909382 11.150753549832189 -6.021406916909382
S 125.04962350172956 364.9333763987678 125.04962350172956 385.8967930724523
z" fill="none" stroke="none" style="animation-play-state:paused" ></path>


<circle cx="0" cy="0" r="0.8950687675592507" fill="#7b6bc5" transform="translate(102.76067352294922 384.1959533691406)" style="animation-play-state:paused" ></circle>
<path id="path17" d="M 960.6850687071059 86.10288045567924
c 0 23.939867844151387 -5.857627238462572 6.87634501906476 -12.733972257527332 6.87634501906476
S 935.2171241920513 110.04274829983063 935.2171241920513 86.10288045567924
s 5.857627238462572 -6.87634501906476 12.733972257527332 -6.87634501906476
S 960.6850687071059 62.163012611527854 960.6850687071059 86.10288045567924
z" fill="none" stroke="none" style="animation-play-state:paused" ></path>


<circle cx="0" cy="0" r="0.7837806415156151" fill="#7b6bc5" transform="translate(935.242431640625 88.66201782226562)" style="animation-play-state:paused" ></circle>
<path id="path18" d="M 413.245642318031 269.4037684890019
c 0 35.01979468994045 -8.568673168815215 10.058877198174384 -18.6275503669896 10.058877198174384
S 375.99054158405175 304.42356317894235 375.99054158405175 269.4037684890019
s 8.568673168815215 -10.058877198174384 18.6275503669896 -10.058877198174384
S 413.245642318031 234.38397379906144 413.245642318031 269.4037684890019
z" fill="none" stroke="none" style="animation-play-state:paused" ></path>


<circle cx="0" cy="0" r="0.9964550510084625" fill="#7b6bc5" transform="translate(377.1290588378906 254.21047973632812)" style="animation-play-state:paused" ></circle>
<path id="path19" d="M 1158.2481600281876 199.81314758446993
c 0 35.10815614824985 -8.5902935256356 10.084257617050488 -18.674551142686088 10.084257617050488
S 1120.8990577428153 234.92130373271976 1120.8990577428153 199.81314758446993
s 8.5902935256356 -10.084257617050488 18.674551142686088 -10.084257617050488
S 1158.2481600281876 164.7049914362201 1158.2481600281876 199.81314758446993
z" fill="none" stroke="none" style="animation-play-state:paused" ></path>


<circle cx="0" cy="0" r="0.8476383030382214" fill="#7b6bc5" transform="translate(1136.2559814453125 188.9088897705078)" style="animation-play-state:paused" ></circle></g></svg>