<?xml version="1.0" encoding="utf-8"?><svg xmlns="http://www.w3.org/2000/svg" xmlns:xlink="http://www.w3.org/1999/xlink" width="1775" height="657" preserveAspectRatio="xMidYMid" viewBox="0 0 1775 657" style="z-index:1;margin-right:-2px;display:block;background-repeat-y:initial;background-repeat-x:initial;animation-play-state:paused" ><g transform="translate(887.5,328.5) scale(1,1) translate(-887.5,-328.5)" style="transform:matrix(1, 0, 0, 1, 0, 0);animation-play-state:paused" ><path id="path0" d="M 627.5430754470553 179.2024539042326
c 0 19.24950042366506 -4.709984146215919 5.529111823818687 -10.239095970034606 5.529111823818687
S 607.0648835069862 198.45195432789768 607.0648835069862 179.2024539042326
s 4.709984146215919 -5.529111823818687 10.239095970034606 -5.529111823818687
S 627.5430754470553 159.95295348056754 627.5430754470553 179.2024539042326
z" fill="none" stroke="none" style="animation-play-state:paused" ></path>


<circle cx="0" cy="0" r="1.7253832958966413" fill="#7b6bc5" transform="translate(607.626953125 187.29356384277344)" style="animation-play-state:paused" ></circle>
<path id="path1" d="M 1383.6721285522608 316.4477742433469
c 0 18.894131505674583 -4.623032176920376 5.427037772906529 -10.050069949826906 5.427037772906529
S 1363.5719886526072 335.34190574902146 1363.5719886526072 316.4477742433469
s 4.623032176920376 -5.427037772906529 10.050069949826906 -5.427037772906529
S 1383.6721285522608 297.5536427376723 1383.6721285522608 316.4477742433469
z" fill="none" stroke="none" style="animation-play-state:paused" ></path>


<circle cx="0" cy="0" r="1.7837255683364694" fill="#7b6bc5" transform="translate(1368.4222412109375 308.07086181640625)" style="animation-play-state:paused" ></circle>
<path id="path2" d="M 1627.4646463382874 626.2870922138474
c 0 31.961486940749236 -7.820363825928004 9.18042710000244 -17.000790925930445 9.18042710000244
S 1593.4630644864264 658.2485791545965 1593.4630644864264 626.2870922138474
s 7.820363825928004 -9.18042710000244 17.000790925930445 -9.18042710000244
S 1627.4646463382874 594.3256052730982 1627.4646463382874 626.2870922138474
z" fill="none" stroke="none" style="animation-play-state:paused" ></path>


<circle cx="0" cy="0" r="1.6712621080914414" fill="#7b6bc5" transform="translate(1593.4654541015625 626.8958129882812)" style="animation-play-state:paused" ></circle>
<path id="path3" d="M 152.73734121404541 590.7098770821996
c 0 37.03794242466514 -9.062475274120192 10.638557930488924 -19.701033204609114 10.638557930488924
S 113.3352748048272 627.7478195068647 113.3352748048272 590.7098770821996
s 9.062475274120192 -10.638557930488924 19.701033204609114 -10.638557930488924
S 152.73734121404541 553.6719346575344 152.73734121404541 590.7098770821996
z" fill="none" stroke="none" style="animation-play-state:paused" ></path>


<circle cx="0" cy="0" r="1.5778160088556907" fill="#7b6bc5" transform="translate(149.02891540527344 570.9895629882812)" style="animation-play-state:paused" ></circle>
<path id="path4" d="M 440.40430806666694 621.2278987697522
c 0 37.25175405235921 -9.114790885151722 10.69997190865637 -19.814762793808093 10.69997190865637
S 400.77478247905077 658.4796528221113 400.77478247905077 621.2278987697522
s 9.114790885151722 -10.69997190865637 19.814762793808093 -10.69997190865637
S 440.40430806666694 583.976144717393 440.40430806666694 621.2278987697522
z" fill="none" stroke="none" style="animation-play-state:paused" ></path>


<circle cx="0" cy="0" r="1.8872746549532413" fill="#7b6bc5" transform="translate(401.24713134765625 609.47802734375)" style="animation-play-state:paused" ></circle>
<path id="path5" d="M 1144.2056845151112 283.06225829807994
c 0 28.722731056298038 -7.027902279732498 8.250146154468586 -15.278048434201084 8.250146154468586
S 1113.649587646709 311.78498935437796 1113.649587646709 283.06225829807994
s 7.027902279732498 -8.250146154468586 15.278048434201084 -8.250146154468586
S 1144.2056845151112 254.3395272417819 1144.2056845151112 283.06225829807994
z" fill="none" stroke="none" style="animation-play-state:paused" ></path>


<circle cx="0" cy="0" r="1.41178074447104" fill="#7b6bc5" transform="translate(1135.0753173828125 271.83270263671875)" style="animation-play-state:paused" ></circle>
<path id="path6" d="M 1678.9441638057576 234.36930057226695
c 0 35.430040053829885 -8.669052353596673 10.176713632483052 -18.845765986079726 10.176713632483052
S 1641.2526318335983 269.79934062609686 1641.2526318335983 234.36930057226695
s 8.669052353596673 -10.176713632483052 18.845765986079726 -10.176713632483052
S 1678.9441638057576 198.93926051843707 1678.9441638057576 234.36930057226695
z" fill="none" stroke="none" style="animation-play-state:paused" ></path>


<circle cx="0" cy="0" r="1.7025867196683382" fill="#7b6bc5" transform="translate(1674.8199462890625 253.2588348388672)" style="animation-play-state:paused" ></circle>
<path id="path7" d="M 1406.1991191882666 575.3773841567247
c 0 29.140651842990636 -7.1301594934977075 8.37018723149731 -15.500346724995017 8.37018723149731
S 1375.1984257382765 604.5180359997154 1375.1984257382765 575.3773841567247
s 7.1301594934977075 -8.37018723149731 15.500346724995017 -8.37018723149731
S 1406.1991191882666 546.236732313734 1406.1991191882666 575.3773841567247
z" fill="none" stroke="none" style="animation-play-state:paused" ></path>


<circle cx="0" cy="0" r="1.8722736431306481" fill="#7b6bc5" transform="translate(1376.1468505859375 562.73095703125)" style="animation-play-state:paused" ></circle>
<path id="path8" d="M 662.6008729501438 383.7025267277845
c 0 33.732362792692285 -8.253663236509814 9.68908292981587 -17.942746166325684 9.68908292981587
S 626.7153806174923 417.4348895204768 626.7153806174923 383.7025267277845
s 8.253663236509814 -9.68908292981587 17.942746166325684 -9.68908292981587
S 662.6008729501438 349.9701639350922 662.6008729501438 383.7025267277845
z" fill="none" stroke="none" style="animation-play-state:paused" ></path>


<circle cx="0" cy="0" r="1.3539380438350181" fill="#7b6bc5" transform="translate(659.4522094726562 365.8038024902344)" style="animation-play-state:paused" ></circle>
<path id="path9" d="M 1091.656029115111 303.48732378369846
c 0 21.265954639696 -5.2033718799256174 6.108306119912681 -11.311677999838299 6.108306119912681
S 1069.0326731154344 324.7532784233945 1069.0326731154344 303.48732378369846
s 5.2033718799256174 -6.108306119912681 11.311677999838299 -6.108306119912681
S 1091.656029115111 282.22136914400244 1091.656029115111 303.48732378369846
z" fill="none" stroke="none" style="animation-play-state:paused" ></path>


<circle cx="0" cy="0" r="1.9538096551605753" fill="#7b6bc5" transform="translate(1069.0509033203125 301.4396667480469)" style="animation-play-state:paused" ></circle>
<path id="path10" d="M 86.41157859173737 137.61578487369437
c 0 33.11975063416176 -8.103768772188515 9.51311986300391 -17.616888635192424 9.51311986300391
S 51.17780132135252 170.73553550785613 51.17780132135252 137.61578487369437
s 8.103768772188515 -9.51311986300391 17.616888635192424 -9.51311986300391
S 86.41157859173737 104.4960342395326 86.41157859173737 137.61578487369437
z" fill="none" stroke="none" style="animation-play-state:paused" ></path>


<circle cx="0" cy="0" r="1.28692919629037" fill="#7b6bc5" transform="translate(51.66120910644531 126.603759765625)" style="animation-play-state:paused" ></circle>
<path id="path11" d="M 1624.493888922951 5.800987232331982
c 0 25.39999585823273 -6.214892603610136 7.295743491194508 -13.510636094804644 7.295743491194508
S 1597.472616733342 31.200983090564712 1597.472616733342 5.800987232331982
s 6.214892603610136 -7.295743491194508 13.510636094804644 -7.295743491194508
S 1624.493888922951 -19.59900862590075 1624.493888922951 5.800987232331982
z" fill="none" stroke="none" style="animation-play-state:paused" ></path>


<circle cx="0" cy="0" r="1.284458227682369" fill="#7b6bc5" transform="translate(1611.9959716796875 -1.6065858602523804)" style="animation-play-state:paused" ></circle>
<path id="path12" d="M 495.45032687101997 579.9233913766045
c 0 32.57250837802773 -7.969869071219549 9.355933257518602 -17.325802328738153 9.355933257518602
S 460.7987222135436 612.4958997546322 460.7987222135436 579.9233913766045
s 7.969869071219549 -9.355933257518602 17.325802328738153 -9.355933257518602
S 495.45032687101997 547.3508829985768 495.45032687101997 579.9233913766045
z" fill="none" stroke="none" style="animation-play-state:paused" ></path>


<circle cx="0" cy="0" r="1.1842261466860873" fill="#7b6bc5" transform="translate(467.7505187988281 564.2893676757812)" style="animation-play-state:paused" ></circle>
<path id="path13" d="M 294.9784897403538 419.5155657297099
c 0 34.03394204301236 -8.327453904141322 9.775706757035465 -18.103160661176787 9.775706757035465
S 258.7721684180002 453.5495077727223 258.7721684180002 419.5155657297099
s 8.327453904141322 -9.775706757035465 18.103160661176787 -9.775706757035465
S 294.9784897403538 385.48162368669756 294.9784897403538 419.5155657297099
z" fill="none" stroke="none" style="animation-play-state:paused" ></path>


<circle cx="0" cy="0" r="1.8104593757541867" fill="#7b6bc5" transform="translate(267.50982666015625 434.6043395996094)" style="animation-play-state:paused" ></circle>
<path id="path14" d="M 1035.1365705430376 615.9718668134813
c 0 31.90708834811391 -7.807053531985318 9.164801972330592 -16.971855504315908 9.164801972330592
S 1001.1928595344058 647.8789551615952 1001.1928595344058 615.9718668134813
s 7.807053531985318 -9.164801972330592 16.971855504315908 -9.164801972330592
S 1035.1365705430376 584.0647784653673 1035.1365705430376 615.9718668134813
z" fill="none" stroke="none" style="animation-play-state:paused" ></path>


<circle cx="0" cy="0" r="1.9021939486677961" fill="#7b6bc5" transform="translate(1035.103515625 619.351318359375)" style="animation-play-state:paused" ></circle>
<path id="path15" d="M 286.61564823936226 196.76027220077734
c 0 23.604491200995263 -5.775566995988203 6.780013430073108 -12.55558042606131 6.780013430073108
S 261.5044873872397 220.3647634017726 261.5044873872397 196.76027220077734
s 5.775566995988203 -6.780013430073108 12.55558042606131 -6.780013430073108
S 286.61564823936226 173.15578099978208 286.61564823936226 196.76027220077734
z" fill="none" stroke="none" style="animation-play-state:paused" ></path>


<circle cx="0" cy="0" r="1.2041351739843078" fill="#7b6bc5" transform="translate(277.95782470703125 205.09291076660156)" style="animation-play-state:paused" ></circle>
<path id="path16" d="M 568.5519728169012 357.7448926992785
c 0 37.191082183226 -9.099945640576573 10.682544882415979 -19.782490522992553 10.682544882415979
S 528.986991770916 394.9359748825045 528.986991770916 357.7448926992785
s 9.099945640576573 -10.682544882415979 19.782490522992553 -10.682544882415979
S 568.5519728169012 320.5538105160525 568.5519728169012 357.7448926992785
z" fill="none" stroke="none" style="animation-play-state:paused" ></path>


<circle cx="0" cy="0" r="1.7494955917132784" fill="#7b6bc5" transform="translate(529.1001586914062 364.20172119140625)" style="animation-play-state:paused" ></circle>
<path id="path17" d="M 404.8986266279942 419.7185324222063
c 0 20.67678909018277 -5.05921435185323 5.939077717392924 -10.998292069246155 5.939077717392924
S 382.9020424895019 440.39532151238905 382.9020424895019 419.7185324222063
s 5.05921435185323 -5.939077717392924 10.998292069246155 -5.939077717392924
S 404.8986266279942 399.04174333202354 404.8986266279942 419.7185324222063
z" fill="none" stroke="none" style="animation-play-state:paused" ></path>


<circle cx="0" cy="0" r="1.7440563554943764" fill="#7b6bc5" transform="translate(389.3658752441406 427.8927917480469)" style="animation-play-state:paused" ></circle>
<path id="path18" d="M 1342.2610618446695 339.41824934508156
c 0 21.08122442476449 -5.15817193371897 6.055245313496184 -11.213417247215155 6.055245313496184
S 1319.8342273502392 360.4994737698461 1319.8342273502392 339.41824934508156
s 5.15817193371897 -6.055245313496184 11.213417247215155 -6.055245313496184
S 1342.2610618446695 318.33702492031705 1342.2610618446695 339.41824934508156
z" fill="none" stroke="none" style="animation-play-state:paused" ></path>


<circle cx="0" cy="0" r="1.3033424719376154" fill="#7b6bc5" transform="translate(1329.59619140625 333.0943603515625)" style="animation-play-state:paused" ></circle>
<path id="path19" d="M 1584.9455763209198 19.943462100659197
c 0 23.910368225764916 -5.850409246729712 6.867871724421837 -12.71828097115155 6.867871724421837
S 1559.509014378617 43.85383032642412 1559.509014378617 19.943462100659197
s 5.850409246729712 -6.867871724421837 12.71828097115155 -6.867871724421837
S 1584.9455763209198 -3.9669061251057194 1584.9455763209198 19.943462100659197
z" fill="none" stroke="none" style="animation-play-state:paused" ></path>


<circle cx="0" cy="0" r="1.9877499857684373" fill="#7b6bc5" transform="translate(1578.609619140625 30.3726749420166)" style="animation-play-state:paused" ></circle>
<path id="path20" d="M 96.18429770795848 509.76246283116603
c 0 27.973377200002798 -6.844549740426215 8.03490621702208 -14.879455957448295 8.03490621702208
S 66.42538579306188 537.7358400311688 66.42538579306188 509.76246283116603
s 6.844549740426215 -8.03490621702208 14.879455957448295 -8.03490621702208
S 96.18429770795848 481.78908563116323 96.18429770795848 509.76246283116603
z" fill="none" stroke="none" style="animation-play-state:paused" ></path>


<circle cx="0" cy="0" r="1.9495789445264788" fill="#7b6bc5" transform="translate(66.42607879638672 510.12005615234375)" style="animation-play-state:paused" ></circle>
<path id="path21" d="M 968.2828934618028 200.8846844901519
c 0 33.294522676430645 -8.146532144233028 9.563320343230078 -17.709852487463106 9.563320343230078
S 932.8631884868767 234.17920716658256 932.8631884868767 200.8846844901519
s 8.146532144233028 -9.563320343230078 17.709852487463106 -9.563320343230078
S 968.2828934618028 167.59016181372124 968.2828934618028 200.8846844901519
z" fill="none" stroke="none" style="animation-play-state:paused" ></path>


<circle cx="0" cy="0" r="1.2636224551701773" fill="#7b6bc5" transform="translate(933.7947387695312 214.69937133789062)" style="animation-play-state:paused" ></circle>
<path id="path22" d="M 509.5620853336295 563.01033375885
c 0 22.915100317488292 -5.606886247896071 6.581996899704085 -12.188883147600155 6.581996899704085
S 485.1843190384292 585.9254340763383 485.1843190384292 563.01033375885
s 5.606886247896071 -6.581996899704085 12.188883147600155 -6.581996899704085
S 509.5620853336295 540.0952334413618 509.5620853336295 563.01033375885
z" fill="none" stroke="none" style="animation-play-state:paused" ></path>


<circle cx="0" cy="0" r="1.1567979202359842" fill="#7b6bc5" transform="translate(501.31048583984375 554.8096313476562)" style="animation-play-state:paused" ></circle></g></svg>