<?xml version="1.0" encoding="utf-8"?><svg xmlns="http://www.w3.org/2000/svg" xmlns:xlink="http://www.w3.org/1999/xlink" width="1775" height="657" preserveAspectRatio="xMidYMid" viewBox="0 0 1775 657" style="z-index:1;margin-right:-2px;display:block;background-repeat-y:initial;background-repeat-x:initial;animation-play-state:paused" ><g transform="translate(887.5,328.5) scale(1,1) translate(-887.5,-328.5)" style="transform:matrix(1, 0, 0, 1, 0, 0);animation-play-state:paused" ><path id="path0" d="M 377.5388229160685 496.3972769594054
c 0 26.602681007911606 -6.509166629595392 7.641195608655461 -14.150362238250853 7.641195608655461
S 349.2380984395668 522.9999579673171 349.2380984395668 496.3972769594054
s 6.509166629595392 -7.641195608655461 14.150362238250853 -7.641195608655461
S 377.5388229160685 469.7945959514938 377.5388229160685 496.3972769594054
z" fill="none" stroke="none" style="animation-play-state:paused" ></path>


<circle cx="0" cy="0" r="1.1168666421391362" fill="#7b6bc5" transform="translate(377.5339660644531 497.6193542480469)" style="animation-play-state:paused" ></circle>
<path id="path1" d="M 95.38008809403057 395.3397696288833
c 0 24.805991638095726 -6.0695511454915065 7.1251252577509 -13.194676403242408 7.1251252577509
S 68.99073528754575 420.14576126697904 68.99073528754575 395.3397696288833
s 6.0695511454915065 -7.1251252577509 13.194676403242408 -7.1251252577509
S 95.38008809403057 370.53377799078754 95.38008809403057 395.3397696288833
z" fill="none" stroke="none" style="animation-play-state:paused" ></path>


<circle cx="0" cy="0" r="1.5529837176677495" fill="#5240a4" transform="translate(89.20608520507812 406.5059509277344)" style="animation-play-state:paused" ></circle>
<path id="path2" d="M 1349.3867657160285 167.92334642983218
c 0 28.424973573492412 -6.955046725428994 8.164620068981863 -15.119666794410858 8.164620068981863
S 1319.1474321272067 196.3483200033246 1319.1474321272067 167.92334642983218
s 6.955046725428994 -8.164620068981863 15.119666794410858 -8.164620068981863
S 1349.3867657160285 139.49837285633976 1349.3867657160285 167.92334642983218
z" fill="none" stroke="none" style="animation-play-state:paused" ></path>


<circle cx="0" cy="0" r="1.1904270430595925" fill="#56469f" transform="translate(1319.1732177734375 170.73394775390625)" style="animation-play-state:paused" ></circle>
<path id="path3" d="M 390.60208085704926 551.1251913316087
c 0 31.057393287886896 -7.59914942150424 8.92074062524411 -16.519890046748348 8.92074062524411
S 357.56230076355257 582.1825846194956 357.56230076355257 551.1251913316087
s 7.59914942150424 -8.92074062524411 16.519890046748348 -8.92074062524411
S 390.60208085704926 520.0677980437217 390.60208085704926 551.1251913316087
z" fill="none" stroke="none" style="animation-play-state:paused" ></path>


<circle cx="0" cy="0" r="1.0835229936629944" fill="#56469f" transform="translate(358.5074462890625 537.9081420898438)" style="animation-play-state:paused" ></circle>
<path id="path4" d="M 1112.276537082588 220.3369867545062
c 0 34.80676495472119 -8.516548871899865 9.99768780614332 -18.514236678043183 9.99768780614332
S 1075.2480637265014 255.1437517092274 1075.2480637265014 220.3369867545062
s 8.516548871899865 -9.99768780614332 18.514236678043183 -9.99768780614332
S 1112.276537082588 185.530221799785 1112.276537082588 220.3369867545062
z" fill="none" stroke="none" style="animation-play-state:paused" ></path>


<circle cx="0" cy="0" r="1.494734857703538" fill="#7b6bc5" transform="translate(1081.7427978515625 237.7586212158203)" style="animation-play-state:paused" ></circle>
<path id="path5" d="M 454.1346887252596 222.12344476733887
c 0 24.94281977090717 -6.103030369477286 7.164426955473337 -13.267457324950623 7.164426955473337
S 427.59977407535837 247.06626453824603 427.59977407535837 222.12344476733887
s 6.103030369477286 -7.164426955473337 13.267457324950623 -7.164426955473337
S 454.1346887252596 197.1806249964317 454.1346887252596 222.12344476733887
z" fill="none" stroke="none" style="animation-play-state:paused" ></path>


<circle cx="0" cy="0" r="1.226148369481247" fill="#56469f" transform="translate(428.58197021484375 210.71908569335938)" style="animation-play-state:paused" ></circle>
<path id="path6" d="M 1538.0443962758084 377.89324588233353
c 0 23.605005470760933 -5.775692827952142 6.780161145856864 -12.555853973809006 6.780161145856864
S 1512.9326883281904 401.4982513530945 1512.9326883281904 377.89324588233353
s 5.775692827952142 -6.780161145856864 12.555853973809006 -6.780161145856864
S 1538.0443962758084 354.2882404115726 1538.0443962758084 377.89324588233353
z" fill="none" stroke="none" style="animation-play-state:paused" ></path>


<circle cx="0" cy="0" r="1.2046026524561309" fill="#5849a0" transform="translate(1513.681396484375 367.7269287109375)" style="animation-play-state:paused" ></circle>
<path id="path7" d="M 825.0755556235124 173.58315678297498
c 0 28.469656620314034 -6.965979811353433 8.17745456115403 -15.143434372507464 8.17745456115403
S 794.7886868784974 202.052813403289 794.7886868784974 173.58315678297498
s 6.965979811353433 -8.17745456115403 15.143434372507464 -8.17745456115403
S 825.0755556235124 145.11350016266096 825.0755556235124 173.58315678297498
z" fill="none" stroke="none" style="animation-play-state:paused" ></path>


<circle cx="0" cy="0" r="1.119200134147305" fill="#7b6bc5" transform="translate(824.5001220703125 184.21173095703125)" style="animation-play-state:paused" ></circle>
<path id="path8" d="M 458.7497290316915 607.7539968074497
c 0 23.043972539825166 -5.638418812935944 6.6190133890987175 -12.25743220203466 6.6190133890987175
S 434.23486462762224 630.7979693472748 434.23486462762224 607.7539968074497
s 5.638418812935944 -6.6190133890987175 12.25743220203466 -6.6190133890987175
S 458.7497290316915 584.7100242676245 458.7497290316915 607.7539968074497
z" fill="none" stroke="none" style="animation-play-state:paused" ></path>


<circle cx="0" cy="0" r="1.801818685524322" fill="#56469f" transform="translate(445.5648498535156 614.476318359375)" style="animation-play-state:paused" ></circle>
<path id="path9" d="M 838.9018179819955 577.3897290540588
c 0 30.07994254201846 -7.359985941132176 8.639983496111686 -15.999969437243863 8.639983496111686
S 806.9018791075077 607.4696715960772 806.9018791075077 577.3897290540588
s 7.359985941132176 -8.639983496111686 15.999969437243863 -8.639983496111686
S 838.9018179819955 547.3097865120403 838.9018179819955 577.3897290540588
z" fill="none" stroke="none" style="animation-play-state:paused" ></path>


<circle cx="0" cy="0" r="1.529051977693675" fill="#7b6bc5" transform="translate(815.2230224609375 590.2055053710938)" style="animation-play-state:paused" ></circle>
<path id="path10" d="M 999.8182767244898 275.4521312122704
c 0 23.39812720254352 -5.725073677218095 6.720738664560374 -12.445812341778469 6.720738664560374
S 974.9266520409328 298.8502584148139 974.9266520409328 275.4521312122704
s 5.725073677218095 -6.720738664560374 12.445812341778469 -6.720738664560374
S 999.8182767244898 252.05400400972687 999.8182767244898 275.4521312122704
z" fill="none" stroke="none" style="animation-play-state:paused" ></path>


<circle cx="0" cy="0" r="1.4128544410034085" fill="#7b6bc5" transform="translate(976.6239624023438 287.5597839355469)" style="animation-play-state:paused" ></circle>
<path id="path11" d="M 1786.913345744374 350.3490166674065
c 0 35.58270016917029 -8.706405360541664 10.220562814548913 -18.92696817509058 10.220562814548913
S 1749.0594093941927 385.93171683657675 1749.0594093941927 350.3490166674065
s 8.706405360541664 -10.220562814548913 18.92696817509058 -10.220562814548913
S 1786.913345744374 314.7663164982362 1786.913345744374 350.3490166674065
z" fill="none" stroke="none" style="animation-play-state:paused" ></path>


<circle cx="0" cy="0" r="1.7154483564230787" fill="#7b6bc5" transform="translate(1758.388916015625 334.74212646484375)" style="animation-play-state:paused" ></circle>
<path id="path12" d="M 1373.2741606366212 286.92181307187315
c 0 32.3625310158196 -7.918491631530326 9.295620610926905 -17.214112242457233 9.295620610926905
S 1338.8459361517066 319.2843440876927 1338.8459361517066 286.92181307187315
s 7.918491631530326 -9.295620610926905 17.214112242457233 -9.295620610926905
S 1373.2741606366212 254.55928205605355 1373.2741606366212 286.92181307187315
z" fill="none" stroke="none" style="animation-play-state:paused" ></path>


<circle cx="0" cy="0" r="1.9024674744180063" fill="#7b6bc5" transform="translate(1373.1466064453125 293.21978759765625)" style="animation-play-state:paused" ></circle>
<path id="path13" d="M 362.9709084572508 306.518809302989
c 0 28.822084383334733 -7.052212136347859 8.278683812234444 -15.330895948582304 8.278683812234444
S 332.30911656008624 335.34089368632374 332.30911656008624 306.518809302989
s 7.052212136347859 -8.278683812234444 15.330895948582304 -8.278683812234444
S 362.9709084572508 277.69672491965423 362.9709084572508 306.518809302989
z" fill="none" stroke="none" style="animation-play-state:paused" ></path>


<circle cx="0" cy="0" r="1.7141111245868856" fill="#56469f" transform="translate(362.957275390625 308.6070861816406)" style="animation-play-state:paused" ></circle>
<path id="path14" d="M 29.718106377135328 124.91670146988007
c 0 35.321286792436425 -8.642442513042953 10.145475993572164 -18.787918506615117 10.145475993572164
S -7.857730636094907 160.2379882623165 -7.857730636094907 124.91670146988007
s 8.642442513042953 -10.145475993572164 18.787918506615117 -10.145475993572164
S 29.718106377135328 89.59541467744364 29.718106377135328 124.91670146988007
z" fill="none" stroke="none" style="animation-play-state:paused" ></path>


<circle cx="0" cy="0" r="1.992900890115711" fill="#7b6bc5" transform="translate(7.209218978881836 136.07540893554688)" style="animation-play-state:paused" ></circle>
<path id="path15" d="M 1199.3933163127151 89.89830437010177
c 0 25.523786914619524 -6.245181904640947 7.331300496752417 -13.576482401393363 7.331300496752417
S 1172.2403515099284 115.42209128472129 1172.2403515099284 89.89830437010177
s 6.245181904640947 -7.331300496752417 13.576482401393363 -7.331300496752417
S 1199.3933163127151 64.37451745548225 1199.3933163127151 89.89830437010177
z" fill="none" stroke="none" style="animation-play-state:paused" ></path>


<circle cx="0" cy="0" r="1.4517281560522595" fill="#7b6bc5" transform="translate(1173.1290283203125 101.18862915039062)" style="animation-play-state:paused" ></circle>
<path id="path16" d="M 1613.665672395324 491.8960633936761
c 0 23.48648154894491 -5.746692293890774 6.746117040654388 -12.492809334545163 6.746117040654388
S 1588.6800537262336 515.382544942621 1588.6800537262336 491.8960633936761
s 5.746692293890774 -6.746117040654388 12.492809334545163 -6.746117040654388
S 1613.665672395324 468.4095818447312 1613.665672395324 491.8960633936761
z" fill="none" stroke="none" style="animation-play-state:paused" ></path>


<circle cx="0" cy="0" r="1.7013157855362062" fill="#56469f" transform="translate(1612.8070068359375 502.4232177734375)" style="animation-play-state:paused" ></circle>
<path id="path17" d="M 1429.9538732587125 583.4461225929707
c 0 26.681305225004976 -6.5284044699480255 7.66377916037377 -14.192183630321795 7.66377916037377
S 1401.569505998069 610.1274278179757 1401.569505998069 583.4461225929707
s 6.5284044699480255 -7.66377916037377 14.192183630321795 -7.66377916037377
S 1429.9538732587125 556.7648173679657 1429.9538732587125 583.4461225929707
z" fill="none" stroke="none" style="animation-play-state:paused" ></path>


<circle cx="0" cy="0" r="1.68750341359516" fill="#7b6bc5" transform="translate(1429.896728515625 587.4093017578125)" style="animation-play-state:paused" ></circle>
<path id="path18" d="M 1303.3877118793166 404.791811715826
c 0 30.484743365564363 -7.4590329511487266 8.756256073087636 -16.215289024236363 8.756256073087636
S 1270.9571338308438 435.27655508139037 1270.9571338308438 404.791811715826
s 7.4590329511487266 -8.756256073087636 16.215289024236363 -8.756256073087636
S 1303.3877118793166 374.3070683502616 1303.3877118793166 404.791811715826
z" fill="none" stroke="none" style="animation-play-state:paused" ></path>


<circle cx="0" cy="0" r="1.9231288913811002" fill="#5240a4" transform="translate(1271.1329345703125 411.7826843261719)" style="animation-play-state:paused" ></circle>
<path id="path19" d="M 1077.832608065688 650.4723898129233
c 0 26.327159162307552 -6.441751709926315 7.562056355130893 -14.003808065057209 7.562056355130893
S 1049.8249919355735 676.7995489752309 1049.8249919355735 650.4723898129233
s 6.441751709926315 -7.562056355130893 14.003808065057209 -7.562056355130893
S 1077.832608065688 624.1452306506158 1077.832608065688 650.4723898129233
z" fill="none" stroke="none" style="animation-play-state:paused" ></path>


<circle cx="0" cy="0" r="1.0587398037193907" fill="#7b6bc5" transform="translate(1076.7315673828125 662.6958618164062)" style="animation-play-state:paused" ></circle>
<path id="path20" d="M 530.7780403345079 448.37300897663846
c 0 23.366452634413758 -5.7173235169310255 6.711640650310335 -12.42896416724136 6.711640650310335
S 505.92011200002514 471.7394616110522 505.92011200002514 448.37300897663846
s 5.7173235169310255 -6.711640650310335 12.42896416724136 -6.711640650310335
S 530.7780403345079 425.0065563422247 530.7780403345079 448.37300897663846
z" fill="none" stroke="none" style="animation-play-state:paused" ></path>


<circle cx="0" cy="0" r="1.6862033711049484" fill="#7b6bc5" transform="translate(528.1673583984375 460.8371887207031)" style="animation-play-state:paused" ></circle>
<path id="path21" d="M 1086.3981182702137 213.05743289649365
c 0 18.88280810542271 -4.620261557709812 5.423785306876737 -10.044046864586548 5.423785306876737
S 1066.3100245410405 231.94024100191638 1066.3100245410405 213.05743289649365
s 4.620261557709812 -5.423785306876737 10.044046864586548 -5.423785306876737
S 1086.3981182702137 194.17462479107093 1086.3981182702137 213.05743289649365
z" fill="none" stroke="none" style="animation-play-state:paused" ></path>


<circle cx="0" cy="0" r="1.8591808279351896" fill="#56469f" transform="translate(1079.981201171875 220.1057891845703)" style="animation-play-state:paused" ></circle>
<path id="path22" d="M 710.6147821638943 511.21189277397235
c 0 31.440956742022347 -7.693000053899084 9.0309131067511 -16.723913160650184 9.0309131067511
S 677.1669558425939 542.6528495159947 677.1669558425939 511.21189277397235
s 7.693000053899084 -9.0309131067511 16.723913160650184 -9.0309131067511
S 710.6147821638943 479.77093603195 710.6147821638943 511.21189277397235
z" fill="none" stroke="none" style="animation-play-state:paused" ></path>


<circle cx="0" cy="0" r="1.269083891026381" fill="#7b6bc5" transform="translate(695.2959594726562 502.0077819824219)" style="animation-play-state:paused" ></circle></g></svg>