<?xml version="1.0" encoding="utf-8"?><svg xmlns="http://www.w3.org/2000/svg" xmlns:xlink="http://www.w3.org/1999/xlink" width="1775" height="704" preserveAspectRatio="xMidYMid" viewBox="0 0 1775 704" style="z-index:1;margin-right:-2px;display:block;background-repeat-y:initial;background-repeat-x:initial;animation-play-state:paused" ><g transform="translate(887.5,352) scale(1,1) translate(-887.5,-352)" style="transform:matrix(1, 0, 0, 1, 0, 0);animation-play-state:paused" ><path id="path0" d="M 345.69418155853384 417.4322351496335
c 0 30.31715696885232 -7.418027768974503 8.708119554883114 -16.126147323857616 8.708119554883114
S 313.44188691081865 447.74939211848584 313.44188691081865 417.4322351496335
s 7.418027768974503 -8.708119554883114 16.126147323857616 -8.708119554883114
S 345.69418155853384 387.1150781807812 345.69418155853384 417.4322351496335
z" fill="none" stroke="none" style="animation-play-state:paused" ></path>


<circle cx="0" cy="0" r="2.363584523605064" fill="#51cacc" transform="translate(322.2792663574219 429.9595642089844)" style="animation-play-state:paused" ></circle>
<path id="path1" d="M 1785.2345023716039 676.491789275707
c 0 30.00329919308925 -7.341232781287794 8.617968917163934 -15.959201698451729 8.617968917163934
S 1753.3160989747003 706.4950884687962 1753.3160989747003 676.491789275707
s 7.341232781287794 -8.617968917163934 15.959201698451729 -8.617968917163934
S 1785.2345023716039 646.4884900826178 1785.2345023716039 676.491789275707
z" fill="none" stroke="none" style="animation-play-state:paused" ></path>


<circle cx="0" cy="0" r="2.478928335146093" fill="#e0ff77" transform="translate(1760.116455078125 690.5662231445312)" style="animation-play-state:paused" ></circle>
<path id="path2" d="M 1444.7784609554783 637.619896550325
c 0 26.914794569623986 -6.5855348415037405 7.730845248721784 -14.316380090225525 7.730845248721784
S 1416.1457007750273 664.534691119949 1416.1457007750273 637.619896550325
s 6.5855348415037405 -7.730845248721784 14.316380090225525 -7.730845248721784
S 1444.7784609554783 610.7051019807011 1444.7784609554783 637.619896550325
z" fill="none" stroke="none" style="animation-play-state:paused" ></path>


<circle cx="0" cy="0" r="2.147091379326304" fill="#ff708e" transform="translate(1416.6929931640625 627.5523071289062)" style="animation-play-state:paused" ></circle>
<path id="path3" d="M 162.62296942830037 344.8638758056382
c 0 27.640642489985005 -6.763135928400586 7.939333481165907 -14.702469409566492 7.939333481165907
S 133.21803060916736 372.5045182956232 133.21803060916736 344.8638758056382
s 6.763135928400586 -7.939333481165907 14.702469409566492 -7.939333481165907
S 162.62296942830037 317.2232333156532 162.62296942830037 344.8638758056382
z" fill="none" stroke="none" style="animation-play-state:paused" ></path>


<circle cx="0" cy="0" r="2.368337435974348" fill="#ff708e" transform="translate(161.7316131591797 332.9000244140625)" style="animation-play-state:paused" ></circle>
<path id="path4" d="M 1344.732572312025 68.98838621474734
c 0 25.198550857380024 -6.165602869358941 7.237881629247454 -13.403484498606396 7.237881629247454
S 1317.9256033148124 94.18693707212736 1317.9256033148124 68.98838621474734
s 6.165602869358941 -7.237881629247454 13.403484498606396 -7.237881629247454
S 1344.732572312025 43.78983535736731 1344.732572312025 68.98838621474734
z" fill="none" stroke="none" style="animation-play-state:paused" ></path>


<circle cx="0" cy="0" r="1.5238747919409492" fill="#ff708e" transform="translate(1337.0003662109375 79.07178497314453)" style="animation-play-state:paused" ></circle>
<path id="path5" d="M 60.86910248883252 234.76478781135455
c 0 18.880370136791782 -4.619665033470329 5.423085039291257 -10.042750072761585 5.423085039291257
S 40.78360234330935 253.64515794814633 40.78360234330935 234.76478781135455
s 4.619665033470329 -5.423085039291257 10.042750072761585 -5.423085039291257
S 60.86910248883252 215.88441767456277 60.86910248883252 234.76478781135455
z" fill="none" stroke="none" style="animation-play-state:paused" ></path>


<circle cx="0" cy="0" r="1.5327530656840416" fill="#de9dd6" transform="translate(60.77505111694336 230.69607543945312)" style="animation-play-state:paused" ></circle>
<path id="path6" d="M 338.19089680589684 573.527977432478
c 0 33.54137379474825 -8.20693188594904 9.634224387853221 -17.841156273802262 9.634224387853221
S 302.50858425829233 607.0693512272262 302.50858425829233 573.527977432478
s 8.20693188594904 -9.634224387853221 17.841156273802262 -9.634224387853221
S 338.19089680589684 539.9866036377298 338.19089680589684 573.527977432478
z" fill="none" stroke="none" style="animation-play-state:paused" ></path>


<circle cx="0" cy="0" r="1.5726092348276743" fill="#ff708e" transform="translate(302.58502197265625 568.414794921875)" style="animation-play-state:paused" ></circle>
<path id="path7" d="M 1316.4694451084213 586.8422686345434
c 0 22.738688348953854 -5.563721617297219 6.531325376827171 -12.09504699412439 6.531325376827171
S 1292.2793511201724 609.5809569834972 1292.2793511201724 586.8422686345434
s 5.563721617297219 -6.531325376827171 12.09504699412439 -6.531325376827171
S 1316.4694451084213 564.1035802855896 1316.4694451084213 586.8422686345434
z" fill="none" stroke="none" style="animation-play-state:paused" ></path>


<circle cx="0" cy="0" r="1.649546366670975" fill="#9df871" transform="translate(1299.7528076171875 578.1528930664062)" style="animation-play-state:paused" ></circle>
<path id="path8" d="M 1540.4096288536584 284.5484826101886
c 0 30.44092768844709 -7.448312093981734 8.743670719022036 -16.191982813003772 8.743670719022036
S 1508.025663227651 314.9894102986357 1508.025663227651 284.5484826101886
s 7.448312093981734 -8.743670719022036 16.191982813003772 -8.743670719022036
S 1540.4096288536584 254.10755492174152 1540.4096288536584 284.5484826101886
z" fill="none" stroke="none" style="animation-play-state:paused" ></path>


<circle cx="0" cy="0" r="2.214643766617903" fill="#9df871" transform="translate(1508.36767578125 293.7132873535156)" style="animation-play-state:paused" ></circle>
<path id="path9" d="M 1641.5113090938137 15.967076418986975
c 0 25.703070287720777 -6.289049112952956 7.382796784770862 -13.671845897723818 7.382796784770862
S 1614.167617298366 41.670146706707754 1614.167617298366 15.967076418986975
s 6.289049112952956 -7.382796784770862 13.671845897723818 -7.382796784770862
S 1641.5113090938137 -9.735993868733802 1641.5113090938137 15.967076418986975
z" fill="none" stroke="none" style="animation-play-state:paused" ></path>


<circle cx="0" cy="0" r="1.9992295393587907" fill="#de9dd6" transform="translate(1614.2698974609375 20.99163246154785)" style="animation-play-state:paused" ></circle>
<path id="path10" d="M 543.5973434847215 94.9233665191558
c 0 28.079066727819093 -6.870409944040841 8.065263847352293 -14.935673791393134 8.065263847352293
S 513.7259959019352 123.0024332469749 513.7259959019352 94.9233665191558
s 6.870409944040841 -8.065263847352293 14.935673791393134 -8.065263847352293
S 543.5973434847215 66.84429979133671 543.5973434847215 94.9233665191558
z" fill="none" stroke="none" style="animation-play-state:paused" ></path>


<circle cx="0" cy="0" r="2.3236486653200026" fill="#51cacc" transform="translate(535.6812744140625 106.75777435302734)" style="animation-play-state:paused" ></circle>
<path id="path11" d="M 685.1351209635874 206.79848788368486
c 0 34.66388183428942 -8.481588108389962 9.956646909849088 -18.43823501823905 9.956646909849088
S 648.2586509271092 241.46236971797427 648.2586509271092 206.79848788368486
s 8.481588108389962 -9.956646909849088 18.43823501823905 -9.956646909849088
S 685.1351209635874 172.13460604939544 685.1351209635874 206.79848788368486
z" fill="none" stroke="none" style="animation-play-state:paused" ></path>


<circle cx="0" cy="0" r="1.6531746461112327" fill="#ff708e" transform="translate(652.3671264648438 188.32522583007812)" style="animation-play-state:paused" ></circle>
<path id="path12" d="M 706.1441033406495 32.47998537805735
c 0 27.475452725297142 -6.722717156189725 7.8918853572662 -14.614602513455925 7.8918853572662
S 676.9148983137377 59.955438103354496 676.9148983137377 32.47998537805735
s 6.722717156189725 -7.8918853572662 14.614602513455925 -7.8918853572662
S 706.1441033406495 5.004532652760208 706.1441033406495 32.47998537805735
z" fill="none" stroke="none" style="animation-play-state:paused" ></path>


<circle cx="0" cy="0" r="2.1661862049261114" fill="#de9dd6" transform="translate(706.1410522460938 31.532455444335938)" style="animation-play-state:paused" ></circle>
<path id="path13" d="M 307.76165368496896 504.81286363208017
c 0 22.531132633489428 -5.51293670819422 6.471708309619304 -11.984645017813524 6.471708309619304
S 283.7923636493419 527.3439962655696 283.7923636493419 504.81286363208017
s 5.51293670819422 -6.471708309619304 11.984645017813524 -6.471708309619304
S 307.76165368496896 482.2817309985907 307.76165368496896 504.81286363208017
z" fill="none" stroke="none" style="animation-play-state:paused" ></path>


<circle cx="0" cy="0" r="1.6244921965216963" fill="#ff708e" transform="translate(301.12286376953125 514.0621948242188)" style="animation-play-state:paused" ></circle>
<path id="path14" d="M 565.7942327039167 143.71312997754217
c 0 35.94273724279382 -8.7944995381304 10.32397771867482 -19.11847725680522 10.32397771867482
S 527.5572781903062 179.65586722033598 527.5572781903062 143.71312997754217
s 8.7944995381304 -10.32397771867482 19.11847725680522 -10.32397771867482
S 565.7942327039167 107.77039273474836 565.7942327039167 143.71312997754217
z" fill="none" stroke="none" style="animation-play-state:paused" ></path>


<circle cx="0" cy="0" r="2.048707364864823" fill="#9df871" transform="translate(527.692138671875 136.8638458251953)" style="animation-play-state:paused" ></circle>
<path id="path15" d="M 1465.9104782518866 86.81060081822686
c 0 24.91346688972689 -6.095848281528919 7.155995808751341 -13.25184409028026 7.155995808751341
S 1439.4067900713262 111.72406770795375 1439.4067900713262 86.81060081822686
s 6.095848281528919 -7.155995808751341 13.25184409028026 -7.155995808751341
S 1465.9104782518866 61.89713392849997 1465.9104782518866 86.81060081822686
z" fill="none" stroke="none" style="animation-play-state:paused" ></path>


<circle cx="0" cy="0" r="2.199770124700844" fill="#de9dd6" transform="translate(1440.556396484375 98.6561508178711)" style="animation-play-state:paused" ></circle>
<path id="path16" d="M 1081.9376866218001 107.33485490056533
c 0 34.137035760940535 -8.35267896278332 9.805318782397812 -18.157997745181135 9.805318782397812
S 1045.621691131438 141.47189066150588 1045.621691131438 107.33485490056533
s 8.35267896278332 -9.805318782397812 18.157997745181135 -9.805318782397812
S 1081.9376866218001 73.1978191396248 1081.9376866218001 107.33485490056533
z" fill="none" stroke="none" style="animation-play-state:paused" ></path>


<circle cx="0" cy="0" r="1.3138548882140686" fill="#ff708e" transform="translate(1045.7186279296875 101.58110809326172)" style="animation-play-state:paused" ></circle>
<path id="path17" d="M 1472.3761853721696 14.019588111537965
c 0 29.246272217625272 -7.156002776652992 8.4005249986796 -15.556527775332592 8.4005249986796
S 1441.2631298215044 43.26586032916324 1441.2631298215044 14.019588111537965
s 7.156002776652992 -8.4005249986796 15.556527775332592 -8.4005249986796
S 1472.3761853721696 -15.226684106087307 1472.3761853721696 14.019588111537965
z" fill="none" stroke="none" style="animation-play-state:paused" ></path>


<circle cx="0" cy="0" r="1.299301239116428" fill="#9df871" transform="translate(1471.5770263671875 1.9751497507095337)" style="animation-play-state:paused" ></circle>
<path id="path18" d="M 60.60899843460807 609.0203267353236
c 0 27.414448018956072 -6.7077904727232935 7.874362728849085 -14.582153201572378 7.874362728849085
S 31.444692031463315 636.4347747542796 31.444692031463315 609.0203267353236
s 6.7077904727232935 -7.874362728849085 14.582153201572378 -7.874362728849085
S 60.60899843460807 581.6058787163676 60.60899843460807 609.0203267353236
z" fill="none" stroke="none" style="animation-play-state:paused" ></path>


<circle cx="0" cy="0" r="2.2268898010307465" fill="#51cacc" transform="translate(58.98448181152344 595.2857666015625)" style="animation-play-state:paused" ></circle>
<path id="path19" d="M 463.4904533426275 154.49864465740106
c 0 21.089595211587252 -5.160220104962838 6.057649688434637 -11.217869793397474 6.057649688434637
S 441.05471375583255 175.5882398689883 441.05471375583255 154.49864465740106
s 5.160220104962838 -6.057649688434637 11.217869793397474 -6.057649688434637
S 463.4904533426275 133.40904944581382 463.4904533426275 154.49864465740106
z" fill="none" stroke="none" style="animation-play-state:paused" ></path>


<circle cx="0" cy="0" r="1.9390553048322943" fill="#de9dd6" transform="translate(461.9739990234375 165.39898681640625)" style="animation-play-state:paused" ></circle>
<path id="path20" d="M 789.7937538136376 124.15813730166205
c 0 24.524611696893192 -6.000702862005781 7.044303359745918 -13.045006221751699 7.044303359745918
S 763.7037413701343 148.68274899855524 763.7037413701343 124.15813730166205
s 6.000702862005781 -7.044303359745918 13.045006221751699 -7.044303359745918
S 789.7937538136376 99.63352560476886 789.7937538136376 124.15813730166205
z" fill="none" stroke="none" style="animation-play-state:paused" ></path>


<circle cx="0" cy="0" r="1.841282181918484" fill="#ff708e" transform="translate(789.7387084960938 120.44300842285156)" style="animation-play-state:paused" ></circle>
<path id="path21" d="M 632.3191448440637 437.8240127323229
c 0 29.11623496502468 -7.124185151016677 8.363173872932622 -15.487359023949299 8.363173872932622
S 601.344426796165 466.94024769734756 601.344426796165 437.8240127323229
s 7.124185151016677 -8.363173872932622 15.487359023949299 -8.363173872932622
S 632.3191448440637 408.70777776729824 632.3191448440637 437.8240127323229
z" fill="none" stroke="none" style="animation-play-state:paused" ></path>


<circle cx="0" cy="0" r="2.383360455346771" fill="#51cacc" transform="translate(632.3046264648438 435.6558837890625)" style="animation-play-state:paused" ></circle>
<path id="path22" d="M 410.709948144948 592.2367202704407
c 0 29.89108228218546 -7.313775452024101 8.585736400202208 -15.89951185222631 8.585736400202208
S 378.9109244404954 622.1278025526262 378.9109244404954 592.2367202704407
s 7.313775452024101 -8.585736400202208 15.89951185222631 -8.585736400202208
S 410.709948144948 562.3456379882552 410.709948144948 592.2367202704407
z" fill="none" stroke="none" style="animation-play-state:paused" ></path>


<circle cx="0" cy="0" r="1.506923538625441" fill="#ff708e" transform="translate(385.3218078613281 606.558349609375)" style="animation-play-state:paused" ></circle>
<path id="path23" d="M 1735.4280615317427 99.84416704085665
c 0 30.56976893604048 -7.47983708009501 8.780678311415883 -16.260515391510893 8.780678311415883
S 1702.9070307487211 130.41393597689714 1702.9070307487211 99.84416704085665
s 7.47983708009501 -8.780678311415883 16.260515391510893 -8.780678311415883
S 1735.4280615317427 69.27439810481617 1735.4280615317427 99.84416704085665
z" fill="none" stroke="none" style="animation-play-state:paused" ></path>


<circle cx="0" cy="0" r="2.229485011978172" fill="#51cacc" transform="translate(1713.0970458984375 111.41280364990234)" style="animation-play-state:paused" ></circle>
<path id="path24" d="M 672.5294324389831 410.9329715522553
c 0 24.438645188765467 -5.979668503634103 7.019610852092209 -12.999279355726312 7.019610852092209
S 646.5308737275304 435.3716167410208 646.5308737275304 410.9329715522553
s 5.979668503634103 -7.019610852092209 12.999279355726312 -7.019610852092209
S 672.5294324389831 386.49432636348985 672.5294324389831 410.9329715522553
z" fill="none" stroke="none" style="animation-play-state:paused" ></path>


<circle cx="0" cy="0" r="1.7456383793298758" fill="#de9dd6" transform="translate(671.9166870117188 420.730712890625)" style="animation-play-state:paused" ></circle>
<path id="path25" d="M 195.40869169516958 545.3548114985371
c 0 25.623070430386452 -6.269474679775407 7.359818102345045 -13.629292782120451 7.359818102345045
S 168.1501061309287 570.9778819289235 168.1501061309287 545.3548114985371
s 6.269474679775407 -7.359818102345045 13.629292782120451 -7.359818102345045
S 195.40869169516958 519.7317410681507 195.40869169516958 545.3548114985371
z" fill="none" stroke="none" style="animation-play-state:paused" ></path>


<circle cx="0" cy="0" r="1.6547411190270402" fill="#9df871" transform="translate(176.47325134277344 555.2261962890625)" style="animation-play-state:paused" ></circle>
<path id="path26" d="M 1707.8762947328132 252.731852191008
c 0 20.685471914427126 -5.061338872678977 5.941571720101408 -11.002910592780387 5.941571720101408
S 1685.8704735472525 273.4173241054351 1685.8704735472525 252.731852191008
s 5.061338872678977 -5.941571720101408 11.002910592780387 -5.941571720101408
S 1707.8762947328132 232.04638027658086 1707.8762947328132 252.731852191008
z" fill="none" stroke="none" style="animation-play-state:paused" ></path>


<circle cx="0" cy="0" r="2.044626118773854" fill="#de9dd6" transform="translate(1703.97705078125 242.4069061279297)" style="animation-play-state:paused" ></circle>
<path id="path27" d="M 1583.4991470007717 202.23204414318664
c 0 19.49324117537436 -4.769622840783088 5.599122465267103 -10.36874530605019 5.599122465267103
S 1562.7616563886713 221.725285318561 1562.7616563886713 202.23204414318664
s 4.769622840783088 -5.599122465267103 10.36874530605019 -5.599122465267103
S 1583.4991470007717 182.7388029678123 1583.4991470007717 202.23204414318664
z" fill="none" stroke="none" style="animation-play-state:paused" ></path>


<circle cx="0" cy="0" r="1.6326066799746444" fill="#de9dd6" transform="translate(1569.856201171875 209.15309143066406)" style="animation-play-state:paused" ></circle>
<path id="path28" d="M 820.360722283292 47.568736569040915
c 0 33.49138421386894 -8.194700392755166 9.619865678451717 -17.814566071206883 9.619865678451717
S 784.7315901408783 81.06012078290985 784.7315901408783 47.568736569040915
s 8.194700392755166 -9.619865678451717 17.814566071206883 -9.619865678451717
S 820.360722283292 14.077352355171975 820.360722283292 47.568736569040915
z" fill="none" stroke="none" style="animation-play-state:paused" ></path>


<circle cx="0" cy="0" r="1.493671760773052" fill="#51cacc" transform="translate(817.9269409179688 30.23358726501465)" style="animation-play-state:paused" ></circle>
<path id="path29" d="M 1413.919399925388 104.22208258329445
c 0 23.23401535231347 -5.684918650034146 6.673600154387912 -12.358518804422058 6.673600154387912
S 1389.2023623165437 127.45609793560791 1389.2023623165437 104.22208258329445
s 5.684918650034146 -6.673600154387912 12.358518804422058 -6.673600154387912
S 1413.919399925388 80.98806723098099 1413.919399925388 104.22208258329445
z" fill="none" stroke="none" style="animation-play-state:paused" ></path>


<circle cx="0" cy="0" r="2.086159501988652" fill="#e0ff77" transform="translate(1397.281494140625 112.7526626586914)" style="animation-play-state:paused" ></circle>
<path id="path30" d="M 509.8714824900623 407.2210248231164
c 0 20.359051650707915 -4.981470084747681 5.847812708182061 -10.829282792929742 5.847812708182061
S 488.2129169042028 427.5800764738243 488.2129169042028 407.2210248231164
s 4.981470084747681 -5.847812708182061 10.829282792929742 -5.847812708182061
S 509.8714824900623 386.8619731724085 509.8714824900623 407.2210248231164
z" fill="none" stroke="none" style="animation-play-state:paused" ></path>


<circle cx="0" cy="0" r="1.6071118399878652" fill="#de9dd6" transform="translate(491.6638488769531 417.6449279785156)" style="animation-play-state:paused" ></circle>
<path id="path31" d="M 1093.8582706686084 663.3028440560287
c 0 30.19842519409481 -7.388976377278516 8.674015747239999 -16.062992124518516 8.674015747239999
S 1061.7322864195712 693.5012692501235 1061.7322864195712 663.3028440560287
s 7.388976377278516 -8.674015747239999 16.062992124518516 -8.674015747239999
S 1093.8582706686084 633.1044188619338 1093.8582706686084 663.3028440560287
z" fill="none" stroke="none" style="animation-play-state:paused" ></path>


<circle cx="0" cy="0" r="1.6054421305667235" fill="#e0ff77" transform="translate(1061.7337646484375 664.0258178710938)" style="animation-play-state:paused" ></circle>
<path id="path32" d="M 82.57506277545528 217.36001989072372
c 0 33.06779788721906 -8.09105692985147 9.498197265477815 -17.589254195329286 9.498197265477815
S 47.3965543847967 250.42781777794278 47.3965543847967 217.36001989072372
s 8.09105692985147 -9.498197265477815 17.589254195329286 -9.498197265477815
S 82.57506277545528 184.29222200350466 82.57506277545528 217.36001989072372
z" fill="none" stroke="none" style="animation-play-state:paused" ></path>


<circle cx="0" cy="0" r="2.0946581282722976" fill="#de9dd6" transform="translate(54.67538070678711 201.66885375976562)" style="animation-play-state:paused" ></circle>
<path id="path33" d="M 1369.1575567734044 117.9046778587881
c 0 36.472689554570366 -8.92416872079913 10.476198063546807 -19.400366784345938 10.476198063546807
S 1330.3568232047123 154.37736741335846 1330.3568232047123 117.9046778587881
s 8.92416872079913 -10.476198063546807 19.400366784345938 -10.476198063546807
S 1369.1575567734044 81.43198830421774 1369.1575567734044 117.9046778587881
z" fill="none" stroke="none" style="animation-play-state:paused" ></path>


<circle cx="0" cy="0" r="1.8639919231890714" fill="#ff708e" transform="translate(1354.6883544921875 130.0478515625)" style="animation-play-state:paused" ></circle>
<path id="path34" d="M 1248.0651237543618 142.58658588194925
c 0 21.730653532456053 -5.317074800494566 6.241783461450143 -11.558858261944708 6.241783461450143
S 1224.9474072304722 164.3172394144053 1224.9474072304722 142.58658588194925
s 5.317074800494566 -6.241783461450143 11.558858261944708 -6.241783461450143
S 1248.0651237543618 120.8559323494932 1248.0651237543618 142.58658588194925
z" fill="none" stroke="none" style="animation-play-state:paused" ></path>


<circle cx="0" cy="0" r="2.316405455517608" fill="#e0ff77" transform="translate(1232.6236572265625 150.4739990234375)" style="animation-play-state:paused" ></circle>
<path id="path35" d="M 1628.8384086151723 262.68124837844505
c 0 21.565915888003918 -5.276766653447767 6.1944652018734665 -11.471231855321234 6.1944652018734665
S 1605.8959449045296 284.247164266449 1605.8959449045296 262.68124837844505
s 5.276766653447767 -6.1944652018734665 11.471231855321234 -6.1944652018734665
S 1628.8384086151723 241.11533249044112 1628.8384086151723 262.68124837844505
z" fill="none" stroke="none" style="animation-play-state:paused" ></path>


<circle cx="0" cy="0" r="2.1433518707988712" fill="#51cacc" transform="translate(1606.1256103515625 256.3249206542969)" style="animation-play-state:paused" ></circle>
<path id="path36" d="M 1450.1084486846496 89.64915175018682
c 0 21.581336261842893 -5.280539723642409 6.198894458188916 -11.479434181831325 6.198894458188916
S 1427.149580320987 111.23048801202971 1427.149580320987 89.64915175018682
s 5.280539723642409 -6.198894458188916 11.479434181831325 -6.198894458188916
S 1450.1084486846496 68.06781548834392 1450.1084486846496 89.64915175018682
z" fill="none" stroke="none" style="animation-play-state:paused" ></path>


<circle cx="0" cy="0" r="2.0626766309707687" fill="#9df871" transform="translate(1436.3660888671875 96.46173858642578)" style="animation-play-state:paused" ></circle>
<path id="path37" d="M 1245.5906155037405 80.98249327782361
c 0 33.837062426893226 -8.27928123211217 9.719156229001246 -17.99843746111342 9.719156229001246
S 1209.5937405815139 114.81955570471683 1209.5937405815139 80.98249327782361
s 8.27928123211217 -9.719156229001246 17.99843746111342 -9.719156229001246
S 1245.5906155037405 47.14543085093038 1245.5906155037405 80.98249327782361
z" fill="none" stroke="none" style="animation-play-state:paused" ></path>


<circle cx="0" cy="0" r="1.5082170284882566" fill="#9df871" transform="translate(1216.758056640625 97.26978302001953)" style="animation-play-state:paused" ></circle>
<path id="path38" d="M 504.07479971850375 504.01134028927953
c 0 22.30762471912414 -5.458248601487821 6.40750922783353 -11.86575782932135 6.40750922783353
S 480.34328405986105 526.3189650084037 480.34328405986105 504.01134028927953
s 5.458248601487821 -6.40750922783353 11.86575782932135 -6.40750922783353
S 504.07479971850375 481.7037155701554 504.07479971850375 504.01134028927953
z" fill="none" stroke="none" style="animation-play-state:paused" ></path>


<circle cx="0" cy="0" r="2.0712937946164494" fill="#de9dd6" transform="translate(504.03106689453125 500.838134765625)" style="animation-play-state:paused" ></circle>
<path id="path39" d="M 794.61565219617 653.9279721282829
c 0 36.64084109811207 -8.965312183580611 10.524496911159849 -19.48980909474046 10.524496911159849
S 755.636034006689 690.568813226395 755.636034006689 653.9279721282829
s 8.965312183580611 -10.524496911159849 19.48980909474046 -10.524496911159849
S 794.61565219617 617.2871310301708 794.61565219617 653.9279721282829
z" fill="none" stroke="none" style="animation-play-state:paused" ></path>


<circle cx="0" cy="0" r="1.443159101781685" fill="#9df871" transform="translate(756.1038208007812 665.511962890625)" style="animation-play-state:paused" ></circle>
<path id="path40" d="M 846.0197834840681 258.86566140155435
c 0 33.94125984405132 -8.304776344821066 9.749085274355167 -18.05386161917623 9.749085274355167
S 809.9120602457156 292.8069212456057 809.9120602457156 258.86566140155435
s 8.304776344821066 -9.749085274355167 18.05386161917623 -9.749085274355167
S 846.0197834840681 224.92440155750302 846.0197834840681 258.86566140155435
z" fill="none" stroke="none" style="animation-play-state:paused" ></path>


<circle cx="0" cy="0" r="1.2877790187139948" fill="#e0ff77" transform="translate(810.0380859375 252.42715454101562)" style="animation-play-state:paused" ></circle>
<path id="path41" d="M 510.36769439571077 80.58221950987783
c 0 36.45905195726078 -8.920831861882956 10.472280881340863 -19.39311274322382 10.472280881340863
S 471.58146890926315 117.04127146713861 471.58146890926315 80.58221950987783
s 8.920831861882956 -10.472280881340863 19.39311274322382 -10.472280881340863
S 510.36769439571077 44.12316755261705 510.36769439571077 80.58221950987783
z" fill="none" stroke="none" style="animation-play-state:paused" ></path>


<circle cx="0" cy="0" r="2.40072901242827" fill="#e0ff77" transform="translate(473.7010498046875 62.38121032714844)" style="animation-play-state:paused" ></circle>
<path id="path42" d="M 877.5477819409359 330.9186462221741
c 0 35.598948329419585 -8.710380974219685 10.22522983930137 -18.935610813521055 10.22522983930137
S 839.6765603138938 366.5175945515937 839.6765603138938 330.9186462221741
s 8.710380974219685 -10.22522983930137 18.935610813521055 -10.22522983930137
S 877.5477819409359 295.31969789275456 877.5477819409359 330.9186462221741
z" fill="none" stroke="none" style="animation-play-state:paused" ></path>


<circle cx="0" cy="0" r="2.2851566013950246" fill="#e0ff77" transform="translate(867.7930908203125 346.1667785644531)" style="animation-play-state:paused" ></circle>
<path id="path43" d="M 1552.747056058522 573.8902392385842
c 0 30.95195332330606 -7.57335028123446 8.89045467797089 -16.46380495920535 8.89045467797089
S 1519.8194461401113 604.8421925618902 1519.8194461401113 573.8902392385842
s 7.57335028123446 -8.89045467797089 16.46380495920535 -8.89045467797089
S 1552.747056058522 542.9382859152781 1552.747056058522 573.8902392385842
z" fill="none" stroke="none" style="animation-play-state:paused" ></path>


<circle cx="0" cy="0" r="1.6961537068090933" fill="#ff708e" transform="translate(1548.3126220703125 557.6124877929688)" style="animation-play-state:paused" ></circle>
<path id="path44" d="M 119.43719148278728 363.1338367818785
c 0 26.29025077388384 -6.432720934035408 7.551455009519827 -13.984175943555234 7.551455009519827
S 91.46883959567683 389.4240875557623 91.46883959567683 363.1338367818785
s 6.432720934035408 -7.551455009519827 13.984175943555234 -7.551455009519827
S 119.43719148278728 336.84358600799465 119.43719148278728 363.1338367818785
z" fill="none" stroke="none" style="animation-play-state:paused" ></path>


<circle cx="0" cy="0" r="2.3315092361709113" fill="#9df871" transform="translate(119.42937469482422 364.64190673828125)" style="animation-play-state:paused" ></circle>
<path id="path45" d="M 541.9834287168694 38.90732301826197
c 0 28.910018262022078 -7.073727872622422 8.303941415687193 -15.377669288309615 8.303941415687193
S 511.22809014025023 67.81734128028404 511.22809014025023 38.90732301826197
s 7.073727872622422 -8.303941415687193 15.377669288309615 -8.303941415687193
S 541.9834287168694 9.997304756239892 541.9834287168694 38.90732301826197
z" fill="none" stroke="none" style="animation-play-state:paused" ></path>


<circle cx="0" cy="0" r="1.3950294408500608" fill="#de9dd6" transform="translate(527.8953857421875 30.44471549987793)" style="animation-play-state:paused" ></circle>
<path id="path46" d="M 1729.3999848004248 652.7238069169052
c 0 20.188121828691617 -4.939646830424544 5.798715844411422 -10.738362674835965 5.798715844411422
S 1707.9232594507528 672.9119287455968 1707.9232594507528 652.7238069169052
s 4.939646830424544 -5.798715844411422 10.738362674835965 -5.798715844411422
S 1729.3999848004248 632.5356850882137 1729.3999848004248 652.7238069169052
z" fill="none" stroke="none" style="animation-play-state:paused" ></path>


<circle cx="0" cy="0" r="2.1362081925838123" fill="#9df871" transform="translate(1724.3824462890625 643.6310424804688)" style="animation-play-state:paused" ></circle>
<path id="path47" d="M 671.2740633064319 319.9447818467278
c 0 27.597603183380134 -6.752605034231309 7.926971127141103 -14.679576161372411 7.926971127141103
S 641.914910983687 347.54238503010794 641.914910983687 319.9447818467278
s 6.752605034231309 -7.926971127141103 14.679576161372411 -7.926971127141103
S 671.2740633064319 292.3471786633476 671.2740633064319 319.9447818467278
z" fill="none" stroke="none" style="animation-play-state:paused" ></path>


<circle cx="0" cy="0" r="2.086126055674113" fill="#de9dd6" transform="translate(670.7926635742188 310.15802001953125)" style="animation-play-state:paused" ></circle>
<path id="path48" d="M 1274.1714395538372 612.252980906787
c 0 30.029199843855086 -7.347570174560286 8.625408465788164 -15.97297864034845 8.625408465788164
S 1242.2254822731404 642.282180750642 1242.2254822731404 612.252980906787
s 7.347570174560286 -8.625408465788164 15.97297864034845 -8.625408465788164
S 1274.1714395538372 582.223781062932 1274.1714395538372 612.252980906787
z" fill="none" stroke="none" style="animation-play-state:paused" ></path>


<circle cx="0" cy="0" r="2.2808233236686655" fill="#51cacc" transform="translate(1265.1842041015625 624.4618530273438)" style="animation-play-state:paused" ></circle>
<path id="path49" d="M 1328.7529117989945 162.11533701239756
c 0 23.819194438624088 -5.828100766897382 6.841683508966494 -12.669784275863876 6.841683508966494
S 1303.413343247267 185.93453145102166 1303.413343247267 162.11533701239756
s 5.828100766897382 -6.841683508966494 12.669784275863876 -6.841683508966494
S 1328.7529117989945 138.29614257377347 1328.7529117989945 162.11533701239756
z" fill="none" stroke="none" style="animation-play-state:paused" ></path>


<circle cx="0" cy="0" r="2.166658071624576" fill="#e0ff77" transform="translate(1304.1578369140625 151.90023803710938)" style="animation-play-state:paused" ></circle>
<path id="path50" d="M 1741.9811011866 235.45201487127542
c 0 29.017099742987575 -7.099928660518236 8.334698862347496 -15.434627522865732 8.334698862347496
S 1711.1118461408687 264.469114614263 1711.1118461408687 235.45201487127542
s 7.099928660518236 -8.334698862347496 15.434627522865732 -8.334698862347496
S 1741.9811011866 206.43491512828786 1741.9811011866 235.45201487127542
z" fill="none" stroke="none" style="animation-play-state:paused" ></path>


<circle cx="0" cy="0" r="1.8631456395273878" fill="#de9dd6" transform="translate(1735.053955078125 222.1367950439453)" style="animation-play-state:paused" ></circle>
<path id="path51" d="M 1744.5462304074351 498.2754178749976
c 0 24.528623910602192 -6.001684573870748 7.045455804109141 -13.04714037797989 7.045455804109141
S 1718.4519496514752 522.8040417855998 1718.4519496514752 498.2754178749976
s 6.001684573870748 -7.045455804109141 13.04714037797989 -7.045455804109141
S 1744.5462304074351 473.74679396439535 1744.5462304074351 498.2754178749976
z" fill="none" stroke="none" style="animation-play-state:paused" ></path>


<circle cx="0" cy="0" r="1.4917114520122177" fill="#de9dd6" transform="translate(1738.3038330078125 487.3536682128906)" style="animation-play-state:paused" ></circle>
<path id="path52" d="M 582.7812232202507 352.52275646157807
c 0 29.849145044352124 -7.303514212979775 8.573690597845824 -15.877204810825598 8.573690597845824
S 551.0268135985996 382.37190150593017 551.0268135985996 352.52275646157807
s 7.303514212979775 -8.573690597845824 15.877204810825598 -8.573690597845824
S 582.7812232202507 322.67361141722597 582.7812232202507 352.52275646157807
z" fill="none" stroke="none" style="animation-play-state:paused" ></path>


<circle cx="0" cy="0" r="1.931951349998694" fill="#e0ff77" transform="translate(554.5536499023438 336.6141052246094)" style="animation-play-state:paused" ></circle>
<path id="path53" d="M 1085.3105062008963 394.06576540508524
c 0 32.016710412962475 -7.833875952107839 9.196289161170073 -17.03016511327791 9.196289161170073
S 1051.2501759743404 426.0824758180477 1051.2501759743404 394.06576540508524
s 7.833875952107839 -9.196289161170073 17.03016511327791 -9.196289161170073
S 1085.3105062008963 362.04905499212276 1085.3105062008963 394.06576540508524
z" fill="none" stroke="none" style="animation-play-state:paused" ></path>


<circle cx="0" cy="0" r="2.157590483424585" fill="#51cacc" transform="translate(1051.5491943359375 403.0267639160156)" style="animation-play-state:paused" ></circle></g></svg>