<?xml version="1.0" encoding="utf-8"?><svg xmlns="http://www.w3.org/2000/svg" xmlns:xlink="http://www.w3.org/1999/xlink" width="1775" height="704" preserveAspectRatio="xMidYMid" viewBox="0 0 1775 704" style="z-index:1;margin-right:-2px;display:block;background-repeat-y:initial;background-repeat-x:initial;animation-play-state:paused" ><g transform="translate(887.5,352) scale(1,1) translate(-887.5,-352)" style="transform:matrix(1, 0, 0, 1, 0, 0);animation-play-state:paused" ><path id="path0" d="M 73.01380859596595 621.6315861111889
c 0 24.611315973157165 -6.021917738112923 7.069207779523867 -13.09112551763679 7.069207779523867
S 46.831557560692374 646.242902084346 46.831557560692374 621.6315861111889
s 6.021917738112923 -7.069207779523867 13.09112551763679 -7.069207779523867
S 73.01380859596595 597.0202701380317 73.01380859596595 621.6315861111889
z" fill="none" stroke="none" style="animation-play-state:paused" ></path>


<circle cx="0" cy="0" r="1.8100324058139106" fill="#7b6bc5" transform="translate(50.25383758544922 634.6163940429688)" style="animation-play-state:paused" ></circle>
<path id="path1" d="M 1534.7998935569146 149.65584047964072
c 0 37.08617780896563 -9.074277549002227 10.652412774915659 -19.726690323917886 10.652412774915659
S 1495.346512909079 186.74201828860635 1495.346512909079 149.65584047964072
s 9.074277549002227 -10.652412774915659 19.726690323917886 -10.652412774915659
S 1534.7998935569146 112.56966267067509 1534.7998935569146 149.65584047964072
z" fill="none" stroke="none" style="animation-play-state:paused" ></path>


<circle cx="0" cy="0" r="1.0835205685182028" fill="#7b6bc5" transform="translate(1529.6356201171875 130.0922088623047)" style="animation-play-state:paused" ></circle>
<path id="path2" d="M 119.97439104249749 663.8938282367712
c 0 25.908419931795482 -6.339294238630808 7.441780193175298 -13.781074431806106 7.441780193175298
S 92.41224217888528 689.8022481685667 92.41224217888528 663.8938282367712
s 6.339294238630808 -7.441780193175298 13.781074431806106 -7.441780193175298
S 119.97439104249749 637.9854083049757 119.97439104249749 663.8938282367712
z" fill="none" stroke="none" style="animation-play-state:paused" ></path>


<circle cx="0" cy="0" r="1.8181548363275026" fill="#7b6bc5" transform="translate(93.89810943603516 650.9932861328125)" style="animation-play-state:paused" ></circle>
<path id="path3" d="M 689.4866363280835 171.55954567073857
c 0 19.74115126529341 -4.830281692571791 5.670330682584278 -10.500612375156068 5.670330682584278
S 668.4854115777714 191.30069693603198 668.4854115777714 171.55954567073857
s 4.830281692571791 -5.670330682584278 10.500612375156068 -5.670330682584278
S 689.4866363280835 151.81839440544516 689.4866363280835 171.55954567073857
z" fill="none" stroke="none" style="animation-play-state:paused" ></path>


<circle cx="0" cy="0" r="1.722380068942626" fill="#a899f0" transform="translate(668.6835327148438 177.2440185546875)" style="animation-play-state:paused" ></circle>
<path id="path4" d="M 1032.330855059988 414.7377221935838
c 0 21.364492052762756 -5.227482098016418 6.136609419410579 -11.364091517426997 6.136609419410579
S 1009.602672025134 436.10221424634653 1009.602672025134 414.7377221935838
s 5.227482098016418 -6.136609419410579 11.364091517426997 -6.136609419410579
S 1032.330855059988 393.3732301408211 1032.330855059988 414.7377221935838
z" fill="none" stroke="none" style="animation-play-state:paused" ></path>


<circle cx="0" cy="0" r="1.5790810445509942" fill="#6e5eb8" transform="translate(1009.6057739257812 413.9402770996094)" style="animation-play-state:paused" ></circle>
<path id="path5" d="M 1650.2936452979445 140.19855347946668
c 0 21.08258980945897 -5.158506017208045 6.055637498461619 -11.214143515669663 6.055637498461619
S 1627.865358266605 161.28114328892565 1627.865358266605 140.19855347946668
s 5.158506017208045 -6.055637498461619 11.214143515669663 -6.055637498461619
S 1650.2936452979445 119.11596367000772 1650.2936452979445 140.19855347946668
z" fill="none" stroke="none" style="animation-play-state:paused" ></path>


<circle cx="0" cy="0" r="1.6817424047972944" fill="#6e5eb8" transform="translate(1636.864990234375 146.855712890625)" style="animation-play-state:paused" ></circle>
<path id="path6" d="M 787.7789485860476 449.0367259196411
c 0 28.689587707676015 -7.019792736984556 8.240626256460132 -15.260418993444688 8.240626256460132
S 757.2581105991583 477.72631362731715 757.2581105991583 449.0367259196411
s 7.019792736984556 -8.240626256460132 15.260418993444688 -8.240626256460132
S 787.7789485860476 420.3471382119651 787.7789485860476 449.0367259196411
z" fill="none" stroke="none" style="animation-play-state:paused" ></path>


<circle cx="0" cy="0" r="1.1008693249300177" fill="#7b6bc5" transform="translate(774.0057373046875 440.5850524902344)" style="animation-play-state:paused" ></circle>
<path id="path7" d="M 938.738792334294 529.4250180134763
c 0 34.676585341872816 -8.484696413436964 9.960295789686873 -18.444992203123835 9.960295789686873
S 901.8488079280462 564.1016033553492 901.8488079280462 529.4250180134763
s 8.484696413436964 -9.960295789686873 18.444992203123835 -9.960295789686873
S 938.738792334294 494.74843267160355 938.738792334294 529.4250180134763
z" fill="none" stroke="none" style="animation-play-state:paused" ></path>


<circle cx="0" cy="0" r="1.6858314451374563" fill="#7b6bc5" transform="translate(937.884765625 543.2482299804688)" style="animation-play-state:paused" ></circle>
<path id="path8" d="M 823.4516349293059 246.31970122267063
c 0 33.089930808481604 -8.09647243186252 9.504554593925567 -17.60102702578809 9.504554593925567
S 788.2495808777297 279.4096320311522 788.2495808777297 246.31970122267063
s 8.09647243186252 -9.504554593925567 17.60102702578809 -9.504554593925567
S 823.4516349293059 213.22977041418903 823.4516349293059 246.31970122267063
z" fill="none" stroke="none" style="animation-play-state:paused" ></path>


<circle cx="0" cy="0" r="1.5538381861894963" fill="#6e5eb8" transform="translate(823.4229736328125 249.52418518066406)" style="animation-play-state:paused" ></circle>
<path id="path9" d="M 1204.2147306626061 185.3765568394662
c 0 30.905021350805875 -7.561866926261011 8.876974217784666 -16.43884114404568 8.876974217784666
S 1171.3370483745148 216.28157819027206 1171.3370483745148 185.3765568394662
s 7.561866926261011 -8.876974217784666 16.43884114404568 -8.876974217784666
S 1204.2147306626061 154.47153548866032 1204.2147306626061 185.3765568394662
z" fill="none" stroke="none" style="animation-play-state:paused" ></path>


<circle cx="0" cy="0" r="1.5858192502741963" fill="#7b6bc5" transform="translate(1178.712890625 199.55963134765625)" style="animation-play-state:paused" ></circle>
<path id="path10" d="M 513.4204742990715 117.12805666054705
c 0 26.03708978780467 -6.370777288505398 7.478738556071554 -13.849515844576953 7.478738556071554
S 485.72144260991763 143.16514644835172 485.72144260991763 117.12805666054705
s 6.370777288505398 -7.478738556071554 13.849515844576953 -7.478738556071554
S 513.4204742990715 91.09096687274237 513.4204742990715 117.12805666054705
z" fill="none" stroke="none" style="animation-play-state:paused" ></path>


<circle cx="0" cy="0" r="1.8566082573663265" fill="#7b6bc5" transform="translate(487.8995361328125 130.8255157470703)" style="animation-play-state:paused" ></circle>
<path id="path11" d="M 677.9556112353463 49.172303160475906
c 0 24.43176671288974 -5.977985472302808 7.017635119659819 -12.995620591962627 7.017635119659819
S 651.964370051421 73.60406987336565 651.964370051421 49.172303160475906
s 5.977985472302808 -7.017635119659819 12.995620591962627 -7.017635119659819
S 677.9556112353463 24.740536447586166 677.9556112353463 49.172303160475906
z" fill="none" stroke="none" style="animation-play-state:paused" ></path>


<circle cx="0" cy="0" r="1.416964503554189" fill="#6e5eb8" transform="translate(674.825927734375 36.19692611694336)" style="animation-play-state:paused" ></circle>
<path id="path12" d="M 655.0841014112574 303.43415194038096
c 0 23.95749517615505 -5.861940309059214 6.8814081888956 -12.743348497954814 6.8814081888956
S 629.5974044153478 327.391647116536 629.5974044153478 303.43415194038096
s 5.861940309059214 -6.8814081888956 12.743348497954814 -6.8814081888956
S 655.0841014112574 279.47665676422594 655.0841014112574 303.43415194038096
z" fill="none" stroke="none" style="animation-play-state:paused" ></path>


<circle cx="0" cy="0" r="1.8539799049172703" fill="#6e5eb8" transform="translate(629.6004028320312 302.5570373535156)" style="animation-play-state:paused" ></circle>
<path id="path13" d="M 1683.0285377069242 142.2997660717909
c 0 27.294257140192894 -6.678382066217409 7.8398398168639165 -14.518221883081326 7.8398398168639165
S 1653.9920939407614 169.5940232119838 1653.9920939407614 142.2997660717909
s 6.678382066217409 -7.8398398168639165 14.518221883081326 -7.8398398168639165
S 1683.0285377069242 115.00550893159802 1683.0285377069242 142.2997660717909
z" fill="none" stroke="none" style="animation-play-state:paused" ></path>


<circle cx="0" cy="0" r="1.6734376746855022" fill="#6e5eb8" transform="translate(1654.154052734375 148.63877868652344)" style="animation-play-state:paused" ></circle>
<path id="path14" d="M 891.3868289734107 194.21923060200987
c 0 33.933757572521365 -8.302940682638205 9.746930366575286 -18.04987104921349 9.746930366575286
S 855.2870868749837 228.15298817453123 855.2870868749837 194.21923060200987
s 8.302940682638205 -9.746930366575286 18.04987104921349 -9.746930366575286
S 891.3868289734107 160.28547302948851 891.3868289734107 194.21923060200987
z" fill="none" stroke="none" style="animation-play-state:paused" ></path>


<circle cx="0" cy="0" r="1.6562824115000778" fill="#6e5eb8" transform="translate(888.7593383789062 176.51390075683594)" style="animation-play-state:paused" ></circle>
<path id="path15" d="M 1223.2341002791202 249.38520331393914
c 0 28.724707193829325 -7.028385802745472 8.250713768440338 -15.27909957118581 8.250713768440338
S 1192.6759011367487 278.10991050776846 1192.6759011367487 249.38520331393914
s 7.028385802745472 -8.250713768440338 15.27909957118581 -8.250713768440338
S 1223.2341002791202 220.66049612010983 1223.2341002791202 249.38520331393914
z" fill="none" stroke="none" style="animation-play-state:paused" ></path>


<circle cx="0" cy="0" r="1.5479951012110054" fill="#7b6bc5" transform="translate(1220.02783203125 234.06280517578125)" style="animation-play-state:paused" ></circle>
<path id="path16" d="M 1405.5853262585815 573.1071680366448
c 0 18.863807825243764 -4.6156125529851755 5.418327779591294 -10.03394033257647 5.418327779591294
S 1385.5174455934284 591.9709758618885 1385.5174455934284 573.1071680366448
s 4.6156125529851755 -5.418327779591294 10.03394033257647 -5.418327779591294
S 1405.5853262585815 554.2433602114011 1405.5853262585815 573.1071680366448
z" fill="none" stroke="none" style="animation-play-state:paused" ></path>


<circle cx="0" cy="0" r="1.782729225848785" fill="#7b6bc5" transform="translate(1385.56201171875 570.205322265625)" style="animation-play-state:paused" ></circle>
<path id="path17" d="M 197.85837569239126 584.2128882898804
c 0 37.17223361802703 -9.095333757602358 10.677130932837551 -19.772464690439907 10.677130932837551
S 158.31344631151146 621.3851219079074 158.31344631151146 584.2128882898804
s 9.095333757602358 -10.677130932837551 19.772464690439907 -10.677130932837551
S 197.85837569239126 547.0406546718534 197.85837569239126 584.2128882898804
z" fill="none" stroke="none" style="animation-play-state:paused" ></path>


<circle cx="0" cy="0" r="1.5644717437077138" fill="#7b6bc5" transform="translate(158.38357543945312 589.4049072265625)" style="animation-play-state:paused" ></circle>
<path id="path18" d="M 1376.9511429492077 152.87434031250925
c 0 29.643442257418513 -7.253182680006657 8.514605754790423 -15.767788434797081 8.514605754790423
S 1345.4155660796137 182.51778256992776 1345.4155660796137 152.87434031250925
s 7.253182680006657 -8.514605754790423 15.767788434797081 -8.514605754790423
S 1376.9511429492077 123.23089805509073 1376.9511429492077 152.87434031250925
z" fill="none" stroke="none" style="animation-play-state:paused" ></path>


<circle cx="0" cy="0" r="1.575210381623828" fill="#a899f0" transform="translate(1345.5111083984375 158.15296936035156)" style="animation-play-state:paused" ></circle>
<path id="path19" d="M 387.68904257153486 134.2926908369937
c 0 19.383013383511138 -4.742652210859108 5.567461291008518 -10.310113501867626 5.567461291008518
S 367.06881556779956 153.67570422050483 367.06881556779956 134.2926908369937
s 4.742652210859108 -5.567461291008518 10.310113501867626 -5.567461291008518
S 387.68904257153486 114.90967745348256 387.68904257153486 134.2926908369937
z" fill="none" stroke="none" style="animation-play-state:paused" ></path>


<circle cx="0" cy="0" r="1.9019655051480886" fill="#6e5eb8" transform="translate(369.22613525390625 144.63214111328125)" style="animation-play-state:paused" ></circle></g></svg>