<?xml version="1.0" encoding="UTF-8" standalone="no"?>
<svg
   width="1600"
   height="1600"
   viewBox="0 0 1600 1600"
   version="1.1"
   id="svg85"
   sodipodi:docname="Whangaehu.svg"
   inkscape:version="1.1.2 (b8e25be833, 2022-02-05)"
   xmlns:inkscape="http://www.inkscape.org/namespaces/inkscape"
   xmlns:sodipodi="http://sodipodi.sourceforge.net/DTD/sodipodi-0.dtd"
   xmlns="http://www.w3.org/2000/svg"
   xmlns:svg="http://www.w3.org/2000/svg"
   xmlns:rdf="http://www.w3.org/1999/02/22-rdf-syntax-ns#"
   xmlns:cc="http://creativecommons.org/ns#"
   xmlns:dc="http://purl.org/dc/elements/1.1/">
  <defs
     id="defs89" />
  <sodipodi:namedview
     id="namedview87"
     pagecolor="#ffffff"
     bordercolor="#666666"
     borderopacity="1.0"
     inkscape:pageshadow="2"
     inkscape:pageopacity="0.0"
     inkscape:pagecheckerboard="0"
     showgrid="false"
     inkscape:zoom="0.61164737"
     inkscape:cx="608.19358"
     inkscape:cy="544.43135"
     inkscape:window-width="1366"
     inkscape:window-height="705"
     inkscape:window-x="-8"
     inkscape:window-y="-8"
     inkscape:window-maximized="1"
     inkscape:current-layer="Shape"
     height="1600px" />
  <!-- Generator: Sketch 55.2 (78181) - https://sketchapp.com -->
  <title
     id="title2">Whangaehu</title>
  <desc
     id="desc4">Created with Sketch.</desc>
  <g
     id="Patterns"
     stroke="none"
     stroke-width="1"
     fill="none"
     fill-rule="evenodd">
    <g
       id="Whangaehu"
       stroke-width="5">
      <g
         transform="translate(-146,-400)"
         id="Shape">
        <path
           d="m 563.74546,1073.5558 c -0.1124,-29.392 -44.93959,-62.444 -64.08809,-79.48433 -37.86156,-33.7034 -77.23995,-64.8269 -116.25305,-96.4474 -39.01321,-31.6206 -78.13172,-63.15541 -115.33327,-97.87031 -24.15501,-22.53473 -52.53713,-47.91516 -68.91903,-80.09283 -34.89838,-68.57268 75.13337,-58.38962 103.63485,-59.88968 72.50726,-3.83145 155.67349,-2.08287 223.63767,-37.79205 40.57196,-21.31753 56.7502,-57.06959 48.03619,-109.17628 -2.80875,-16.94596 -11.12261,-36.44632 -4.07966,-52.95518 7.52033,-17.63178 24.8221,-27.80619 39.1817,-34.62914 52.37561,-24.85757 112.59468,-27.73762 168.0108,-30.85774 59.75564,-3.4286 120.07294,-2.42578 179.40712,-2.69147 25.15927,-0.11136 51.43481,-11.143 75.39331,-20.10896 31.4084,-11.7516 62.4449,-24.95187 93.5936,-37.71493 68.5259,-28.01184 139.1373,-57.51521 211.6374,-64.62966 45.403,-4.45722 95.0262,1.56855 130.2968,40.3378 17.709,19.46612 26.9777,48.40378 37.2154,74.10995 12.3936,31.05474 24.2955,62.40964 37.4896,92.97588 42.5029,98.44456 103.1855,194.6434 201.6804,199.47777 14.9003,0.7286 29.5337,-1.64566 44.3638,-2.0914 9.4444,-0.27432 17.8494,2.51142 21.3602,14.5717 8.8265,30.24904 -18.9166,78.00133 -30.292,102.00179 -24.9064,52.53514 -52.9935,102.71324 -79.3043,154.19414 -17.407,34.0463 -47.5376,80.57283 -47.8536,121.93933 -0.2809,36.8578 39.8838,63.4983 61.7497,81.653 20.4897,16.9973 57.614,40.7835 59.861,75.3612 1.0883,16.766 -7.9698,30.6605 -17.4281,41.4436 -16.5786,18.8575 -35.6778,32.1605 -50.5922,53.6752 -24.4569,35.2978 -44.8905,83.8644 -41.569,131.428 2.303,32.9579 17.7089,54.541 37.3068,75.1728 8.2366,8.6745 14.9213,14.8117 15.3568,28.8948 0.7021,22.3633 -6.4741,46.0294 -12.3866,66.7641 -21.1497,74.2041 -51.1891,145.9569 -84.6058,212.9523 -16.6978,33.4806 -34.7369,66.8583 -56.8765,95.4187 -14.5002,18.7546 -34.0559,41.0751 -56.1746,41.0494 -25.6085,0 -52.7057,-11.2801 -77.5981,-19.7146 -46.4913,-15.7633 -92.421,-33.9863 -138.1681,-52.681 -105.7952,-43.2522 -210.5958,-90.0073 -314.40154,-140.2653 -73.1182,-35.4606 -147.78805,-70.9727 -216.5315,-118.1164 -13.40653,-9.2578 -26.06073,-20.0524 -37.79142,-32.2377 -12.53391,-12.7973 -28.08719,-18.5232 -43.8582,-22.7918 -97.88404,-26.4948 -205.12107,-6.1543 -303.41234,6.6001 -24.94854,3.2315 -49.89707,6.48 -74.91575,8.743 -21.50777,1.9458 -47.25681,7.5259 -68.16066,-0.8572 -41.18994,-16.5002 -5.18208,-77.3155 10.0412,-102.096 53.5974,-87.2502 122.74819,-161.0686 186.84324,-236.4299 30.47467,-35.8892 61.18109,-71.6841 89.99854,-109.6048 15.00567,-19.7147 44.59553,-51.7723 44.49729,-77.5385 z"
           stroke="#5be7c3"
           id="path6"
           style="stroke:#1f217c;stroke-width:5.20351;stroke-opacity:.4" />
        <path
           d="m 582.21572,1068.601 c -16.42819,-31.1011 -45.25147,-54.0884 -69.17711,-75.72213 -34.43048,-31.144 -69.94297,-60.5571 -104.92147,-90.8185 -33.07433,-28.6166 -66.21892,-57.5586 -96.84792,-90.0562 -18.67675,-19.81736 -42.11054,-43.5158 -50.95714,-72.82623 -19.18959,-63.53017 84.04552,-53.89139 109.53106,-55.5536 63.35897,-4.11254 135.19217,-5.055 193.80824,-38.50357 36.60169,-20.88834 51.63869,-55.5279 43.83206,-103.61893 -2.69822,-16.63865 -7.56069,-30.84401 -1.40536,-47.39701 7.11799,-19.15754 23.49,-31.10105 38.4989,-39.53178 47.01515,-26.41447 102.58863,-32.02646 153.55273,-36.69588 52.65046,-4.82365 107.50729,-8.22507 158.46427,-4.69511 20.37728,1.40515 43.83212,-6.57152 63.99852,-12.68887 31.0296,-9.42459 61.743,-20.29712 92.618,-30.40712 62.7477,-20.56271 127.1256,-40.37143 192.4029,-42.62475 47.1276,-1.62787 96.2647,7.19687 135.4732,41.30524 39.7356,34.58825 57.3654,88.20542 79.4009,139.17524 38.0562,88.11976 89.456,195.26002 177.4995,213.87775 13.3505,2.82739 26.1812,1.29381 39.5177,1.98774 6.8579,0.35135 14.6646,1.4651 18.1427,9.71589 9.0293,21.41952 -15.7115,60.5829 -24.0381,76.99018 -23.005,45.34081 -48.8701,88.46251 -72.9784,132.92941 -19.1475,35.3078 -43.4174,74.53963 -50.8237,116.39333 -8.9869,50.7899 49.7346,86.9289 70.3858,122.6909 35.8006,62.0137 -32.0273,97.3472 -65.467,126.9146 -38.4005,33.9457 -70.0975,95.8737 -35.6742,148.3942 13.1679,20.083 29.3712,32.0521 35.2525,58.261 9.1979,40.9884 2.2415,87.8284 -5.2208,128.3454 -11.2425,60.9085 -29.034,121.1573 -53.2195,176.2053 -17.3277,39.4118 -46.0736,101.2114 -88.17,96.5762 -28.3385,-3.093 -57.1476,-14.394 -84.7412,-24.384 -41.3165,-14.9508 -82.1131,-31.9921 -122.6918,-49.6932 -93.6718,-40.7483 -186.3109,-85.6779 -277.13004,-135.097 -61.96779,-33.7312 -234.82257,-171.5785 -247.82885,-176.4964 -38.77988,-14.6509 -82.87192,-12.072 -122.85339,-9.8016 -53.18454,3.0159 -106.10205,10.8298 -158.9774,18.0696 -25.16927,3.427 -50.46519,7.6167 -75.76799,9.3046 -18.00924,1.1993 -41.66084,2.2276 -57.43559,-10.5471 -30.79073,-24.9236 3.5133,-81.9509 17.70004,-106.0778 43.4596,-73.9657 98.43592,-138.0185 149.98324,-203.5107 25.29582,-32.155 50.97815,-64.2585 73.94114,-98.9922 9.26109,-14.0256 32.47707,-42.1879 22.32356,-61.3969 z"
           stroke="#5acef2"
           id="path8"
           style="stroke:#4c3b9b;stroke-width:5.20351;stroke-opacity:.4" />
        <path
           d="M 604.94351,1052.6505 C 560.07803,990.41367 498.1545,944.12617 444.71092,892.14787 c -26.82377,-26.0963 -53.81604,-52.90385 -76.95136,-83.98795 -12.03478,-16.16334 -27.06252,-36.60325 -29.38099,-59.13424 -6.19655,-60.27422 86.85031,-52.12396 114.6998,-54.41215 53.84414,-4.43943 114.6716,-7.80746 163.52058,-38.56591 29.84473,-18.80299 44.54226,-49.66427 38.96388,-90.22698 -2.47302,-17.99738 -6.32299,-33.28664 0,-50.95838 6.40739,-17.90309 19.75595,-30.53554 33.27322,-40.00562 38.84451,-27.2361 87.11725,-35.94334 130.8516,-42.43097 51.30478,-7.55654 102.99523,-10.50682 154.65411,-8.82734 45.24494,1.44834 90.27194,-14.84353 134.44884,-25.58201 58.5232,-14.21797 118.1072,-26.63614 177.9933,-24.75933 47.2962,1.49121 94.9648,13.20671 135.3972,44.34221 41.0856,31.70967 65.7876,79.1714 88.0587,130.38694 33.6666,77.42301 75.6234,181.1738 149.4834,210.57809 10.7421,4.28509 20.7536,4.75653 31.833,5.50209 5.3815,0.35998 12.3299,0.47133 14.9997,7.31894 6.4213,16.4891 -17.3181,48.45591 -23.9433,59.59715 -21.1471,35.56626 -44.0716,69.52996 -65.7455,104.62496 -20.2337,32.7638 -42.2729,66.90753 -54.8418,105.30183 -20.0018,61.1485 43.9451,96.9034 42.1537,155.172 -1.1172,36.1748 -29.5076,62.1168 -51.9895,80.0627 -27.6808,22.0683 -67.5369,36.5776 -81.3913,76.8489 -10.3207,29.9957 5.8734,47.4532 18.3438,70.2157 21.1329,38.5657 22.5731,90.8439 20.374,135.4861 -2.9647,60.3255 -14.5499,121.5425 -34.2708,176.9915 -8.9364,25.1365 -19.8824,51.2841 -35.9991,70.807 -15.0979,18.2973 -29.3879,22.9853 -49.5654,19.24 -61.769,-11.484 -124.1352,-43.4937 -183.3679,-72.0839 -74.4221,-35.9261 -147.8184,-75.589 -219.02284,-120.214 -48.55383,-30.4327 -98.20358,-62.631 -140.82078,-104.6762 -11.10742,-10.9614 -22.48187,-22.8739 -30.60351,-37.3318 -6.14035,-10.8671 -8.74679,-19.8401 -19.09553,-26.0448 -30.67374,-18.3831 -73.34013,-13.5753 -106.2058,-11.6641 -52.55139,3.0423 -104.84987,11.1412 -157.07812,18.4345 -30.47706,4.2851 -87.89007,17.766 -112.22678,-14.5693 -21.00647,-27.9218 4.3418,-75.5291 17.29,-100.1255 32.75329,-62.2025 74.88579,-116.7947 113.97611,-173.0065 17.91527,-25.762 36.53311,-51.7212 51.32898,-80.3627 3.77971,-7.3017 9.83576,-16.9776 10.87564,-25.8477 1.16621,-10.1643 -4.27864,-17.9203 -9.78666,-25.5906 z"
           stroke="#5be7c3"
           id="path10"
           style="stroke:#1f217c;stroke-width:5.20351;stroke-opacity:.4" />
        <path
           d="m 608.80056,1067.1387 c -41.45719,-55.0286 -91.40255,-100.23693 -135.9093,-151.73203 -19.95567,-23.0887 -40.10803,-47.3095 -55.31372,-75.47579 -8.17899,-15.14658 -16.86395,-34.21276 -14.60833,-53.03885 6.4715,-54.03375 82.99867,-49.15359 113.91584,-52.31837 45.94011,-4.6486 98.71723,-9.33155 139.33821,-38.46694 26.60992,-19.08334 36.58774,-47.2667 31.61996,-83.61518 -5.33329,-38.9901 6.59097,-67.29345 33.72779,-89.04422 34.02304,-27.24848 76.96988,-38.35538 116.47357,-46.24608 47.59427,-9.46123 95.79151,-13.65515 144.00398,-12.53068 46.88874,1.09784 92.31604,-8.49097 138.89554,-14.72634 61.7572,-8.25943 125.4958,-12.33346 186.5573,4.59719 53.1636,14.74352 101.1836,47.23236 137.1811,97.47526 37.5996,52.43846 56.2132,118.50544 86.7439,176.51894 19.0421,36.18542 45.5959,84.0525 81.1787,98.11841 11.868,4.69159 33.496,-1.63816 24.0171,21.44195 -5.4175,13.1998 -15.557,24.7784 -23.5673,35.568 -12.9431,17.4366 -26.3148,34.393 -39.4757,51.5894 -28.0503,36.6573 -58.0893,74.09503 -79.1129,117.50223 -26.4905,54.6512 12.8869,96.7118 8.0876,152.1265 -2.5788,29.8215 -19.5692,53.6221 -37.5434,72.3195 -11.629,12.1105 -24.3542,22.5998 -37.3465,32.3859 -13.5685,10.2235 -29.6243,18.0114 -41.4572,31.2282 -16.8639,18.8089 -9.5421,41.0742 -6.3802,65.3895 5.5653,42.7314 6.7878,86.1379 3.6398,129.235 -3.8506,52.8245 -12.8798,107.1584 -31.9009,155.1627 -7.399,18.6889 -16.7726,38.5012 -30.6925,51.032 -13.9196,12.5307 -28.3173,11.6729 -44.2678,7.8992 -47.3102,-11.1499 -94.5223,-37.0946 -139.4014,-61.6843 -56.171,-30.7822 -111.2388,-65.1837 -163.82624,-104.3196 -36.29952,-27.0168 -72.71854,-56.2036 -103.0876,-92.8352 -8.8326,-10.6609 -17.23647,-22.0765 -24.03122,-34.8217 -4.66567,-8.7397 -7.1671,-20.0183 -13.92677,-26.588 -21.15019,-20.5071 -63.61218,-14.3834 -88.41627,-13.1912 -49.50264,2.3759 -98.22538,13.6714 -147.66475,16.416 -26.98228,1.5009 -69.2405,5.2748 -89.05567,-22.7628 -18.63459,-26.3564 -1.75659,-67.8681 9.38058,-93.264 21.88804,-49.9341 51.29452,-94.422 77.65144,-140.8395 10.83506,-19.1005 22.71009,-39.0844 29.72962,-60.8952 6.23974,-19.435 -4.53215,-33.501 -15.15636,-47.6099 z"
           stroke="#5acef2"
           id="path12"
           style="stroke:#4c3b9b;stroke-width:5.20351;stroke-opacity:.4" />
        <path
           d="m 618.99714,1068.0389 c -32.99856,-48.4236 -72.77939,-91.40893 -106.01671,-140.62043 -19.45519,-28.8196 -52.95922,-77.269 -37.91328,-117.89897 16.50626,-44.64674 74.04323,-45.8629 107.30156,-49.45998 39.58434,-4.28228 86.0702,-10.13186 119.9464,-38.00924 10.71403,-8.81287 19.84129,-20.47779 23.70989,-35.8424 4.14241,-16.44391 -0.3862,-30.83225 -0.97597,-47.29323 -1.23562,-34.53205 15.65684,-62.25531 38.01163,-81.29422 31.59436,-26.91816 71.10148,-39.64501 108.41799,-48.51782 42.27738,-10.00761 85.2566,-14.94147 128.32221,-14.73093 41.15714,0.1713 81.87884,-0.94215 123.07784,-2.2268 53.879,-1.71288 108.5163,1.0534 160.7804,18.51649 51.4849,17.21456 98.2938,49.47704 135.0627,96.93294 35.8701,46.30822 60.0714,102.91104 81.2677,160.56718 12.027,32.72497 32.3457,81.62828 61.0334,98.15768 12.7572,7.357 25.2756,6.8516 11.711,25.9847 -17.082,24.092 -40.1038,43.422 -59.8889,64.0282 -28.5403,29.736 -57.7967,60.05443 -81.7523,95.40853 -15.2987,22.5761 -22.1161,44.4842 -21.0629,73.7148 0.8145,22.2676 4.5075,44.3041 2.6398,66.6574 -4.3741,52.4661 -38.2362,88.4456 -68.1736,121.9499 -19.2586,21.5482 -36.8462,37.9835 -46.7598,68.6358 -11.725,36.2278 -16.6467,75.6416 -24.4821,113.2569 -8.6077,41.3067 -18.5495,84.2747 -37.3375,120.6566 -16.7241,32.391 -37.0638,46.9165 -67.5068,38.1892 -47.483,-13.6004 -94.2847,-47.1047 -136.4387,-78.0996 -42.90524,-31.5346 -85.07327,-66.9915 -120.62743,-110.3365 -19.19534,-23.4068 -32.29652,-50.8902 -49.34332,-76.0356 -21.44216,-31.5687 -69.9501,-19.6126 -98.77827,-16.9406 -47.8549,4.4364 -198.43384,37.6324 -184.53933,-69.8862 5.79932,-44.878 28.63855,-86.296 45.34151,-125.8981 6.92265,-16.4353 16.94158,-36.1594 18.50721,-54.9927 1.70613,-20.512 -13.61362,-39.9962 -23.53433,-54.573 z"
           stroke="#ff8062"
           id="path14"
           style="stroke:#8575ce;stroke-width:5.20351;stroke-opacity:.4" />
        <path
           d="m 636.41985,1072.1508 c -25.21682,-43.8818 -55.39562,-85.33843 -77.03316,-132.73333 -14.03668,-30.694 -27.82066,-71.7051 -9.71339,-104.18145 20.4374,-36.64944 65.50208,-45.19274 98.61451,-49.86278 34.11607,-4.80722 74.84342,-8.85169 102.72726,-36.64093 8.87114,-8.85169 16.18426,-20.78823 17.54581,-35.08133 1.31244,-13.7103 -2.3933,-27.42062 -1.16507,-41.37945 2.75121,-31.34532 18.32479,-57.1721 38.4043,-75.9039 59.39613,-55.4155 147.79888,-67.73762 219.46299,-69.18575 35.8706,-0.71985 72.787,3.05904 108.8893,5.76684 46.8472,3.51331 93.7648,11.05402 138.4434,29.22874 94.993,38.62887 158.6633,124.30143 203.1314,230.90789 13.9945,33.55601 24.7045,69.86272 46.6368,96.82922 11.3065,13.9245 8.8361,23.9246 -2.7231,36.6238 -18.0722,19.8457 -40.1168,35.0128 -60.1752,51.5766 -28.5294,23.55603 -57.6695,47.46353 -82.9004,75.68113 -17.3914,19.4515 -29.7366,38.1918 -33.4845,67.3606 -2.674,20.7969 -2.0493,41.9879 -3.6565,62.9134 -3.06,39.7513 -13.5383,79.2029 -32.0878,112.1762 -14.7384,26.1353 -32.2843,49.8885 -50.4196,72.5362 -23.5745,29.4858 -43.5135,59.4429 -61.4174,94.4385 -23.7358,46.3238 -57.0871,131.7736 -112.995,109.1601 -61.663,-24.9528 -119.45894,-88.3546 -159.02131,-149.7854 -13.28563,-20.6256 -24.19209,-45.9211 -42.10987,-61.131 -26.82394,-22.7334 -54.04098,-21.9366 -85.9463,-21.8423 -47.76676,0.1285 -151.70811,12.7849 -152.83102,-74.5499 -0.44219,-34.6015 11.82581,-67.3179 17.70015,-100.5997 6.62531,-37.275 -6.65331,-62.4163 -23.8763,-92.322 z"
           stroke="#f1b170"
           id="path16"
           style="stroke:#8575ce;stroke-width:5.20351;stroke-opacity:.4" />
        <path
           d="M 655.20192,1076.0634 C 630.259,1018.8712 574.32721,924.89267 616.86766,861.29547 c 22.47105,-33.60967 62.2167,-46.24005 95.55818,-53.7669 26.8318,-6.08827 59.19013,-8.37458 79.46321,-34.18337 14.90118,-18.97551 8.28617,-46.59116 13.99525,-70.34476 7.08541,-29.44812 23.34888,-53.54432 43.33399,-71.65492 55.84751,-50.61579 133.49907,-66.14898 200.68061,-69.45425 69.7726,-3.42526 146.6517,12.59613 212.3093,43.41422 81.8648,38.43915 143.1967,111.22438 186.0883,203.39621 7.914,17.01461 15.1048,34.47447 22.7028,51.69467 5.1051,11.5514 12.6752,22.7261 16.6988,34.877 6.6992,20.26 -1.1938,36.8208 -13.8478,50.0249 -18.2015,19.0098 -40.5602,32.5392 -61.3108,46.8051 -28.3768,19.52373 -57.3855,38.69613 -83.782,61.60213 -17.738,15.4133 -36.3047,32.0168 -42.6528,58.7591 -4.3326,18.2391 -5.2316,37.5572 -5.0771,56.4471 0.3371,40.5028 -1.4044,73.2562 -16.8954,110.351 -25.4906,60.8998 -64.6885,115.66 -106.0985,161.2236 -32.4987,35.7589 -83.9223,91.3068 -131.273,67.399 -42.48434,-21.4073 -67.33597,-72.6482 -95.32653,-114.0759 -13.60888,-20.14 -28.89633,-38.5332 -46.85913,-52.8592 -22.64655,-18.0593 -43.96596,-25.6375 -70.79775,-28.5917 -45.1598,-4.9751 -113.25416,-6.268 -127.21425,-72.3741 -5.15427,-24.396 -2.212,-49.6654 -4.91554,-74.3781 -3.53213,-32.6762 -13.86184,-60.6942 -26.44558,-89.5429 z"
           stroke="#5be7c3"
           id="path18"
           style="stroke:#1f217c;stroke-width:5.20351;stroke-opacity:.4" />
        <path
           d="m 681.13808,1078.1811 c -17.76166,-62.5793 -41.09523,-141.44613 1.80354,-197.06453 20.77917,-26.9433 50.0076,-42.00521 78.29563,-53.26088 20.25987,-8.06673 52.42868,-10.44131 64.84988,-35.24152 9.123,-18.25084 10.3861,-43.42822 18.63886,-62.98206 11.34054,-26.88342 28.51965,-49.02612 48.67417,-66.35973 52.50591,-45.16844 120.89284,-62.62205 183.25844,-67.61981 135.5104,-10.84422 273.3928,75.52362 345.9059,217.62129 21.6213,42.35671 49.5304,87.43941 14.5897,130.71341 -38.1479,47.2087 -95.6152,69.32573 -141.1456,102.86993 -17.3966,12.8074 -39.5654,28.2035 -49.2708,51.3921 -5.8386,13.9388 -6.2387,31.4268 -6.5053,46.7715 -0.7017,39.0821 -3.3615,74.2293 -16.2387,110.6966 -19.8881,56.3555 -51.6007,108.3477 -87.538,150.9359 -31.3407,37.136 -76.036,80.7785 -121.5523,54.0067 -34.89874,-20.574 -57.03238,-64.2422 -84.1485,-96.432 -30.17576,-35.8502 -67.4954,-60.0074 -108.4784,-71.8117 -39.8672,-11.4529 -83.59395,-19.1767 -104.60479,-67.8341 -7.20706,-16.6907 -14.73696,-38.302 -17.43883,-56.7757 -4.36158,-30.4591 -10.74764,-60.4334 -19.0949,-89.6254 z"
           stroke="#ff8062"
           id="path20"
           style="stroke:#8575ce;stroke-width:5.20351;stroke-opacity:.4" />
        <path
           d="m 710.05741,1078.6221 c -8.21696,-63.1917 -9.12997,-129.08313 29.04755,-178.88753 17.81765,-23.235 40.34062,-39.7422 63.11658,-54.698 16.75708,-11.00476 34.06198,-20.28681 46.57714,-38.3281 11.59519,-16.70427 20.40915,-36.09973 31.60387,-53.24109 14.76716,-22.71601 32.43649,-42.38049 52.32912,-58.23776 49.86399,-39.67374 110.52253,-58.22924 168.55443,-64.66588 28.0923,-3.12825 58.5655,-4.75673 86.4683,3.77109 26.9477,8.22789 53.5933,21.23823 78.3707,36.40833 52.6732,32.21721 98.3233,79.39879 131.4162,139.05076 22.6916,40.91645 34.961,80.70155 5.5764,122.20935 -33.1281,46.7875 -85.0708,72.60233 -127.8836,102.96833 -29.3635,20.8267 -62.2739,41.2421 -67.7589,85.5012 -4.3683,35.2169 -7.9149,68.6425 -19.2152,101.9311 -16.818,49.1012 -41.546,93.5799 -72.7171,130.7973 -28.5068,33.9056 -64.5703,62.6774 -105.3465,44.5674 -32.30614,-14.3729 -57.3716,-46.573 -85.59758,-69.594 -31.45628,-25.7119 -66.01692,-39.8879 -102.41068,-51.2869 -32.70655,-10.2848 -63.5028,-26.089 -84.64225,-59.6432 -4.3263,-6.8566 -8.87022,-14.3217 -12.20619,-21.9926 -4.25595,-9.7876 -3.92594,-19.4897 -4.76163,-30.4601 -2.17714,-28.9519 -6.80545,-57.5693 -10.52066,-86.1697 z"
           stroke="#f1b170"
           id="path22"
           style="stroke:#8575ce;stroke-width:5.20351;stroke-opacity:.4" />
        <path
           d="m 741.944,1073.4571 c 0.70195,-60.0228 12.53035,-116.74913 44.92689,-163.52593 13.85007,-20.0104 30.3888,-36.4926 45.62884,-54.8291 12.2707,-14.78243 23.86745,-28.51761 37.97733,-40.69898 33.47039,-28.84385 60.67217,-66.16918 96.24168,-91.85393 47.48216,-34.33793 101.87176,-53.31825 155.84016,-60.90694 26.3525,-3.70843 53.5754,-5.00474 80.2367,-0.81549 22.8986,3.59687 44.8285,16.22469 65.1721,29.14432 39.8724,25.30706 78.5869,61.27602 104.476,106.78235 57.0781,100.32687 -55.4567,173.26907 -113.2158,215.9856 -26.5631,19.6499 -67.1517,42.4074 -78.0324,81.3294 -7.7779,27.8051 -12.5163,56.0823 -22.5336,83.0291 -26.9071,72.3671 -81.5283,157.4822 -154.3168,146.1507 -31.14704,-4.8416 -59.53518,-24.5087 -88.61131,-37.7116 -29.93957,-13.5978 -60.84076,-21.1778 -91.95972,-29.4962 -29.08314,-7.769 -52.26259,-18.8258 -71.04768,-48.4679 -8.97833,-14.156 -8.18501,-31.1016 -8.98531,-48.468 -1.30566,-28.5263 -2.11294,-57.2156 -1.79708,-85.6474 z"
           stroke="#5be7c3"
           id="path24"
           style="stroke:#1f217c;stroke-width:5.20351;stroke-opacity:.4" />
        <path
           d="m 770.97926,1065.7689 c 11.69396,-90.59883 55.12473,-189.50713 118.98464,-242.12231 75.1183,-61.89264 156.4982,-114.01093 246.248,-128.99365 41.6105,-6.9474 87.1917,-10.36541 126.455,12.35281 29.8816,17.27855 64.591,43.1064 81.0355,79.42816 40.2333,88.84266 -49.2565,159.56736 -100.2419,200.66916 -27.4499,22.12723 -62.3912,43.68903 -83.0806,76.00163 -12.0031,18.7349 -18.1313,43.5176 -27.8224,64.0942 -29.3685,62.3552 -77.7114,112.6489 -137.93114,121.6437 -27.84351,4.1547 -55.89066,-0.9852 -83.52334,-5.0713 -28.28614,-4.1805 -56.92371,-6.4506 -85.0342,-12.2844 -22.4392,-4.6601 -48.88416,-12.5497 -57.14859,-41.8556 -10.42199,-36.93 -2.71269,-86.8638 2.05903,-123.8624 z"
           stroke="#5acef2"
           id="path26"
           style="stroke:#4c3b9b;stroke-width:5.20351;stroke-opacity:.4" />
        <path
           d="m 799.45162,1051.215 c 17.05481,-85.17833 53.16956,-168.26453 113.88134,-219.1143 32.19586,-26.96381 69.57,-45.57699 105.45254,-63.96725 40.674,-20.84229 83.1703,-37.02059 126.5741,-45.04543 54.042,-9.99677 141.5672,-19.00755 169.8019,56.1396 28.0236,74.58985 -42.7917,140.60615 -84.6688,178.22695 -26.8486,24.1003 -55.5829,46.22003 -81.2353,72.56653 -13.9098,14.2837 -24.6253,30.7877 -36.3962,47.5404 -32.5335,46.4172 -78.9134,83.1634 -126.18704,102.7797 -45.81714,19.0161 -102.4975,27.4355 -150.86157,21.1511 -20.86815,-2.7008 -35.78401,-11.8145 -42.09514,-37.7237 -8.74553,-36.0174 -1.31565,-77.3677 5.73417,-112.5536 z"
           stroke="#f1b170"
           id="path28"
           style="stroke:#8575ce;stroke-width:5.20351;stroke-opacity:.4" />
        <path
           d="m 827.74341,1028.2735 c 16.94263,-74.99613 53.4865,-143.49523 106.79068,-188.50658 59.75137,-50.45851 136.69081,-78.49671 207.40751,-92.75487 37.5894,-7.57305 119.0468,-28.1065 138.2063,30.6593 19.1595,58.76583 -36.2282,116.67792 -68.1068,148.55812 -38.6909,38.6337 -80.4052,75.93533 -122.0706,110.59893 -36.2002,30.1386 -74.8278,60.9515 -114.03774,84.2257 -22.11424,13.2032 -45.15076,23.9835 -68.83653,32.2132 -17.53882,6.0447 -39.84117,15.0607 -58.22897,10.5612 -46.37982,-11.3638 -29.22675,-99.6961 -21.12385,-135.555 z"
           stroke="#ff8062"
           id="path30"
           style="stroke:#8575ce;stroke-width:5.20351;stroke-opacity:.4" />
        <path
           d="m 862.66639,1005.8157 c 37.17382,-141.82673 154.95191,-211.57963 268.35331,-235.89253 26.3514,-5.64359 100.2223,-25.99141 114.9516,17.33333 14.2733,42.00591 -31.121,91.82207 -52.3732,115.42407 -65.8539,73.1358 -147.2156,127.36233 -224.31294,181.08373 -24.06479,16.7682 -67.46709,53.1561 -97.31833,36.3709 -32.41145,-18.2582 -17.00178,-84.911 -9.30044,-114.3195 z"
           stroke="#5acef2"
           id="path32"
           style="stroke:#4c3b9b;stroke-width:5.20351;stroke-opacity:.4" />
        <path
           d="M 900.74414,978.51787 C 933.07246,874.07307 1027.102,814.17 1113.5526,794.42221 c 21.1745,-4.832 74.952,-19.8763 90.9894,9.2699 14.8413,26.96151 -20.5763,66.02876 -33.8272,81.55276 -29.4995,34.5694 -64.4597,63.0474 -98.9977,90.4202 -31.9342,25.32513 -64.2133,51.28413 -97.81544,72.70263 -17.69832,11.2747 -50.89225,35.3318 -71.0042,17.9231 -21.65318,-18.7284 -9.3312,-64.5809 -2.15332,-87.77293 z"
           stroke="#5acef2"
           id="path34"
           style="stroke:#8575ce;stroke-width:5.20351;stroke-opacity:0.427451" />
        <path
           d="m 942.70439,948.00287 c 24.63986,-68.2067 90.63271,-112.4978 148.84631,-127.21578 15.6639,-3.95165 49.5192,-14.20366 62.7332,4.01165 12.1651,16.77524 -7.4412,41.36803 -16.1427,52.72583 -38.5649,50.3428 -95.0396,95.3111 -146.78354,122.92993 -13.0099,6.9432 -36.39674,20.5726 -49.77978,6.5575 -13.72786,-14.39233 -4.53369,-43.34823 1.12651,-59.00913 z"
           stroke="#5be7c3"
           id="path36"
           style="stroke:#1f217c;stroke-width:5.20351;stroke-opacity:.4" />
        <path
           d="m 987.21726,919.35187 c 13.88474,-33.8687 50.17324,-59.4216 80.23304,-67.5557 21.1552,-5.7197 46.5844,-0.7787 28.1475,28.7028 -18.3154,29.2564 -52.2994,55.9777 -81.1034,67.824 -21.97574,9.034 -39.19964,0.1211 -27.27714,-28.9711 z"
           stroke="#f1b170"
           id="path38"
           style="stroke:#4c3b9b;stroke-width:5.20351;stroke-opacity:.4" />
        <path
           d="m 3223.3148,1034.4351 c -0.8557,-64.29557 -28.8504,-131.11692 -15.0249,-196.63015 11.3529,-53.80592 68.5079,-58.29798 102.7956,-82.67518 27.2469,-19.36684 42.7097,-53.67429 57.4448,-86.59133 13.2394,-29.55212 25.1312,-59.99278 39.0781,-89.05949 9.0284,-18.79093 24.5316,-55.68995 44.111,-56.35635 18.7441,-0.64172 35.9317,28.11236 46.8196,45.10976 14.1962,22.15586 26.782,45.77617 40.5671,68.2858 23.2313,37.96855 51.1047,66.07268 83.0208,92.67123 36.3201,30.26514 73.2399,59.49641 110.7594,87.69378 27.6241,20.82305 55.437,41.48979 81.9898,64.36965 16.6554,14.35647 53.4157,41.29233 53.5847,67.75925 0.08,12.62876 -9.7229,26.61501 -16.3325,36.70979 -11.1844,17.08794 -23.9319,32.71134 -36.7199,47.99754 -23.8174,28.4743 -48.6455,55.657 -73.204,83.1688 -31.8756,35.706 -62.3228,70.828 -90.3445,111.3634 -28.9717,41.9588 -56.6498,85.2997 -84.8938,128.0482 -19.128,28.9598 -38.2359,61.4819 -65.8263,79.2527 -34.5572,22.2134 -62.9225,-1.2094 -97.8704,-1.4809 -30.0632,-0.2386 -27.8465,-85.275 -31.6668,-108.92 -3.8337,-23.9329 -12.2826,-46.2122 -15.5571,-70.2027 -4.083,-29.947 -4.1369,-60.5851 -5.1408,-90.853 -1.2195,-37.0224 -1.7046,-72.2678 -34.1192,-86.3857 -18.4475,-8.0215 -38.4043,-9.7081 -57.4987,-14.5128 -12.3702,-3.1181 -35.7025,-8.4493 -35.972,-28.7623 z"
           stroke="#ff8062"
           id="path40" />
        <path
           d="m 3238.0943,1022.9977 c -3.1512,-53.89561 -21.7684,-122.87798 -4.1634,-178.51211 15.0409,-47.5428 62.0799,-53.70606 93.7541,-78.68044 26.1478,-20.59913 37.7878,-54.30756 50.8583,-87.42272 10.4861,-26.56464 20.655,-53.3847 32.5582,-79.10066 8.7721,-18.9512 22.1665,-50.94577 40.4059,-54.86784 16.3972,-3.52657 33.982,24.71895 43.186,39.08891 13.4281,20.97815 24.9129,43.76079 36.7755,66.06553 20.844,39.17954 42.1874,74.4123 72.6942,103.19341 30.6418,28.9047 64.165,50.5173 98.0457,73.01156 26.5054,17.59989 52.8759,35.71065 78.0587,56.02963 18.7589,15.128 45.7299,34.49118 54.3131,61.46781 6.7951,21.3407 -27.666,56.75472 -37.8282,69.25432 -20.9182,25.6994 -43.0848,49.8251 -65.2918,73.8025 -27.0722,29.2178 -55.0082,54.769 -78.9157,88.0984 -42.7609,59.5891 -78.504,133.7955 -133.5257,178.0836 -33.1857,26.7129 -70.1165,33.5436 -107.027,29.5474 -14.6158,-1.582 -18.1246,-26.7707 -19.9668,-41.462 -3.0635,-24.4058 -3.4481,-49.2319 -5.8031,-73.7366 -2.2065,-22.9392 -7.1055,-44.7331 -11.0529,-67.2273 -3.9947,-22.7909 -5.1149,-46.1421 -8.0569,-69.0895 -1.8219,-14.2464 -3.6236,-30.8245 -11.5927,-42.2777 -8.2459,-11.8568 -21.8495,-16.8253 -33.7391,-20.5991 -22.3285,-7.0202 -81.4596,-6.6329 -83.6864,-44.6671 z"
           stroke="#5be7c3"
           id="path42" />
        <path
           d="m 3257.1164,1000.4361 c -5.2997,-49.47213 -12.7192,-111.09006 8.8711,-156.66988 17.6475,-37.26864 55.2854,-45.30827 82.1685,-69.59172 22.3599,-20.1937 30.8057,-52.31106 41.9046,-82.15724 9.1073,-24.48096 18.2619,-49.06888 29.3001,-72.36487 8.3715,-17.66743 19.1599,-41.62173 35.7813,-47.78517 14.2112,-5.26648 30.2655,18.32574 38.1441,30.06837 13.4146,20.01266 24.3515,42.43639 35.2142,64.56387 17.7691,36.20712 34.1204,74.88291 59.4103,104.33411 24.5743,28.57893 53.7664,45.44816 83.5053,64.41575 22.7785,14.53222 45.4152,29.624 66.8772,46.95405 16.4796,13.29788 36.9019,29.05621 45.4894,51.18369 7.4263,19.0828 -11.639,41.6711 -21.1649,55.13357 -15.7302,22.21797 -33.1888,42.60097 -50.4043,63.06617 -18.5792,22.0782 -39.1568,42.4447 -57.1352,65.0659 -37.8066,47.6041 -68.0114,100.3102 -114.608,136.7806 -30.1778,23.6251 -70.7861,45.0861 -106.4593,41.2267 -25.6545,-2.7813 -23.9667,-72.085 -26.4309,-94.229 -4.0507,-36.2071 -11.8753,-74.2493 -24.3042,-107.601 -10.6736,-28.5789 -36.0378,-37.392 -59.3699,-43.8023 -14.6163,-4.024 -29.9347,-6.1964 -44.0717,-12.4174 -16.3648,-7.2085 -20.4965,-15.4374 -22.7177,-36.1742 z"
           stroke="#5acef2"
           id="path44" />
        <path
           d="m 3274.8599,977.24677 c -3.1555,-41.82616 -2.446,-91.28634 17.9936,-127.46746 17.9126,-31.69149 49.8052,-40.03526 72.4881,-65.00056 17.7031,-19.47707 24.656,-51.23458 34.1764,-76.99217 11.6354,-31.49341 27.9398,-89.66051 57.2918,-101.5118 27.3047,-11.01775 55.8594,59.36377 65.7447,80.35113 15.649,33.21829 28.7371,69.647 47.7173,100.32337 16.3449,26.40958 38.2441,41.00912 61.4878,56.69806 29.6358,20.03826 74.63,43.79863 90.475,82.85179 11.811,29.10005 -26.5952,72.36223 -39.7104,92.52427 -13.7165,21.0617 -24.0478,46.027 -38.2035,66.3458 -22.3383,32.0629 -58.5351,57.8783 -88.4209,77.5781 -29.0546,19.1635 -66.7852,40.3737 -99.7454,39.111 -21.6626,-0.8253 -25.7843,-41.6611 -30.4061,-61.6086 -6.6217,-28.3573 -15.426,-53.7683 -34.3385,-73.0555 -19.2505,-19.6339 -41.9402,-28.8855 -65.792,-36.9817 -12.2435,-4.1264 -26.2101,-7.3451 -37.163,-15.6806 -12.1016,-9.0701 -12.3787,-21.4083 -13.5949,-37.48513 z"
           stroke="#f1b170"
           id="path46" />
        <path
           d="m 3296.4789,953.1384 c 0.1751,-36.13472 6.9438,-74.66747 27.0141,-102.54047 16.7163,-23.21656 42.8817,-30.97731 58.8841,-54.71125 12.6752,-18.79006 19.1274,-45.1684 27.6135,-66.98884 10.3786,-26.73969 25.0542,-73.45203 50.8627,-82.73208 25.1889,-9.03368 47.4682,42.41723 57.1262,62.77586 14.1435,29.8522 25.593,61.49472 39.8645,91.2648 11.1801,23.35617 24.8521,38.40956 43.0568,53.46296 21.3702,17.68137 51.186,37.26803 62.6018,66.52073 8.2302,21.17987 -11.6919,55.02332 -18.9253,73.68197 -4.8492,12.53222 -9.2876,25.26142 -11.7256,38.84482 -1.8993,10.5776 -2.0879,20.3668 -7.5904,29.4498 -13.8539,22.847 -44.2287,25.8281 -64.8378,33.3589 -27.371,9.9946 -56.4124,21.3523 -85.0563,23.5204 -17.6053,1.3551 -26.5898,-18.4451 -36.6384,-32.3734 -11.8738,-16.4659 -28.6843,-28.3083 -43.3666,-40.7337 -19.3766,-16.4248 -40.4639,-26.6411 -62.2786,-37.1038 -9.8398,-4.7221 -21.3971,-9.35392 -29.0211,-18.74074 -7.9607,-9.73173 -7.6442,-23.91461 -7.5836,-36.95596 z"
           stroke="#ff8062"
           id="path48" />
        <path
           d="m 3319.1852,931.6868 c 3.4788,-30.34827 14.3197,-59.35413 32.6307,-80.80793 14.0365,-16.47124 32.6778,-25.74456 43.9434,-45.53476 10.4971,-18.44779 17.8121,-39.42392 26.4821,-59.14824 9.1757,-20.8526 22.8077,-55.70575 43.9705,-61.3801 22.8077,-6.11083 40.377,29.04704 50.1055,48.53253 12.2904,24.62451 21.6279,51.11851 32.6172,76.59129 8.2788,18.98599 18.8391,36.34994 31.3294,51.51382 13.0995,15.98534 30.8643,31.29537 37.4916,53.27624 5.8586,19.46902 -5.1036,43.0229 -7.0385,62.76369 -2.0698,21.09143 1.5573,43.24526 -9.9173,61.35536 -23.664,37.3486 -83.0531,30.4224 -117.0051,31.2213 -33.5004,0.8235 -60.4341,-22.0303 -87.5432,-43.7724 -17.9064,-14.3547 -36.5544,-26.51043 -54.9125,-39.88508 -18.7154,-13.64643 -25.2146,-28.01759 -22.1538,-54.72572 z"
           stroke="#5acef2"
           id="path50" />
        <path
           d="m 3340.2816,914.31662 c 10.2876,-43.9659 42.4185,-67.3336 65.3885,-100.55942 18.7942,-27.2005 32.8865,-83.53026 64.5385,-90.98154 35.9356,-8.45689 57.4485,66.17963 69.942,94.97919 13.8629,31.93998 38.5531,57.92058 48.8204,91.73162 5.3967,17.74627 0.7623,34.3056 -2.1115,52.04362 -3.1504,19.47721 -5.5182,39.39131 -16.3927,55.06861 -21.4048,30.852 -63.2095,30.6377 -93.3167,31.4867 -31.1662,0.8819 -58.7369,-20.2603 -83.5688,-41.3613 -26.3362,-22.34559 -63.8369,-47.32059 -53.2997,-92.40748 z"
           stroke="#5acef2"
           id="path52" />
        <path
           d="m 3357.5122,902.39461 c 11.5922,-31.32435 35.9521,-56.79025 55.7186,-80.83044 16.4981,-20.04169 34.2465,-60.38727 59.4014,-63.26324 29.5648,-3.39217 47.4831,39.69008 59.116,66.10644 11.4495,25.95751 27.9476,53.3653 34.2873,81.85465 6.6115,29.67743 -10.9942,69.6461 -27.7845,90.64645 -18.7269,23.41743 -49.3653,32.06993 -75.655,31.13593 -27.5263,-0.9505 -52.7831,-20.3039 -73.63,-40.37838 -22.2874,-21.45919 -44.935,-48.90795 -31.4538,-85.27141 z"
           stroke="#ff8062"
           id="path54" />
        <path
           d="m 3373.5005,896.49732 c 11.0729,-26.05349 30.2669,-48.09308 47.9646,-67.75222 13.6575,-15.17735 33.8106,-40.9846 53.5147,-41.61664 21.6766,-0.69772 40.0476,20.96428 48.6652,43.16803 8.4951,21.90004 17.446,49.35717 18.7179,73.38319 2.7614,52.32041 -53.4603,110.92842 -95.6776,106.15942 -40.0272,-4.5229 -95.2627,-61.43179 -73.1848,-113.34178 z"
           stroke="#5acef2"
           id="path56" />
        <path
           d="m 3388.2867,893.62461 c 15.2757,-33.94562 52.3808,-82.33968 86.7325,-83.48899 39.43,-1.3135 49.3283,52.53978 44.1888,91.56698 -5.2211,39.83171 -50.6812,97.48591 -86.9296,89.69525 -35.3783,-7.60185 -62.0955,-57.51464 -43.9917,-97.77324 z"
           stroke="#5be7c3"
           id="path58" />
        <path
           d="m 3403.8987,888.13577 c 12.9335,-28.4221 40.5325,-63.92308 69.3177,-64.99762 34.2982,-1.27141 33.6512,44.19576 25.8736,72.49483 -8.0876,29.38181 -43.7068,79.56549 -73.7389,71.64175 -29.203,-7.73508 -33.8467,-51.89803 -21.4524,-79.13896 z"
           stroke="#ff8062"
           id="path60" />
        <path
           d="m 3417.4964,884.86478 c 8.537,-20.28049 29.9031,-45.91276 50.2148,-46.73293 24.8268,-0.98585 20.0007,35.07662 13.5861,52.48238 -7.6244,20.71127 -33.1813,56.69919 -54.6285,50.86689 -21.116,-5.74116 -16.2155,-39.90649 -9.1724,-56.61634 z"
           stroke="#5acef2"
           id="path62" />
        <path
           d="m 3977.1982,2279.0488 c -54.9517,40.6894 -117.0735,74.2763 -175.654,108.4146 -85.6079,49.8824 -172.4772,98.4233 -262.4289,135.582 -48.2269,19.9167 -110.7196,48.6314 -162.4675,33.0272 -18.9198,-5.7034 -36.1736,-22.9536 -53.1373,-34.163 -23.3918,-15.456 -47.1275,-30.1467 -70.8228,-44.8703 -47.5322,-29.513 -95.2128,-58.7297 -141.9289,-90.1356 -22.4947,-15.1268 -44.3216,-34.1794 -67.7403,-47.0842 -13.6857,-7.5469 -30.0626,-4.0162 -44.6859,-3.5389 -33.8735,1.1111 -67.7268,3.218 -101.5801,5.0121 -41.4077,2.1892 -82.9099,4.5183 -124.3648,3.6542 -18.6972,-0.3951 -64.4892,3.6541 -74.7822,-15.9993 -5.5376,-10.5838 7.514,-29.6693 13.5643,-38.5002 11.1091,-16.2297 23.8774,-30.8545 36.4771,-45.3312 29.1385,-33.4799 60.0847,-65.3631 85.9856,-102.7605 13.308,-19.2254 30.7439,-42.714 22.0563,-68.9597 -8.7686,-26.509 -23.9584,-49.4626 -33.226,-75.8811 -10.6707,-30.4019 -15.0954,-62.0382 -20.1339,-94.2754 -3.73,-23.826 -12.4176,-44.9361 -20.5859,-66.9021 -9.0248,-24.2787 -18.3734,-48.7631 -24.6396,-74.3669 -4.1414,-16.9128 -10.8257,-47.3393 3.6626,-58.0466 20.5858,-15.2256 59.1876,-2.897 82.6536,1.5884 32.4301,6.189 64.6241,14.0734 96.9665,20.8632 23.4794,4.938 47.0398,10.3534 70.9105,10.9295 38.4804,0.93 77.0889,-2.2879 115.4681,-5.2837 71.0657,-5.547 141.622,-13.0693 212.9271,-13.0693 62.4711,0 206.8363,88.2016 240.6289,103.7317 67.4503,31.0026 136.6948,60.3922 200.523,101.6412 17.2673,11.1682 43.8427,26.0482 52.9282,49.0347 5.6051,14.164 3.0285,22.3529 16.2488,31.48 18.0362,12.4521 41.1447,17.3407 61.11,22.9125 32.1535,8.9708 64.5566,16.5671 96.8586,24.6902 65.3323,16.386 130.2195,34.9201 195.282,52.7547 19.6685,5.3907 43.465,6.584 62.2162,16.0815 12.0871,6.0985 10.8325,13.7771 1.4772,23.0442 -16.4107,16.2626 -39.4113,25.291 -58.7965,34.5662 -28.4033,13.5879 -57.272,25.7107 -86.1542,37.6608 -28.8822,11.95 -57.9128,23.5297 -86.8085,35.5045 -19.0885,7.8844 -40.8547,14.2956 -58.0073,26.9946 z"
           stroke="#ff8062"
           id="path64" />
        <path
           d="m 3931.9779,2270.0984 c -58.1276,40.7723 -122.6509,73.2534 -184.8535,104.9432 -79.6084,40.5827 -161.0182,78.6187 -244.8972,103.9871 -49.2493,14.8847 -107.3567,31.3189 -157.6787,14.2501 -17.9524,-6.0907 -31.3644,-19.7804 -46.7531,-31.8629 -17.5408,-13.7886 -35.7564,-26.4233 -53.9718,-38.8602 -37.497,-25.5991 -75.3897,-50.3246 -113.6782,-74.1764 -20.2799,-12.6842 -42.604,-29.6706 -65.5151,-34.0717 -18.2155,-3.5028 -38.9069,1.5659 -57.2034,3.0412 -32.9498,2.6539 -65.8928,5.3902 -98.8561,7.7144 -38.0367,2.6785 -76.1813,5.1511 -114.2989,4.7225 -21.2447,-0.239 -57.7161,3.7088 -72.7405,-13.0468 -13.1085,-14.621 34.6161,-67.5005 43.0088,-77.5473 26.21,-31.3684 53.7762,-61.2367 78.1714,-94.781 14.4172,-19.7803 31.9716,-43.8382 38.0502,-70.0555 5.1745,-22.3436 -4.8103,-47.8025 -10.7067,-68.4566 -7.3739,-25.871 -13.3243,-52.6899 -21.8923,-78.0171 -7.6303,-22.5661 -19.774,-42.6679 -30.4401,-63.1818 -11.7322,-22.5661 -23.6127,-45.5031 -32.3224,-70.1214 -5.3365,-15.1485 -14.1676,-40.5168 -3.5622,-54.9565 12.2516,-16.6485 50.0184,-5.7693 65.5421,-3.3956 31.4926,4.8791 62.7422,12.1319 94.0189,18.6265 51.9479,10.7803 101.4738,20.2089 154.373,17.9507 68.8883,-2.9506 137.7091,-9.8902 206.5839,-13.7309 25.4342,-1.4341 51.2733,-4.3187 76.7277,-2.761 14.5927,0.8984 25.7041,6.338 34.1912,18.61 11.5904,16.7474 38.2863,26.0195 56.8526,35.6294 28.9491,14.9754 58.2626,28.9041 87.4951,43.0141 64.1725,30.9893 129.5796,60.8576 190.4396,100.9376 19.2544,12.676 41.3019,26.8107 55.5437,47.7532 7.9474,11.6786 5.9437,22.9287 10.7944,35.3409 6.4227,16.327 27.5391,23.6952 40.1618,29.0359 24.3615,10.3188 49.7216,17.2337 74.8859,23.7118 56.9403,14.6539 114.0155,24.2886 171.8801,31.3848 13.5604,1.6484 66.9588,7.36 38.9137,34.8877 -30.9866,30.4205 -75.7293,45.33 -112.2075,62.473 -32.8621,15.4122 -65.7512,29.753 -96.0564,51.0086 z"
           stroke="#5be7c3"
           id="path66" />
        <path
           d="m 3851.6464,2262.5584 c -54.6378,35.8697 -115.1648,62.6301 -174.0101,88.2302 -71.4073,31.0641 -144.6044,58.7544 -219.4966,74.2658 -47.0466,9.7348 -98.9153,17.2149 -145.6444,1.0369 -31.9115,-11.0432 -56.5964,-40.8976 -84.6244,-61.437 -28.028,-20.5393 -57.1907,-39.8196 -87.2246,-55.8907 -18.6403,-9.9734 -38.6922,-20.0209 -59.4329,-18.7043 -50.4302,3.1929 -100.7996,10.8046 -151.2838,14.4994 -33.3972,2.4686 -66.862,4.5012 -100.3606,3.8922 -20.2004,-0.362 -47.9515,1.1192 -65.8354,-11.8496 -19.7682,-14.343 85.4888,-136.8054 95.4371,-150.5888 24.9415,-34.5614 55.1443,-80.4293 50.3221,-129.5805 -4.6128,-46.987 -24.6039,-82.0668 -47.2154,-118.8829 -12.8321,-20.9426 -53.9827,-76.8909 -38.7327,-104.1285 8.7123,-15.5691 37.4292,-10.1792 51.0718,-9.1177 26.8866,2.0902 53.6247,6.5832 80.3695,10.4837 38.9961,5.6532 79.066,14.3841 118.231,16.9433 27.2716,1.7774 54.7053,-0.6008 82.0242,-0.6501 39.1717,-0.066 78.3434,0.2962 117.5151,0.7241 32.8907,0.3621 66.0583,0 98.8342,3.8512 20.376,2.3699 35.8421,7.694 50.4572,22.7364 12.7173,13.0839 31.9047,20.745 48.1136,29.0645 26.7719,13.734 53.8949,26.4641 80.9301,39.3999 56.6031,27.0896 113.8546,53.6113 168.0331,87.465 24.7322,15.4457 66.315,37.0712 72.1164,74.5209 2.0937,13.5037 3.6335,19.3379 14.4395,27.0155 15.3378,10.8951 33.708,15.8077 50.9165,20.0785 40.1172,9.957 81.3961,8.4676 121.4458,18.3093 16.3102,4.0569 37.6048,12.8124 18.9847,32.858 -21.7268,23.4442 -53.3545,36.3306 -79.3835,50.8135 -12.9941,7.225 -26.3801,13.9891 -38.7191,22.8105 -9.4755,6.7971 -17.5868,15.5115 -27.2784,21.8313 z"
           stroke="#5acef2"
           id="path68" />
        <path
           d="m 3748.1611,2251.3592 c -50.4787,29.1339 -105.2999,50.3162 -159.1366,69.4116 -59.7976,21.1823 -121.0382,38.7269 -183.0879,46.1919 -42.8455,5.1718 -88.4961,6.6978 -130.0807,-9.1312 -26.298,-10.0137 -44.1267,-31.0723 -66.7564,-48.7324 -34.1537,-26.6924 -71.1057,-47.8416 -112.1373,-42.6945 -46.0013,5.7574 -92.1531,10.0769 -138.4556,12.9584 -27.9298,1.7405 -55.9675,3.0437 -83.931,1.8312 -17.6804,-0.7589 -40.4585,-2.0374 -55.8394,-11.8119 -20.5799,-13.0905 56.7227,-112.7 66.3586,-127.2175 23.8974,-36.0049 41.4159,-73.7833 51.6519,-118.3914 8.3479,-36.4009 -8.7053,-65.0151 -26.298,-92.2436 -10.9372,-16.9095 -46.2777,-59.4391 -35.2123,-81.3967 6.0688,-12.1089 26.0687,-11.482 36.8104,-12.1007 20.472,-1.1713 41.0316,0.049 61.5036,0.5857 30.2292,0.8248 62.4072,-4.8419 92.3801,-0.2805 66.4261,10.0963 132.6835,18.8397 199.5209,25.7603 36.8441,3.8108 73.9108,7.2752 110.4245,14.6247 13.1086,2.6395 26.6487,5.4357 39.0694,11.4077 7.9906,3.8356 12.3466,10.3684 19.0897,15.73 32.1509,25.521 74.1198,38.6527 110.3301,55.0096 48.1388,21.7432 96.5339,43.1482 143.3915,68.8342 24.6459,13.5111 59.0693,29.0349 76.0282,56.6098 5.1247,8.331 2.9399,14.9959 6.1631,23.0052 3.7087,9.2384 14.9764,11.9934 22.2522,14.567 16.5138,5.8482 85.637,14.6906 53.7827,48.9964 -15.1988,16.3403 -34.565,26.8243 -51.6991,39.6672 -6.2036,4.6522 -12.2522,9.3292 -17.4241,15.6063 -8.6514,10.5252 -17.1746,16.5301 -28.6985,23.2032 z"
           stroke="#f1b170"
           id="path70" />
        <path
           d="m 3637.8975,2238.7456 c -99.6515,47.1348 -216.4387,79.2474 -325.0837,73.026 -36.1294,-2.0766 -75.0021,-9.0067 -106.3206,-32.7225 -18.4667,-14.0085 -33.2239,-29.8218 -55.407,-34.8813 -16.014,-3.6505 -33.2577,0.4944 -49.3663,1.9941 -23.3317,2.1755 -46.677,4.1202 -70.0425,5.6941 -28.9671,1.92 -58.0287,3.4033 -87.0498,2.6122 -20.7371,-0.5686 -49.3731,0.074 -67.3871,-13.5224 -21.5074,-16.217 33.2374,-92.2919 40.9404,-105.8473 18.6694,-32.8543 31.7576,-64.6867 36.4875,-104.2816 1.3919,-11.5365 6.0813,-23.3614 5.4731,-34.9885 -0.6351,-11.8744 -6.6285,-22.4467 -12.1625,-31.783 -7.2367,-12.237 -32.3455,-41.2595 -25.1561,-56.1827 3.9731,-8.2404 18.8857,-9.2787 26.6156,-11.0256 14.5004,-3.2962 29.2103,-5.0678 43.7986,-7.6883 24.7507,-4.4662 49.3257,-19.0104 74.1643,-18.5984 66.7924,1.0877 134.5511,26.3691 200.0057,40.2541 38.9133,8.2815 78.0901,15.7967 116.5304,27.0118 12.1625,3.5516 24.6899,7.2268 36.251,13.2505 8.0678,4.2026 13.2504,11.6931 20.7236,16.3983 28.6562,18.0711 61.6099,29.039 92.381,41.2017 39.9471,15.8215 80.0294,31.165 119.6994,48.0083 24.8656,10.5559 56.8395,19.8428 78.2658,39.4218 15.6491,14.297 4.9528,18.5738 -3.3042,31.8902 -4.2163,6.79 -3.2433,13.4812 -5.0744,21.1694 -2.615,10.9762 -10.0071,18.8787 -16.9397,25.9819 -9.5611,9.8142 -22.2979,17.898 -30.1157,29.9289 -2.7569,4.2355 -2.6285,9.4929 -4.8583,13.1846 -6.4867,10.7536 -23.6966,16.0604 -33.0685,20.4937 z"
           stroke="#ff8062"
           id="path72" />
        <path
           d="m 3531.9473,2221.9527 c -80.8783,29.6341 -170.869,46.5078 -256.3609,38.6769 -29.7451,-2.7285 -59.6723,-9.0675 -87.3805,-22.9902 -12.6062,-6.3142 -22.0694,-13.3538 -35.883,-13.733 -32.0518,-0.8738 -64.2049,2.1844 -96.25,2.9181 -22.9327,0.5275 -45.9801,0.7171 -68.8589,-1.5333 -15.2975,-1.5002 -35.9841,-3.2972 -48.5162,-14.747 -18.2113,-16.6758 14.6634,-73.3639 21.3544,-89.0259 11.0887,-25.9741 22.0896,-54.8498 17.6919,-84.9043 -1.3489,-9.1911 -3.7366,-17.3106 -4.0469,-26.6831 -0.2968,-8.0535 0.5328,-15.4888 -1.8077,-23.1879 -2.8935,-9.5456 -15.7628,-24.3585 -11.3382,-33.1457 3.015,-6.001 11.9588,-6.2813 17.9078,-8.2019 9.6489,-3.1145 19.07,-7.2006 28.1668,-12.2163 9.5778,-5.3086 17.7324,-13.5105 27.6542,-17.8959 16.1069,-7.1056 34.136,-7.7733 51.0658,-7.7414 67.5504,0.133 135.9574,16.3967 201.7945,33.4023 34.2845,8.8531 68.7578,18.2915 102.0777,31.7196 10.1174,4.0804 21.5837,8.1772 30.4803,15.7114 5.551,4.6904 9.3147,10.5677 15.6212,14.0958 53.8717,30.1204 116.1543,41.3064 173.3445,63.06 14.886,5.6631 97.3832,34.275 54.2494,61.1888 -26.204,16.3544 -53.8919,23.7897 -77.8027,46.1616 -7.2845,6.8006 -12.1408,12.4307 -14.9872,22.8088 -1.8751,6.9078 2.6373,3.4044 -3.6625,10.6254 -7.642,8.68 -25.0911,12.1834 -34.5138,15.6372 z"
           stroke="#f1b170"
           id="path74" />
        <path
           d="m 3447.8524,2204.4297 c -94.6902,24.1884 -194.9672,25.339 -291.1522,3.8958 -24.2474,-5.3998 -49.4824,-4.1095 -74.0274,-5.482 -23.8484,-1.315 -66.2494,1.4219 -83.5709,-20.9583 -12.56,-16.2242 1.0686,-50.7027 5.7828,-68.8501 6.0061,-23.1199 11.2547,-47.0041 1.3933,-69.4583 -5.7761,-13.1503 -13.6895,-25.6677 -19.8849,-38.6947 -2.9625,-6.2218 -9.0632,-15.7558 -6.5201,-21.6487 4.2069,-9.723 23.889,-13.8161 33.4392,-18.4023 30.524,-14.6543 62.8472,-18.3939 95.4815,-18.2893 60.2771,0.1912 120.8654,10.2512 179.9926,23.8947 27.2032,6.2792 54.7851,12.9777 81.021,23.8924 14.8461,6.1725 25.7964,18.0817 39.9729,25.1418 45.6474,22.75 94.6902,34.9058 141.1222,55.708 13.4393,6.0244 63.6386,26.0787 38.3495,49.7246 -24.4841,22.8897 -60.1959,20.1692 -85.654,41.7029 -2.8813,2.4657 -6.4457,5.4163 -8.1163,9.4024 -0.9875,2.3835 0.7507,6.9204 0,8.2765 -7.8187,14.7366 -35.6103,17.079 -47.6292,20.1446 z"
           stroke="#5acef2"
           id="path76" />
        <path
           d="m 3386.504,2188.4436 c -48.5786,8.1314 -98.2256,10.1477 -147.6224,10.6601 -27.0009,0.2809 -56.666,2.3799 -83.0854,-5.9664 -16.2289,-5.14 -31.9033,-9.6354 -48.6327,-12.8747 -18.0005,-3.4873 -46.9827,-6.0242 -57.944,-24.9232 -8.1888,-14.1226 -2.5763,-43.1528 -2.2788,-60.3246 0.3178,-18.8329 -2.8468,-32.7985 -13.7405,-46.2765 -6.85,-8.4867 -38.2732,-39.2936 -34.642,-48.1771 3.4554,-8.4619 25.3509,-9.7593 34.8178,-11.9575 29.9221,-6.9745 60.2431,-9.404 90.6792,-9.0238 47.1382,0.5784 94.4523,6.4456 140.8535,16.5272 19.184,4.1897 39.0103,8.5281 57.3355,16.8992 12.3407,5.6441 22.6326,15.6514 34.8922,21.4855 35.1085,16.7339 72.2322,28.0964 107.4625,45.136 11.3062,5.4788 48.1458,20.0642 39.3146,42.5413 -7.3639,18.7668 -32.4105,24.4769 -44.7175,37.0542 -20.9353,21.4524 -45.9955,24.7579 -72.692,29.2203 z"
           stroke="#5acef2"
           id="path78" />
        <path
           d="m 3355.9007,2177.6584 c -38.5356,5.3833 -77.9669,7.7374 -117.0683,7.8527 -25.2347,0.074 -51.8567,0.4938 -76.62,-6.4287 -12.4389,-3.4736 -23.248,-11.5979 -35.0201,-17.3927 -12.1224,-5.9594 -28.8512,-12.6103 -34.0908,-26.2742 -4.923,-12.8408 -3.0844,-31.5752 -7.4081,-47.0583 -3.8455,-13.738 -11.8934,-22.2244 -20.5608,-31.5093 -5.5225,-5.9348 -33.882,-31.6246 -30.6023,-37.296 3.5155,-6.0747 20.5474,-5.5808 29.4102,-6.4204 24.4187,-2.3536 48.9232,-3.1037 73.4076,-2.2471 33.4173,1.2511 67.0905,4.7412 99.9286,12.6432 23.2952,5.5973 40.8659,18.932 62.5851,28.7107 28.1373,12.7009 57.2848,22.7431 85.1528,36.6375 13.8868,6.9225 34.441,15.8287 41.5527,33.6989 2.7343,6.8484 5.3878,24.2658 2.3437,31.1142 -3.6569,8.2313 -17.2676,11.7214 -23.6925,13.8368 -16.0958,5.2762 -32.9391,7.8444 -49.3178,10.1327 z"
           stroke="#ff8062"
           id="path80" />
      </g>
    </g>
  </g>
  <metadata
     id="metadata1051">
    <rdf:RDF>
      <cc:Work
         rdf:about="">
        <dc:title>Whangaehu</dc:title>
      </cc:Work>
    </rdf:RDF>
  </metadata>
</svg>
